SeanSans-NarrowSemibold.ufo
<glyph name="exclam" format="1">
  <advance width="253"/>
  <unicode hex="0021"/>
  <outline>
    <contour>
      <point x="175" y="229" type="line"/>
      <point x="184" y="722" type="line"/>
      <point x="69" y="722" type="line"/>
      <point x="78" y="229" type="line"/>
    </contour>
    <contour>
      <point x="184" y="45" type="curve"/>
      <point x="184" y="80"/>
      <point x="160" y="98"/>
      <point x="126" y="98" type="curve"/>
      <point x="92" y="98"/>
      <point x="69" y="79"/>
      <point x="69" y="45" type="curve"/>
      <point x="182" y="45"/>
      <point x="72" y="45"/>
      <point x="184" y="45" type="curve"/>
      <point x="184" y="9"/>
      <point x="160" y="-8"/>
      <point x="126" y="-8" type="curve"/>
      <point x="91" y="-8"/>
      <point x="69" y="10"/>
      <point x="69" y="45" type="curve"/>
      <point x="182" y="45"/>
      <point x="72" y="45"/>
    </contour>
  </outline>
</glyph>
<glyph name="quotedbl" format="1">
  <advance width="399"/>
  <unicode hex="0022"/>
  <outline>
    <contour>
      <point x="154" y="619" type="line"/>
      <point x="161" y="829" type="line"/>
      <point x="52" y="829" type="line"/>
      <point x="60" y="619" type="line"/>
    </contour>
    <contour>
      <point x="340" y="619" type="line"/>
      <point x="347" y="829" type="line"/>
      <point x="238" y="829" type="line"/>
      <point x="246" y="619" type="line"/>
    </contour>
  </outline>
</glyph>
<glyph name="numbersign" format="1">
  <advance width="625"/>
  <unicode hex="0023"/>
  <outline>
    <contour>
      <point x="37" y="227" type="curve"/>
      <point x="505" y="227" type="curve"/>
      <point x="528" y="308" type="curve"/>
      <point x="61" y="308" type="curve"/>
    </contour>
    <contour>
      <point x="97" y="451" type="curve"/>
      <point x="567" y="451" type="curve"/>
      <point x="590" y="531" type="curve"/>
      <point x="119" y="531" type="curve"/>
    </contour>
    <contour>
      <point x="391" y="39" type="curve"/>
      <point x="583" y="722" type="curve"/>
      <point x="480" y="722" type="curve"/>
      <point x="288" y="39" type="curve"/>
    </contour>
    <contour>
      <point x="150" y="46" type="curve"/>
      <point x="341" y="722" type="curve"/>
      <point x="237" y="722" type="curve"/>
      <point x="51" y="46" type="curve"/>
    </contour>
  </outline>
</glyph>
<glyph name="dollar" format="1">
  <advance width="520"/>
  <unicode hex="0024"/>
  <outline>
    <contour>
      <point x="293" y="-42" type="curve"/>
      <point x="293" y="-10"/>
      <point x="293" y="53"/>
      <point x="293" y="84" type="curve"/>
      <point x="189" y="84"/>
      <point x="293" y="84"/>
      <point x="189" y="84" type="curve"/>
      <point x="189" y="53"/>
      <point x="189" y="-10"/>
      <point x="189" y="-42" type="curve"/>
      <point x="293" y="-42"/>
      <point x="189" y="-42"/>
    </contour>
    <contour>
      <point x="303" y="645" type="curve"/>
      <point x="303" y="677"/>
      <point x="303" y="742"/>
      <point x="303" y="773" type="curve"/>
      <point x="199" y="773"/>
      <point x="303" y="773"/>
      <point x="199" y="773" type="curve"/>
      <point x="199" y="742"/>
      <point x="199" y="677"/>
      <point x="199" y="645" type="curve"/>
      <point x="303" y="645"/>
      <point x="199" y="645"/>
    </contour>
    <contour>
      <point x="44" y="94" type="curve"/>
      <point x="97" y="67"/>
      <point x="162" y="44"/>
      <point x="236" y="44" type="curve"/>
      <point x="374" y="44"/>
      <point x="483" y="100"/>
      <point x="483" y="213" type="curve"/>
      <point x="483" y="314"/>
      <point x="389" y="363"/>
      <point x="284" y="410" type="curve"/>
      <point x="213" y="442"/>
      <point x="151" y="466"/>
      <point x="151" y="528" type="curve"/>
      <point x="151" y="578"/>
      <point x="194" y="607"/>
      <point x="254" y="607" type="curve"/>
      <point x="310" y="607"/>
      <point x="348" y="592"/>
      <point x="399" y="566" type="curve"/>
      <point x="448" y="634"/>
      <point x="399" y="566"/>
      <point x="448" y="634" type="curve"/>
      <point x="385" y="668"/>
      <point x="333" y="686"/>
      <point x="258" y="686" type="curve"/>
      <point x="136" y="686"/>
      <point x="47" y="630"/>
      <point x="47" y="528" type="curve"/>
      <point x="47" y="430"/>
      <point x="122" y="383"/>
      <point x="223" y="338" type="curve"/>
      <point x="300" y="304"/>
      <point x="379" y="278"/>
      <point x="379" y="209" type="curve"/>
      <point x="379" y="152"/>
      <point x="320" y="123"/>
      <point x="245" y="123" type="curve"/>
      <point x="189" y="123"/>
      <point x="141" y="146"/>
      <point x="98" y="166" type="curve"/>
      <point x="44" y="94"/>
      <point x="98" y="166"/>
    </contour>
  </outline>
</glyph>
<glyph name="percent" format="1">
  <advance width="1014"/>
  <unicode hex="0025"/>
  <outline>
    <contour>
      <point x="372" y="-55" type="line"/>
      <point x="750" y="724" type="line"/>
      <point x="654" y="724" type="line"/>
      <point x="276" y="-55" type="line"/>
    </contour>
    <contour>
      <point x="122" y="513" type="curve"/>
      <point x="122" y="592"/>
      <point x="147" y="653"/>
      <point x="219" y="653" type="curve"/>
      <point x="292" y="654"/>
      <point x="318" y="593"/>
      <point x="318" y="512" type="curve"/>
      <point x="318" y="432"/>
      <point x="296" y="369"/>
      <point x="225" y="369" type="curve"/>
      <point x="149" y="369"/>
      <point x="122" y="431"/>
      <point x="122" y="513" type="curve"/>
      <point x="88" y="513"/>
      <point x="65" y="513"/>
      <point x="31" y="513" type="curve"/>
      <point x="31" y="383"/>
      <point x="96" y="295"/>
      <point x="220" y="295" type="curve"/>
      <point x="346" y="295"/>
      <point x="413" y="384"/>
      <point x="413" y="516" type="curve"/>
      <point x="413" y="643"/>
      <point x="347" y="728"/>
      <point x="224" y="728" type="curve"/>
      <point x="98" y="728"/>
      <point x="31" y="642"/>
      <point x="31" y="513" type="curve"/>
      <point x="65" y="513"/>
      <point x="88" y="513"/>
    </contour>
    <contour>
      <point x="692" y="160" type="curve"/>
      <point x="692" y="239"/>
      <point x="717" y="300"/>
      <point x="789" y="300" type="curve"/>
      <point x="862" y="301"/>
      <point x="888" y="240"/>
      <point x="888" y="159" type="curve"/>
      <point x="888" y="79"/>
      <point x="867" y="16"/>
      <point x="795" y="16" type="curve"/>
      <point x="720" y="16"/>
      <point x="692" y="78"/>
      <point x="692" y="160" type="curve"/>
      <point x="659" y="160"/>
      <point x="635" y="160"/>
      <point x="602" y="160" type="curve"/>
      <point x="602" y="30"/>
      <point x="666" y="-59"/>
      <point x="790" y="-59" type="curve"/>
      <point x="917" y="-59"/>
      <point x="983" y="31"/>
      <point x="983" y="163" type="curve"/>
      <point x="983" y="290"/>
      <point x="917" y="375"/>
      <point x="794" y="375" type="curve"/>
      <point x="669" y="375"/>
      <point x="602" y="289"/>
      <point x="602" y="160" type="curve"/>
      <point x="635" y="160"/>
      <point x="659" y="160"/>
    </contour>
  </outline>
</glyph>
<glyph name="ampersand" format="1">
  <advance width="649"/>
  <unicode hex="0026"/>
  <outline>
    <contour>
      <point x="624" y="38" type="line"/>
      <point x="531" y="140"/>
      <point x="429" y="263"/>
      <point x="332" y="368" type="curve"/>
      <point x="280" y="428"/>
      <point x="212" y="476"/>
      <point x="212" y="559" type="curve"/>
      <point x="212" y="607"/>
      <point x="233" y="647"/>
      <point x="278" y="647" type="curve"/>
      <point x="326" y="647"/>
      <point x="352" y="612"/>
      <point x="352" y="561" type="curve"/>
      <point x="352" y="486"/>
      <point x="300" y="448"/>
      <point x="234" y="409" type="curve"/>
      <point x="139" y="351"/>
      <point x="52" y="302"/>
      <point x="52" y="193" type="curve"/>
      <point x="52" y="69"/>
      <point x="144" y="-5"/>
      <point x="271" y="-5" type="curve"/>
      <point x="454" y="-5"/>
      <point x="547" y="132"/>
      <point x="603" y="314" type="curve"/>
      <point x="513" y="334"/>
      <point x="603" y="314"/>
      <point x="513" y="334" type="curve"/>
      <point x="470" y="193"/>
      <point x="413" y="76"/>
      <point x="276" y="76" type="curve"/>
      <point x="204" y="76"/>
      <point x="156" y="120"/>
      <point x="156" y="193" type="curve"/>
      <point x="156" y="269"/>
      <point x="212" y="304"/>
      <point x="278" y="345" type="curve"/>
      <point x="372" y="402"/>
      <point x="455" y="453"/>
      <point x="456" y="561" type="curve"/>
      <point x="456" y="664"/>
      <point x="385" y="727"/>
      <point x="282" y="727" type="curve"/>
      <point x="179" y="727"/>
      <point x="113" y="661"/>
      <point x="113" y="559" type="curve"/>
      <point x="113" y="455"/>
      <point x="190" y="395"/>
      <point x="259" y="320" type="curve"/>
      <point x="352" y="216"/>
      <point x="466" y="85"/>
      <point x="555" y="-15" type="curve"/>
    </contour>
  </outline>
</glyph>
<glyph name="quotesingle" format="1">
  <advance width="214"/>
  <unicode hex="0027"/>
  <outline>
    <contour>
      <point x="154" y="619" type="line"/>
      <point x="161" y="829" type="line"/>
      <point x="52" y="829" type="line"/>
      <point x="60" y="619" type="line"/>
    </contour>
  </outline>
</glyph>
<glyph name="parenleft" format="1">
  <advance width="342"/>
  <unicode hex="0028"/>
  <outline>
    <contour>
      <point x="341" y="-215" type="curve"/>
      <point x="195" y="-50"/>
      <point x="144" y="105"/>
      <point x="144" y="326" type="curve"/>
      <point x="144" y="548"/>
      <point x="196" y="702"/>
      <point x="339" y="870" type="curve"/>
      <point x="277" y="921"/>
      <point x="339" y="870"/>
      <point x="277" y="921" type="curve"/>
      <point x="115" y="738"/>
      <point x="42" y="573"/>
      <point x="42" y="326" type="curve"/>
      <point x="42" y="78"/>
      <point x="116" y="-86"/>
      <point x="278" y="-271" type="curve"/>
      <point x="341" y="-215"/>
      <point x="278" y="-271"/>
    </contour>
  </outline>
</glyph>
<glyph name="parenright" format="1">
  <advance width="353"/>
  <unicode hex="0029"/>
  <outline>
    <contour>
      <point x="62" y="-285" type="curve"/>
      <point x="226" y="-93"/>
      <point x="310" y="73"/>
      <point x="310" y="328" type="curve"/>
      <point x="310" y="578"/>
      <point x="233" y="741"/>
      <point x="65" y="923" type="curve"/>
      <point x="4" y="867"/>
      <point x="65" y="923"/>
      <point x="4" y="867" type="curve"/>
      <point x="152" y="701"/>
      <point x="208" y="548"/>
      <point x="208" y="325" type="curve"/>
      <point x="208" y="97"/>
      <point x="143" y="-58"/>
      <point x="0" y="-234" type="curve"/>
      <point x="62" y="-285"/>
      <point x="0" y="-234"/>
    </contour>
  </outline>
</glyph>
<glyph name="asterisk" format="1">
  <advance width="578"/>
  <unicode hex="002A"/>
  <outline>
    <contour>
      <point x="322" y="576" type="line"/>
      <point x="328" y="786" type="line"/>
      <point x="248" y="786" type="line"/>
      <point x="254" y="576" type="line"/>
    </contour>
    <contour>
      <point x="326" y="525" type="line"/>
      <point x="526" y="589" type="line"/>
      <point x="500" y="664" type="line"/>
      <point x="303" y="589" type="line"/>
    </contour>
    <contour>
      <point x="279" y="505" type="line"/>
      <point x="407" y="337" type="line"/>
      <point x="468" y="387" type="line"/>
      <point x="332" y="548" type="line"/>
    </contour>
    <contour>
      <point x="247" y="547" type="line"/>
      <point x="111" y="386" type="line"/>
      <point x="172" y="336" type="line"/>
      <point x="299" y="504" type="line"/>
    </contour>
    <contour>
      <point x="274" y="588" type="line"/>
      <point x="77" y="663" type="line"/>
      <point x="50" y="588" type="line"/>
      <point x="251" y="523" type="line"/>
    </contour>
  </outline>
</glyph>
<glyph name="plus" format="1">
  <advance width="611"/>
  <unicode hex="002B"/>
  <outline>
    <contour>
      <point x="38" y="269" type="curve"/>
      <point x="573" y="269" type="line"/>
      <point x="573" y="357"/>
      <point x="573" y="269"/>
      <point x="573" y="357" type="curve"/>
      <point x="38" y="357" type="line"/>
      <point x="38" y="269"/>
      <point x="38" y="357"/>
    </contour>
    <contour>
      <point x="354" y="37" type="curve"/>
      <point x="354" y="583" type="line"/>
      <point x="251" y="583"/>
      <point x="361" y="583"/>
      <point x="257" y="583" type="curve"/>
      <point x="257" y="37" type="line"/>
      <point x="361" y="37"/>
      <point x="251" y="37"/>
    </contour>
  </outline>
</glyph>
<glyph name="comma" format="1">
  <advance width="193"/>
  <unicode hex="002C"/>
  <outline>
    <contour>
      <point x="19" y="-116" type="line"/>
      <point x="95" y="-107"/>
      <point x="148" y="-50"/>
      <point x="148" y="36" type="curve"/>
      <point x="148" y="100"/>
      <point x="123" y="139"/>
      <point x="83" y="139" type="curve"/>
      <point x="48" y="139"/>
      <point x="25" y="120"/>
      <point x="25" y="85" type="curve"/>
      <point x="25" y="55"/>
      <point x="43" y="34"/>
      <point x="76" y="32" type="curve"/>
      <point x="75" y="3"/>
      <point x="67" y="-42"/>
      <point x="13" y="-58" type="curve"/>
    </contour>
  </outline>
</glyph>
<glyph name="hyphen" format="1">
  <advance width="387"/>
  <unicode hex="002D"/>
  <outline>
    <contour>
      <point x="64" y="236" type="curve"/>
      <point x="150" y="236"/>
      <point x="237" y="236"/>
      <point x="323" y="236" type="curve"/>
      <point x="323" y="323"/>
      <point x="323" y="236"/>
      <point x="323" y="323" type="curve"/>
      <point x="237" y="323"/>
      <point x="150" y="323"/>
      <point x="64" y="323" type="curve"/>
      <point x="64" y="236"/>
      <point x="64" y="323"/>
    </contour>
  </outline>
</glyph>
<glyph name="period" format="1">
  <advance width="225"/>
  <unicode hex="002E"/>
  <outline>
    <contour>
      <point x="170" y="45" type="curve"/>
      <point x="170" y="80"/>
      <point x="145" y="98"/>
      <point x="111" y="98" type="curve"/>
      <point x="77" y="98"/>
      <point x="55" y="79"/>
      <point x="55" y="45" type="curve"/>
      <point x="168" y="45"/>
      <point x="57" y="45"/>
      <point x="170" y="45" type="curve"/>
      <point x="170" y="9"/>
      <point x="146" y="-8"/>
      <point x="111" y="-8" type="curve"/>
      <point x="77" y="-8"/>
      <point x="55" y="10"/>
      <point x="55" y="45" type="curve"/>
      <point x="168" y="45"/>
      <point x="57" y="45"/>
    </contour>
  </outline>
</glyph>
<glyph name="slash" format="1">
  <advance width="526"/>
  <unicode hex="002F"/>
  <outline>
    <contour>
      <point x="126" y="-32" type="curve"/>
      <point x="252" y="246"/>
      <point x="378" y="525"/>
      <point x="504" y="803" type="curve"/>
      <point x="400" y="803"/>
      <point x="504" y="803"/>
      <point x="400" y="803" type="curve"/>
      <point x="274" y="525"/>
      <point x="148" y="246"/>
      <point x="22" y="-32" type="curve"/>
      <point x="126" y="-32"/>
      <point x="22" y="-32"/>
    </contour>
  </outline>
</glyph>
<glyph name="zero" format="1">
  <advance width="663"/>
  <unicode hex="0030"/>
  <outline>
    <contour>
      <point x="155" y="360" type="curve"/>
      <point x="155" y="521"/>
      <point x="197" y="643"/>
      <point x="329" y="643" type="curve"/>
      <point x="464" y="643"/>
      <point x="509" y="523"/>
      <point x="509" y="363" type="curve"/>
      <point x="509" y="203"/>
      <point x="467" y="79"/>
      <point x="337" y="79" type="curve"/>
      <point x="202" y="79"/>
      <point x="155" y="199"/>
      <point x="155" y="360" type="curve"/>
      <point x="53" y="360"/>
      <point x="154" y="360"/>
      <point x="52" y="360" type="curve"/>
      <point x="52" y="145"/>
      <point x="137" y="-5"/>
      <point x="333" y="-5" type="curve"/>
      <point x="529" y="-5"/>
      <point x="612" y="146"/>
      <point x="612" y="363" type="curve"/>
      <point x="612" y="576"/>
      <point x="531" y="727"/>
      <point x="339" y="727" type="curve"/>
      <point x="140" y="727"/>
      <point x="52" y="577"/>
      <point x="52" y="360" type="curve"/>
      <point x="154" y="360"/>
      <point x="53" y="360"/>
    </contour>
  </outline>
</glyph>
<glyph name="one" format="1">
  <advance width="364"/>
  <unicode hex="0031"/>
  <outline>
    <contour>
      <point x="71" y="494" type="curve"/>
      <point x="267" y="670"/>
      <point x="71" y="494"/>
      <point x="267" y="670" type="curve"/>
      <point x="190" y="722"/>
      <point x="267" y="670"/>
      <point x="190" y="722" type="curve"/>
      <point x="13" y="562"/>
      <point x="190" y="722"/>
      <point x="13" y="562" type="curve"/>
      <point x="71" y="494"/>
      <point x="13" y="562"/>
    </contour>
    <contour>
      <point x="292" y="0" type="curve"/>
      <point x="292" y="241"/>
      <point x="292" y="481"/>
      <point x="292" y="722" type="curve"/>
      <point x="190" y="722"/>
      <point x="292" y="722"/>
      <point x="190" y="722" type="curve"/>
      <point x="190" y="481"/>
      <point x="190" y="241"/>
      <point x="190" y="0" type="curve"/>
      <point x="292" y="0"/>
      <point x="190" y="0"/>
    </contour>
  </outline>
</glyph>
<glyph name="two" format="1">
  <advance width="532"/>
  <unicode hex="0032"/>
  <outline>
    <contour>
      <point x="39" y="0" type="curve"/>
      <point x="214" y="0"/>
      <point x="361" y="0"/>
      <point x="488" y="0" type="curve"/>
      <point x="488" y="80"/>
      <point x="488" y="0"/>
      <point x="488" y="80" type="curve"/>
      <point x="345" y="80"/>
      <point x="183" y="80"/>
      <point x="39" y="80" type="curve"/>
      <point x="39" y="0"/>
      <point x="39" y="80"/>
    </contour>
    <contour>
      <point x="117" y="531" type="curve"/>
      <point x="158" y="596"/>
      <point x="190" y="643"/>
      <point x="260" y="643" type="curve"/>
      <point x="335" y="643"/>
      <point x="371" y="592"/>
      <point x="371" y="510" type="curve"/>
      <point x="371" y="406"/>
      <point x="305" y="332"/>
      <point x="235" y="268" type="curve"/>
      <point x="170" y="204"/>
      <point x="107" y="144"/>
      <point x="39" y="80" type="curve"/>
      <point x="43" y="0"/>
      <point x="39" y="80"/>
      <point x="43" y="0" type="curve"/>
      <point x="161" y="63"/>
      <point x="231" y="138"/>
      <point x="302" y="208" type="curve"/>
      <point x="393" y="290"/>
      <point x="469" y="377"/>
      <point x="469" y="515" type="curve"/>
      <point x="469" y="649"/>
      <point x="396" y="727"/>
      <point x="264" y="727" type="curve"/>
      <point x="159" y="727"/>
      <point x="90" y="669"/>
      <point x="45" y="575" type="curve"/>
      <point x="117" y="531"/>
      <point x="45" y="575"/>
    </contour>
  </outline>
</glyph>
<glyph name="three" format="1">
  <advance width="510"/>
  <unicode hex="0033"/>
  <outline>
    <contour>
      <point x="40" y="57" type="curve"/>
      <point x="93" y="20"/>
      <point x="146" y="-5"/>
      <point x="219" y="-5" type="curve"/>
      <point x="366" y="-5"/>
      <point x="460" y="62"/>
      <point x="460" y="207" type="curve"/>
      <point x="460" y="338"/>
      <point x="331" y="404"/>
      <point x="144" y="404" type="curve"/>
      <point x="144" y="339"/>
      <point x="144" y="401"/>
      <point x="144" y="336" type="curve"/>
      <point x="263" y="336"/>
      <point x="360" y="291"/>
      <point x="360" y="204" type="curve"/>
      <point x="360" y="118"/>
      <point x="299" y="79"/>
      <point x="223" y="79" type="curve"/>
      <point x="176" y="79"/>
      <point x="137" y="94"/>
      <point x="93" y="120" type="curve"/>
      <point x="40" y="57"/>
      <point x="93" y="120"/>
    </contour>
    <contour>
      <point x="104" y="583" type="curve"/>
      <point x="127" y="611"/>
      <point x="168" y="643"/>
      <point x="217" y="643" type="curve"/>
      <point x="288" y="643"/>
      <point x="332" y="607"/>
      <point x="332" y="534" type="curve"/>
      <point x="332" y="458"/>
      <point x="249" y="416"/>
      <point x="144" y="416" type="curve"/>
      <point x="144" y="352"/>
      <point x="144" y="413"/>
      <point x="144" y="349" type="curve"/>
      <point x="307" y="349"/>
      <point x="430" y="411"/>
      <point x="430" y="537" type="curve"/>
      <point x="430" y="661"/>
      <point x="350" y="727"/>
      <point x="225" y="727" type="curve"/>
      <point x="145" y="727"/>
      <point x="76" y="684"/>
      <point x="42" y="637" type="curve"/>
      <point x="104" y="583"/>
      <point x="42" y="637"/>
    </contour>
  </outline>
</glyph>
<glyph name="four" format="1">
  <advance width="552"/>
  <unicode hex="0034"/>
  <outline>
    <contour>
      <point x="58" y="255" type="line"/>
      <point x="376" y="693" type="line"/>
      <point x="291" y="705" type="line"/>
      <point x="15" y="327" type="line"/>
    </contour>
    <contour>
      <point x="517" y="327" type="line"/>
      <point x="15" y="327" type="line"/>
      <point x="16" y="239" type="line"/>
      <point x="517" y="239" type="line"/>
    </contour>
    <contour>
      <point x="395" y="0" type="line"/>
      <point x="395" y="705" type="line"/>
      <point x="293" y="705" type="line"/>
      <point x="293" y="0" type="line"/>
    </contour>
  </outline>
</glyph>
<glyph name="five" format="1">
  <advance width="503"/>
  <unicode hex="0035"/>
  <outline>
    <contour>
      <point x="72" y="722" type="curve"/>
      <point x="72" y="624"/>
      <point x="72" y="515"/>
      <point x="72" y="386" type="curve"/>
      <point x="171" y="357"/>
      <point x="72" y="386"/>
      <point x="170" y="357" type="curve"/>
      <point x="170" y="449"/>
      <point x="170" y="550"/>
      <point x="170" y="642" type="curve"/>
      <point x="72" y="722"/>
      <point x="170" y="642"/>
    </contour>
    <contour>
      <point x="170" y="357" type="curve"/>
      <point x="185" y="368"/>
      <point x="216" y="379"/>
      <point x="242" y="379" type="curve"/>
      <point x="323" y="379"/>
      <point x="358" y="319"/>
      <point x="358" y="235" type="curve"/>
      <point x="358" y="147"/>
      <point x="309" y="79"/>
      <point x="225" y="79" type="curve"/>
      <point x="176" y="79"/>
      <point x="140" y="90"/>
      <point x="95" y="115" type="curve"/>
      <point x="44" y="43"/>
      <point x="95" y="115"/>
      <point x="44" y="43" type="curve"/>
      <point x="97" y="12"/>
      <point x="159" y="-5"/>
      <point x="228" y="-5" type="curve"/>
      <point x="364" y="-5"/>
      <point x="460" y="93"/>
      <point x="460" y="236" type="curve"/>
      <point x="460" y="370"/>
      <point x="384" y="464"/>
      <point x="254" y="464" type="curve"/>
      <point x="198" y="464"/>
      <point x="138" y="445"/>
      <point x="89" y="387" type="curve"/>
      <point x="172" y="361"/>
      <point x="87" y="382"/>
    </contour>
    <contour>
      <point x="433" y="722" type="curve"/>
      <point x="314" y="722"/>
      <point x="186" y="722"/>
      <point x="72" y="722" type="curve"/>
      <point x="170" y="642"/>
      <point x="72" y="722"/>
      <point x="170" y="642" type="curve"/>
      <point x="252" y="642"/>
      <point x="347" y="642"/>
      <point x="433" y="642" type="curve"/>
      <point x="433" y="722"/>
      <point x="433" y="642"/>
    </contour>
  </outline>
</glyph>
<glyph name="six" format="1">
  <advance width="557"/>
  <unicode hex="0036"/>
  <outline>
    <contour>
      <point x="133" y="219" type="curve"/>
      <point x="159" y="296"/>
      <point x="209" y="352"/>
      <point x="290" y="352" type="curve"/>
      <point x="370" y="352"/>
      <point x="409" y="301"/>
      <point x="409" y="218" type="curve"/>
      <point x="409" y="140"/>
      <point x="369" y="85"/>
      <point x="293" y="85" type="curve"/>
      <point x="196" y="85"/>
      <point x="147" y="152"/>
      <point x="147" y="254" type="curve"/>
      <point x="147" y="469"/>
      <point x="282" y="587"/>
      <point x="495" y="654" type="curve"/>
      <point x="468" y="730"/>
      <point x="495" y="654"/>
      <point x="468" y="730" type="curve"/>
      <point x="220" y="656"/>
      <point x="48" y="513"/>
      <point x="48" y="250" type="curve"/>
      <point x="48" y="91"/>
      <point x="135" y="-10"/>
      <point x="290" y="-10" type="curve"/>
      <point x="430" y="-10"/>
      <point x="513" y="77"/>
      <point x="513" y="218" type="curve"/>
      <point x="513" y="355"/>
      <point x="435" y="437"/>
      <point x="305" y="437" type="curve"/>
      <point x="179" y="437"/>
      <point x="102" y="338"/>
      <point x="76" y="246" type="curve"/>
      <point x="132" y="219"/>
      <point x="76" y="246"/>
    </contour>
  </outline>
</glyph>
<glyph name="eight" format="1">
  <advance width="549"/>
  <unicode hex="0038"/>
  <outline>
    <contour>
      <point x="69" y="546" type="curve"/>
      <point x="69" y="437"/>
      <point x="145" y="400"/>
      <point x="244" y="349" type="curve"/>
      <point x="328" y="305"/>
      <point x="395" y="273"/>
      <point x="395" y="186" type="curve"/>
      <point x="395" y="115"/>
      <point x="350" y="78"/>
      <point x="275" y="78" type="curve"/>
      <point x="198" y="78"/>
      <point x="154" y="115"/>
      <point x="154" y="186" type="curve"/>
      <point x="154" y="275"/>
      <point x="222" y="304"/>
      <point x="307" y="349" type="curve"/>
      <point x="403" y="401"/>
      <point x="480" y="437"/>
      <point x="480" y="544" type="curve"/>
      <point x="480" y="667"/>
      <point x="403" y="727"/>
      <point x="275" y="727" type="curve"/>
      <point x="149" y="727"/>
      <point x="69" y="666"/>
      <point x="69" y="546" type="curve"/>
      <point x="171" y="546"/>
      <point x="69" y="546"/>
      <point x="171" y="546" type="curve"/>
      <point x="171" y="607"/>
      <point x="206" y="644"/>
      <point x="271" y="644" type="curve"/>
      <point x="340" y="644"/>
      <point x="378" y="610"/>
      <point x="378" y="544" type="curve"/>
      <point x="378" y="468"/>
      <point x="317" y="444"/>
      <point x="243" y="406" type="curve"/>
      <point x="135" y="348"/>
      <point x="52" y="306"/>
      <point x="52" y="186" type="curve"/>
      <point x="52" y="58"/>
      <point x="136" y="-5"/>
      <point x="270" y="-5" type="curve"/>
      <point x="406" y="-5"/>
      <point x="497" y="55"/>
      <point x="497" y="186" type="curve"/>
      <point x="497" y="305"/>
      <point x="414" y="350"/>
      <point x="307" y="406" type="curve"/>
      <point x="233" y="446"/>
      <point x="171" y="469"/>
      <point x="171" y="546" type="curve"/>
      <point x="69" y="546"/>
      <point x="171" y="546"/>
    </contour>
  </outline>
</glyph>
<glyph name="nine" format="1">
  <advance width="556"/>
  <unicode hex="0039"/>
  <outline>
    <contour>
      <point x="428" y="484" type="curve"/>
      <point x="396" y="410"/>
      <point x="351" y="370"/>
      <point x="270" y="370" type="curve"/>
      <point x="188" y="370"/>
      <point x="143" y="423"/>
      <point x="143" y="508" type="curve"/>
      <point x="143" y="586"/>
      <point x="186" y="637"/>
      <point x="261" y="637" type="curve"/>
      <point x="359" y="637"/>
      <point x="408" y="570"/>
      <point x="408" y="468" type="curve"/>
      <point x="408" y="253"/>
      <point x="280" y="135"/>
      <point x="67" y="68" type="curve"/>
      <point x="102" y="-13"/>
      <point x="67" y="68"/>
      <point x="102" y="-13" type="curve"/>
      <point x="342" y="58"/>
      <point x="507" y="209"/>
      <point x="507" y="472" type="curve"/>
      <point x="507" y="631"/>
      <point x="420" y="732"/>
      <point x="265" y="732" type="curve"/>
      <point x="124" y="732"/>
      <point x="42" y="645"/>
      <point x="42" y="504" type="curve"/>
      <point x="42" y="367"/>
      <point x="124" y="285"/>
      <point x="261" y="285" type="curve"/>
      <point x="379" y="285"/>
      <point x="443" y="368"/>
      <point x="478" y="462" type="curve"/>
      <point x="428" y="484"/>
      <point x="478" y="462"/>
    </contour>
  </outline>
</glyph>
<glyph name="colon" format="1">
  <advance width="240"/>
  <unicode hex="003A"/>
  <outline>
    <contour>
      <point x="176" y="386" type="curve"/>
      <point x="176" y="422"/>
      <point x="151" y="440"/>
      <point x="118" y="440" type="curve"/>
      <point x="83" y="440"/>
      <point x="61" y="420"/>
      <point x="61" y="386" type="curve"/>
      <point x="174" y="386"/>
      <point x="63" y="386"/>
      <point x="176" y="386" type="curve"/>
      <point x="176" y="350"/>
      <point x="152" y="334"/>
      <point x="117" y="334" type="curve"/>
      <point x="83" y="334"/>
      <point x="61" y="352"/>
      <point x="61" y="386" type="curve"/>
      <point x="174" y="386"/>
      <point x="63" y="386"/>
    </contour>
    <contour>
      <point x="176" y="47" type="curve"/>
      <point x="176" y="82"/>
      <point x="151" y="100"/>
      <point x="117" y="100" type="curve"/>
      <point x="83" y="100"/>
      <point x="61" y="81"/>
      <point x="61" y="47" type="curve"/>
      <point x="174" y="47"/>
      <point x="63" y="47"/>
      <point x="176" y="47" type="curve"/>
      <point x="176" y="11"/>
      <point x="152" y="-6"/>
      <point x="117" y="-6" type="curve"/>
      <point x="83" y="-6"/>
      <point x="61" y="12"/>
      <point x="61" y="47" type="curve"/>
      <point x="174" y="47"/>
      <point x="63" y="47"/>
    </contour>
  </outline>
</glyph>
<glyph name="semicolon" format="1">
  <advance width="217"/>
  <unicode hex="003B"/>
  <outline>
    <contour>
      <point x="29" y="-165" type="line"/>
      <point x="109" y="-156"/>
      <point x="164" y="-100"/>
      <point x="164" y="-13" type="curve"/>
      <point x="164" y="50"/>
      <point x="138" y="89"/>
      <point x="96" y="89" type="curve"/>
      <point x="59" y="89"/>
      <point x="35" y="71"/>
      <point x="35" y="36" type="curve"/>
      <point x="35" y="5"/>
      <point x="54" y="-16"/>
      <point x="88" y="-17" type="curve"/>
      <point x="88" y="-46"/>
      <point x="80" y="-92"/>
      <point x="23" y="-108" type="curve"/>
    </contour>
    <contour>
      <point x="152" y="394" type="curve"/>
      <point x="152" y="430"/>
      <point x="128" y="448"/>
      <point x="94" y="448" type="curve"/>
      <point x="60" y="448"/>
      <point x="37" y="428"/>
      <point x="37" y="394" type="curve"/>
      <point x="150" y="394"/>
      <point x="40" y="394"/>
      <point x="152" y="394" type="curve"/>
      <point x="152" y="358"/>
      <point x="128" y="342"/>
      <point x="94" y="342" type="curve"/>
      <point x="59" y="342"/>
      <point x="37" y="360"/>
      <point x="37" y="394" type="curve"/>
      <point x="150" y="394"/>
      <point x="40" y="394"/>
    </contour>
  </outline>
</glyph>
<glyph name="less" format="1">
  <advance width="628"/>
  <unicode hex="003C"/>
  <outline>
    <contour>
      <point x="571" y="614" type="curve"/>
      <point x="390" y="524"/>
      <point x="210" y="434"/>
      <point x="30" y="344" type="curve"/>
      <point x="30" y="256"/>
      <point x="30" y="344"/>
      <point x="30" y="256" type="curve"/>
      <point x="210" y="346"/>
      <point x="390" y="436"/>
      <point x="571" y="526" type="curve"/>
      <point x="571" y="614"/>
      <point x="571" y="526"/>
    </contour>
    <contour>
      <point x="580" y="80" type="curve"/>
      <point x="396" y="168"/>
      <point x="213" y="256"/>
      <point x="30" y="344" type="curve"/>
      <point x="30" y="256"/>
      <point x="30" y="344"/>
      <point x="30" y="256" type="curve"/>
      <point x="213" y="168"/>
      <point x="396" y="80"/>
      <point x="580" y="-8" type="curve"/>
      <point x="580" y="80"/>
      <point x="580" y="-8"/>
    </contour>
  </outline>
</glyph>
<glyph name="equal" format="1">
  <advance width="663"/>
  <unicode hex="003D"/>
  <outline>
    <contour>
      <point x="57" y="175" type="curve"/>
      <point x="243" y="175"/>
      <point x="429" y="175"/>
      <point x="615" y="175" type="curve"/>
      <point x="615" y="260"/>
      <point x="615" y="175"/>
      <point x="615" y="260" type="curve"/>
      <point x="429" y="260"/>
      <point x="243" y="260"/>
      <point x="57" y="260" type="curve"/>
      <point x="57" y="175"/>
      <point x="57" y="260"/>
    </contour>
    <contour>
      <point x="57" y="397" type="curve"/>
      <point x="243" y="397"/>
      <point x="429" y="397"/>
      <point x="615" y="397" type="curve"/>
      <point x="615" y="482"/>
      <point x="615" y="397"/>
      <point x="615" y="482" type="curve"/>
      <point x="429" y="482"/>
      <point x="243" y="482"/>
      <point x="57" y="482" type="curve"/>
      <point x="57" y="397"/>
      <point x="57" y="482"/>
    </contour>
  </outline>
</glyph>
<glyph name="greater" format="1">
  <advance width="629"/>
  <unicode hex="003E"/>
  <outline>
    <contour>
      <point x="57" y="-8" type="curve"/>
      <point x="237" y="82"/>
      <point x="418" y="172"/>
      <point x="598" y="262" type="curve"/>
      <point x="598" y="350"/>
      <point x="598" y="262"/>
      <point x="598" y="350" type="curve"/>
      <point x="418" y="260"/>
      <point x="237" y="170"/>
      <point x="57" y="80" type="curve"/>
      <point x="57" y="-8"/>
      <point x="57" y="80"/>
    </contour>
    <contour>
      <point x="48" y="526" type="curve"/>
      <point x="231" y="438"/>
      <point x="415" y="350"/>
      <point x="598" y="262" type="curve"/>
      <point x="598" y="350"/>
      <point x="598" y="262"/>
      <point x="598" y="350" type="curve"/>
      <point x="415" y="438"/>
      <point x="231" y="526"/>
      <point x="48" y="614" type="curve"/>
      <point x="48" y="526"/>
      <point x="48" y="614"/>
    </contour>
  </outline>
</glyph>
<glyph name="question" format="1">
  <advance width="491"/>
  <unicode hex="003F"/>
  <outline>
    <contour>
      <point x="182" y="364" type="curve"/>
      <point x="182" y="327"/>
      <point x="182" y="258"/>
      <point x="182" y="221" type="curve"/>
      <point x="280" y="221"/>
      <point x="182" y="221"/>
      <point x="280" y="221" type="curve"/>
      <point x="280" y="258"/>
      <point x="280" y="327"/>
      <point x="280" y="364" type="curve"/>
      <point x="182" y="364"/>
      <point x="280" y="364"/>
    </contour>
    <contour>
      <point x="100" y="592" type="line"/>
      <point x="131" y="628"/>
      <point x="170" y="653"/>
      <point x="224" y="653" type="curve"/>
      <point x="305" y="653"/>
      <point x="352" y="600"/>
      <point x="352" y="519" type="curve"/>
      <point x="352" y="425"/>
      <point x="291" y="364"/>
      <point x="193" y="364" type="curve"/>
      <point x="193" y="332"/>
      <point x="193" y="319"/>
      <point x="193" y="286" type="curve"/>
      <point x="348" y="286"/>
      <point x="452" y="374"/>
      <point x="452" y="519" type="curve"/>
      <point x="452" y="655"/>
      <point x="362" y="738"/>
      <point x="229" y="738" type="curve"/>
      <point x="149" y="738"/>
      <point x="90" y="708"/>
      <point x="44" y="655" type="curve"/>
    </contour>
    <contour>
      <point x="289" y="37" type="curve"/>
      <point x="289" y="72"/>
      <point x="264" y="89"/>
      <point x="231" y="89" type="curve"/>
      <point x="197" y="89"/>
      <point x="175" y="70"/>
      <point x="175" y="37" type="curve"/>
      <point x="289" y="37"/>
      <point x="175" y="37"/>
      <point x="289" y="37" type="curve"/>
      <point x="289" y="1"/>
      <point x="265" y="-15"/>
      <point x="231" y="-15" type="curve"/>
      <point x="196" y="-15"/>
      <point x="175" y="2"/>
      <point x="175" y="37" type="curve"/>
      <point x="289" y="37"/>
      <point x="175" y="37"/>
    </contour>
  </outline>
</glyph>
<glyph name="at" format="1">
  <advance width="782"/>
  <unicode hex="0040"/>
  <outline>
    <contour>
      <point x="528" y="-35" type="curve"/>
      <point x="485" y="-58"/>
      <point x="453" y="-66"/>
      <point x="405" y="-66" type="curve"/>
      <point x="238" y="-66"/>
      <point x="140" y="38"/>
      <point x="140" y="208" type="curve"/>
      <point x="140" y="373"/>
      <point x="236" y="473"/>
      <point x="397" y="473" type="curve"/>
      <point x="551" y="473"/>
      <point x="640" y="371"/>
      <point x="640" y="213" type="curve"/>
      <point x="640" y="153"/>
      <point x="636" y="101"/>
      <point x="601" y="101" type="curve"/>
      <point x="563" y="101"/>
      <point x="558" y="151"/>
      <point x="558" y="213" type="curve"/>
      <point x="558" y="325"/>
      <point x="499" y="399"/>
      <point x="391" y="399" type="curve"/>
      <point x="272" y="399"/>
      <point x="215" y="328"/>
      <point x="215" y="210" type="curve"/>
      <point x="215" y="90"/>
      <point x="267" y="13"/>
      <point x="381" y="13" type="curve"/>
      <point x="483" y="13"/>
      <point x="527" y="88"/>
      <point x="543" y="196" type="curve"/>
      <point x="477" y="211"/>
      <point x="543" y="196"/>
      <point x="477" y="211" type="curve"/>
      <point x="463" y="148"/>
      <point x="452" y="93"/>
      <point x="393" y="93" type="curve"/>
      <point x="332" y="93"/>
      <point x="309" y="144"/>
      <point x="309" y="214" type="curve"/>
      <point x="309" y="276"/>
      <point x="329" y="319"/>
      <point x="384" y="319" type="curve"/>
      <point x="445" y="319"/>
      <point x="463" y="273"/>
      <point x="463" y="208" type="curve"/>
      <point x="463" y="104"/>
      <point x="496" y="25"/>
      <point x="593" y="25" type="curve"/>
      <point x="695" y="25"/>
      <point x="731" y="105"/>
      <point x="731" y="217" type="curve"/>
      <point x="731" y="429"/>
      <point x="610" y="557"/>
      <point x="401" y="557" type="curve"/>
      <point x="177" y="557"/>
      <point x="46" y="427"/>
      <point x="46" y="204" type="curve"/>
      <point x="46" y="-17"/>
      <point x="179" y="-146"/>
      <point x="400" y="-146" type="curve"/>
      <point x="468" y="-146"/>
      <point x="513" y="-135"/>
      <point x="567" y="-103" type="curve"/>
      <point x="528" y="-35"/>
      <point x="567" y="-103"/>
    </contour>
  </outline>
</glyph>
<glyph name="B" format="1">
  <advance width="590"/>
  <unicode hex="0042"/>
  <outline>
    <contour>
      <point x="131" y="642" type="curve"/>
      <point x="192" y="642"/>
      <point x="240" y="642"/>
      <point x="300" y="642" type="curve"/>
      <point x="365" y="642"/>
      <point x="402" y="604"/>
      <point x="402" y="541" type="curve"/>
      <point x="402" y="479"/>
      <point x="359" y="446"/>
      <point x="295" y="446" type="curve"/>
      <point x="236" y="446"/>
      <point x="190" y="446"/>
      <point x="131" y="446" type="curve"/>
      <point x="131" y="402"/>
      <point x="131" y="410"/>
      <point x="131" y="366" type="curve"/>
      <point x="175" y="366"/>
      <point x="211" y="366"/>
      <point x="255" y="366" type="curve"/>
      <point x="373" y="366"/>
      <point x="504" y="411"/>
      <point x="504" y="539" type="curve"/>
      <point x="504" y="657"/>
      <point x="427" y="722"/>
      <point x="305" y="722" type="curve"/>
      <point x="243" y="722"/>
      <point x="193" y="722"/>
      <point x="131" y="722" type="curve"/>
      <point x="131" y="678"/>
      <point x="131" y="686"/>
    </contour>
    <contour>
      <point x="195" y="0" type="curve"/>
      <point x="195" y="241"/>
      <point x="195" y="481"/>
      <point x="195" y="722" type="curve"/>
      <point x="87" y="722"/>
      <point x="195" y="722"/>
      <point x="87" y="722" type="curve"/>
      <point x="87" y="481"/>
      <point x="87" y="241"/>
      <point x="87" y="0" type="curve"/>
      <point x="195" y="0"/>
      <point x="87" y="0"/>
    </contour>
    <contour>
      <point x="131" y="366" type="curve"/>
      <point x="190" y="366"/>
      <point x="236" y="366"/>
      <point x="295" y="366" type="curve"/>
      <point x="389" y="366"/>
      <point x="443" y="312"/>
      <point x="443" y="219" type="curve"/>
      <point x="443" y="131"/>
      <point x="392" y="80"/>
      <point x="302" y="80" type="curve"/>
      <point x="241" y="80"/>
      <point x="193" y="80"/>
      <point x="131" y="80" type="curve"/>
      <point x="131" y="36"/>
      <point x="131" y="44"/>
      <point x="131" y="0" type="curve"/>
      <point x="194" y="0"/>
      <point x="244" y="0"/>
      <point x="307" y="0" type="curve"/>
      <point x="454" y="0"/>
      <point x="547" y="75"/>
      <point x="547" y="217" type="curve"/>
      <point x="547" y="377"/>
      <point x="408" y="446"/>
      <point x="256" y="446" type="curve"/>
      <point x="211" y="446"/>
      <point x="175" y="446"/>
      <point x="131" y="446" type="curve"/>
      <point x="131" y="402"/>
      <point x="131" y="410"/>
    </contour>
  </outline>
</glyph>
<glyph name="C" format="1">
  <advance width="627"/>
  <unicode hex="0043"/>
  <outline>
    <contour>
      <point x="598" y="654" type="curve"/>
      <point x="533" y="696"/>
      <point x="459" y="727"/>
      <point x="374" y="727" type="curve"/>
      <point x="157" y="727"/>
      <point x="49" y="576"/>
      <point x="49" y="344" type="curve"/>
      <point x="49" y="132"/>
      <point x="152" y="-5"/>
      <point x="355" y="-5" type="curve"/>
      <point x="466" y="-5"/>
      <point x="537" y="29"/>
      <point x="610" y="96" type="curve"/>
      <point x="555" y="158"/>
      <point x="610" y="96"/>
      <point x="555" y="158" type="curve"/>
      <point x="493" y="107"/>
      <point x="440" y="80"/>
      <point x="360" y="80" type="curve"/>
      <point x="213" y="80"/>
      <point x="153" y="190"/>
      <point x="153" y="348" type="curve"/>
      <point x="153" y="521"/>
      <point x="214" y="643"/>
      <point x="370" y="643" type="curve"/>
      <point x="435" y="643"/>
      <point x="493" y="623"/>
      <point x="546" y="589" type="curve"/>
      <point x="598" y="654"/>
      <point x="546" y="589"/>
    </contour>
    <contour>
      <point x="367" y="796" type="move" name="top"/>
    </contour>
    <contour>
      <point x="381" y="3" type="move" name="bottom"/>
    </contour>
  </outline>
</glyph>
<glyph name="D" format="1">
  <advance width="688"/>
  <unicode hex="0044"/>
  <outline>
    <contour>
      <point x="87" y="722" type="curve"/>
      <point x="87" y="481"/>
      <point x="87" y="241"/>
      <point x="87" y="0" type="curve"/>
      <point x="190" y="0"/>
      <point x="87" y="0"/>
      <point x="190" y="0" type="curve"/>
      <point x="190" y="241"/>
      <point x="190" y="481"/>
      <point x="190" y="722" type="curve"/>
      <point x="87" y="722"/>
      <point x="190" y="722"/>
    </contour>
    <contour>
      <point x="140" y="0" type="curve"/>
      <point x="198" y="0"/>
      <point x="251" y="0"/>
      <point x="309" y="0" type="curve"/>
      <point x="529" y="0"/>
      <point x="639" y="129"/>
      <point x="639" y="354" type="curve"/>
      <point x="639" y="587"/>
      <point x="528" y="722"/>
      <point x="302" y="722" type="curve"/>
      <point x="247" y="722"/>
      <point x="196" y="722"/>
      <point x="140" y="722" type="curve"/>
      <point x="140" y="646"/>
      <point x="140" y="718"/>
      <point x="140" y="642" type="curve"/>
      <point x="194" y="642"/>
      <point x="244" y="642"/>
      <point x="298" y="642" type="curve"/>
      <point x="467" y="642"/>
      <point x="535" y="530"/>
      <point x="535" y="352" type="curve"/>
      <point x="535" y="186"/>
      <point x="473" y="80"/>
      <point x="318" y="80" type="curve"/>
      <point x="257" y="80"/>
      <point x="201" y="80"/>
      <point x="140" y="80" type="curve"/>
      <point x="140" y="4"/>
      <point x="140" y="76"/>
    </contour>
    <contour>
      <point x="283" y="796" type="move" name="top"/>
    </contour>
  </outline>
</glyph>
<glyph name="E" format="1">
  <advance width="543"/>
  <unicode hex="0045"/>
  <outline>
    <contour>
      <point x="143" y="333" type="curve"/>
      <point x="240" y="333"/>
      <point x="337" y="333"/>
      <point x="434" y="333" type="curve"/>
      <point x="434" y="413"/>
      <point x="434" y="333"/>
      <point x="434" y="413" type="curve"/>
      <point x="337" y="413"/>
      <point x="240" y="413"/>
      <point x="143" y="413" type="curve"/>
      <point x="143" y="333"/>
      <point x="143" y="413"/>
    </contour>
    <contour>
      <point x="129" y="642" type="curve"/>
      <point x="250" y="642"/>
      <point x="369" y="642"/>
      <point x="490" y="642" type="curve"/>
      <point x="490" y="722"/>
      <point x="490" y="642"/>
      <point x="490" y="722" type="curve"/>
      <point x="369" y="722"/>
      <point x="250" y="722"/>
      <point x="129" y="722" type="curve"/>
      <point x="129" y="642"/>
      <point x="129" y="722"/>
    </contour>
    <contour>
      <point x="190" y="0" type="curve"/>
      <point x="190" y="722" type="line"/>
      <point x="87" y="722"/>
      <point x="190" y="722"/>
      <point x="87" y="722" type="curve"/>
      <point x="87" y="481"/>
      <point x="87" y="241"/>
      <point x="87" y="0" type="curve"/>
      <point x="190" y="0"/>
      <point x="87" y="0"/>
    </contour>
    <contour>
      <point x="129" y="0" type="curve"/>
      <point x="260" y="0"/>
      <point x="389" y="0"/>
      <point x="520" y="0" type="curve"/>
      <point x="520" y="80"/>
      <point x="520" y="0"/>
      <point x="520" y="80" type="curve"/>
      <point x="389" y="80"/>
      <point x="260" y="80"/>
      <point x="129" y="80" type="curve"/>
      <point x="129" y="0"/>
      <point x="129" y="80"/>
    </contour>
    <contour>
      <point x="267" y="796" type="move" name="top"/>
    </contour>
    <contour>
      <point x="493" y="5" type="move" name="bottom"/>
    </contour>
  </outline>
</glyph>
<glyph name="F" format="1">
  <advance width="515"/>
  <unicode hex="0046"/>
  <outline>
    <contour>
      <point x="142" y="333" type="curve"/>
      <point x="238" y="333"/>
      <point x="333" y="333"/>
      <point x="428" y="333" type="curve"/>
      <point x="428" y="413"/>
      <point x="428" y="333"/>
      <point x="428" y="413" type="curve"/>
      <point x="333" y="413"/>
      <point x="238" y="413"/>
      <point x="142" y="413" type="curve"/>
      <point x="142" y="333"/>
      <point x="142" y="413"/>
    </contour>
    <contour>
      <point x="191" y="0" type="curve"/>
      <point x="191" y="722" type="line"/>
      <point x="87" y="722"/>
      <point x="191" y="722"/>
      <point x="87" y="722" type="curve"/>
      <point x="87" y="481"/>
      <point x="87" y="241"/>
      <point x="87" y="0" type="curve"/>
      <point x="191" y="0"/>
      <point x="87" y="0"/>
    </contour>
    <contour>
      <point x="129" y="642" type="curve"/>
      <point x="250" y="642"/>
      <point x="371" y="642"/>
      <point x="493" y="642" type="curve"/>
      <point x="493" y="722"/>
      <point x="493" y="642"/>
      <point x="493" y="722" type="curve"/>
      <point x="371" y="722"/>
      <point x="250" y="722"/>
      <point x="129" y="722" type="curve"/>
      <point x="129" y="642"/>
      <point x="129" y="722"/>
    </contour>
  </outline>
</glyph>
<glyph name="G" format="1">
  <advance width="716"/>
  <unicode hex="0047"/>
  <outline>
    <contour>
      <point x="634" y="353" type="curve"/>
      <point x="569" y="353"/>
      <point x="504" y="353"/>
      <point x="439" y="353" type="curve"/>
      <point x="439" y="273"/>
      <point x="439" y="353"/>
      <point x="439" y="273" type="curve"/>
      <point x="504" y="273"/>
      <point x="569" y="273"/>
      <point x="634" y="273" type="curve"/>
      <point x="634" y="353"/>
      <point x="634" y="273"/>
    </contour>
    <contour>
      <point x="662" y="78" type="curve"/>
      <point x="662" y="170"/>
      <point x="662" y="261"/>
      <point x="662" y="353" type="curve"/>
      <point x="568" y="353"/>
      <point x="662" y="353"/>
      <point x="568" y="353" type="curve"/>
      <point x="568" y="261"/>
      <point x="568" y="170"/>
      <point x="568" y="78" type="curve"/>
      <point x="662" y="78"/>
      <point x="568" y="78"/>
    </contour>
    <contour>
      <point x="647" y="644" type="curve"/>
      <point x="563" y="701"/>
      <point x="483" y="727"/>
      <point x="381" y="727" type="curve"/>
      <point x="164" y="727"/>
      <point x="48" y="587"/>
      <point x="48" y="362" type="curve"/>
      <point x="48" y="133"/>
      <point x="169" y="-5"/>
      <point x="391" y="-5" type="curve"/>
      <point x="500" y="-5"/>
      <point x="569" y="23"/>
      <point x="662" y="78" type="curve"/>
      <point x="610" y="139"/>
      <point x="662" y="78"/>
      <point x="610" y="139" type="curve"/>
      <point x="540" y="98"/>
      <point x="477" y="79"/>
      <point x="391" y="79" type="curve"/>
      <point x="226" y="79"/>
      <point x="152" y="194"/>
      <point x="152" y="370" type="curve"/>
      <point x="152" y="534"/>
      <point x="225" y="643"/>
      <point x="381" y="643" type="curve"/>
      <point x="463" y="643"/>
      <point x="527" y="621"/>
      <point x="598" y="575" type="curve"/>
      <point x="647" y="644"/>
      <point x="598" y="575"/>
    </contour>
    <contour>
      <point x="379" y="796" type="move" name="top"/>
    </contour>
    <contour>
      <point x="419" y="-18" type="move" name="bottom"/>
    </contour>
  </outline>
</glyph>
<glyph name="H" format="1">
  <advance width="721"/>
  <unicode hex="0048"/>
  <outline>
    <contour>
      <point x="190" y="0" type="curve"/>
      <point x="190" y="722" type="line"/>
      <point x="87" y="722"/>
      <point x="190" y="722"/>
      <point x="87" y="722" type="curve"/>
      <point x="87" y="481"/>
      <point x="87" y="241"/>
      <point x="87" y="0" type="curve"/>
      <point x="190" y="0"/>
      <point x="87" y="0"/>
    </contour>
    <contour>
      <point x="580" y="403" type="curve"/>
      <point x="433" y="403"/>
      <point x="286" y="403"/>
      <point x="138" y="403" type="curve"/>
      <point x="138" y="323"/>
      <point x="138" y="403"/>
      <point x="138" y="323" type="curve"/>
      <point x="286" y="323"/>
      <point x="433" y="323"/>
      <point x="580" y="323" type="curve"/>
      <point x="580" y="403"/>
      <point x="580" y="323"/>
    </contour>
    <contour>
      <point x="634" y="0" type="curve"/>
      <point x="634" y="220"/>
      <point x="634" y="502"/>
      <point x="634" y="722" type="curve"/>
      <point x="530" y="722"/>
      <point x="634" y="722"/>
      <point x="530" y="722" type="curve"/>
      <point x="530" y="0" type="line"/>
      <point x="634" y="0"/>
      <point x="530" y="0"/>
    </contour>
  </outline>
</glyph>
<glyph name="I" format="1">
  <advance width="277"/>
  <unicode hex="0049"/>
  <outline>
    <contour>
      <point x="190" y="0" type="curve"/>
      <point x="190" y="241"/>
      <point x="190" y="481"/>
      <point x="190" y="722" type="curve"/>
      <point x="87" y="722"/>
      <point x="190" y="722"/>
      <point x="87" y="722" type="curve"/>
      <point x="87" y="481"/>
      <point x="87" y="241"/>
      <point x="87" y="0" type="curve"/>
      <point x="190" y="0"/>
      <point x="87" y="0"/>
    </contour>
    <contour>
      <point x="140" y="796" type="move" name="top"/>
    </contour>
    <contour>
      <point x="185" y="2" type="move" name="bottom"/>
    </contour>
  </outline>
</glyph>
<glyph name="J" format="1">
  <advance width="414"/>
  <unicode hex="004A"/>
  <outline>
    <contour>
      <point x="4" y="43" type="curve"/>
      <point x="34" y="20"/>
      <point x="76" y="-4"/>
      <point x="129" y="-4" type="curve"/>
      <point x="268" y="-4"/>
      <point x="333" y="81"/>
      <point x="333" y="235" type="curve"/>
      <point x="333" y="402"/>
      <point x="333" y="554"/>
      <point x="333" y="722" type="curve"/>
      <point x="234" y="722"/>
      <point x="329" y="722"/>
      <point x="230" y="722" type="curve"/>
      <point x="230" y="554"/>
      <point x="230" y="402"/>
      <point x="230" y="235" type="curve"/>
      <point x="230" y="145"/>
      <point x="210" y="77"/>
      <point x="129" y="77" type="curve"/>
      <point x="97" y="77"/>
      <point x="77" y="91"/>
      <point x="52" y="107" type="curve"/>
      <point x="7" y="46"/>
      <point x="50" y="104"/>
    </contour>
  </outline>
</glyph>
<glyph name="K" format="1">
  <advance width="614"/>
  <unicode hex="004B"/>
  <outline>
    <contour>
      <point x="459" y="722" type="curve"/>
      <point x="168" y="380" type="line"/>
      <point x="288" y="380"/>
      <point x="173" y="380"/>
      <point x="293" y="380" type="curve"/>
      <point x="585" y="722" type="line"/>
      <point x="484" y="722"/>
      <point x="560" y="722"/>
    </contour>
    <contour>
      <point x="190" y="0" type="curve"/>
      <point x="190" y="722" type="line"/>
      <point x="87" y="722"/>
      <point x="190" y="722"/>
      <point x="87" y="722" type="curve"/>
      <point x="87" y="481"/>
      <point x="87" y="241"/>
      <point x="87" y="0" type="curve"/>
      <point x="190" y="0"/>
      <point x="87" y="0"/>
    </contour>
    <contour>
      <point x="606" y="0" type="curve"/>
      <point x="293" y="380" type="line"/>
      <point x="173" y="380"/>
      <point x="288" y="380"/>
      <point x="168" y="380" type="curve"/>
      <point x="478" y="0" type="line"/>
      <point x="588" y="0"/>
      <point x="496" y="0"/>
    </contour>
    <contour>
      <point x="347" y="-20" type="move" name="bottom"/>
    </contour>
  </outline>
</glyph>
<glyph name="L" format="1">
  <advance width="523"/>
  <unicode hex="004C"/>
  <outline>
    <contour>
      <point x="190" y="0" type="curve"/>
      <point x="190" y="241"/>
      <point x="190" y="481"/>
      <point x="190" y="722" type="curve"/>
      <point x="87" y="722"/>
      <point x="190" y="722"/>
      <point x="87" y="722" type="curve"/>
      <point x="87" y="481"/>
      <point x="87" y="241"/>
      <point x="87" y="0" type="curve"/>
      <point x="190" y="0"/>
      <point x="87" y="0"/>
    </contour>
    <contour>
      <point x="138" y="0" type="curve"/>
      <point x="263" y="0"/>
      <point x="387" y="0"/>
      <point x="512" y="0" type="curve"/>
      <point x="512" y="80"/>
      <point x="512" y="0"/>
      <point x="512" y="80" type="curve"/>
      <point x="387" y="80"/>
      <point x="263" y="80"/>
      <point x="138" y="80" type="curve"/>
      <point x="138" y="0"/>
      <point x="138" y="80"/>
    </contour>
    <contour>
      <point x="139" y="796" type="move" name="top"/>
    </contour>
    <contour>
      <point x="300" y="-17" type="move" name="bottom"/>
    </contour>
  </outline>
</glyph>
<glyph name="M" format="1">
  <advance width="833"/>
  <unicode hex="004D"/>
  <outline>
    <contour>
      <point x="775" y="0" type="curve"/>
      <point x="756" y="241"/>
      <point x="735" y="481"/>
      <point x="716" y="722" type="curve"/>
      <point x="622" y="722"/>
      <point x="716" y="722"/>
      <point x="622" y="722" type="curve"/>
      <point x="640" y="481"/>
      <point x="654" y="241"/>
      <point x="672" y="0" type="curve"/>
      <point x="775" y="0"/>
      <point x="672" y="0"/>
    </contour>
    <contour>
      <point x="155" y="0" type="curve"/>
      <point x="172" y="241"/>
      <point x="188" y="481"/>
      <point x="205" y="722" type="curve"/>
      <point x="113" y="722"/>
      <point x="205" y="722"/>
      <point x="113" y="722" type="curve"/>
      <point x="95" y="481"/>
      <point x="78" y="241"/>
      <point x="61" y="0" type="curve"/>
      <point x="155" y="0"/>
      <point x="61" y="0"/>
    </contour>
    <contour>
      <point x="457" y="0" type="curve"/>
      <point x="374" y="241"/>
      <point x="290" y="481"/>
      <point x="207" y="722" type="curve"/>
      <point x="115" y="722"/>
      <point x="207" y="722"/>
      <point x="115" y="722" type="curve"/>
      <point x="198" y="481"/>
      <point x="281" y="241"/>
      <point x="364" y="0" type="curve"/>
      <point x="457" y="0"/>
      <point x="364" y="0"/>
    </contour>
    <contour>
      <point x="465" y="0" type="curve"/>
      <point x="546" y="241"/>
      <point x="628" y="481"/>
      <point x="709" y="722" type="curve"/>
      <point x="617" y="722"/>
      <point x="709" y="722"/>
      <point x="617" y="722" type="curve"/>
      <point x="535" y="481"/>
      <point x="453" y="241"/>
      <point x="371" y="0" type="curve"/>
      <point x="465" y="0"/>
      <point x="371" y="0"/>
    </contour>
  </outline>
</glyph>
<glyph name="P" format="1">
  <advance width="548"/>
  <unicode hex="0050"/>
  <outline>
    <contour>
      <point x="125" y="306" type="curve"/>
      <point x="176" y="278"/>
      <point x="233" y="260"/>
      <point x="294" y="260" type="curve"/>
      <point x="428" y="263"/>
      <point x="512" y="341"/>
      <point x="512" y="483" type="curve"/>
      <point x="512" y="631"/>
      <point x="412" y="722"/>
      <point x="261" y="722" type="curve"/>
      <point x="222" y="722"/>
      <point x="182" y="722"/>
      <point x="142" y="722" type="curve"/>
      <point x="142" y="642"/>
      <point x="142" y="722"/>
      <point x="142" y="642" type="curve"/>
      <point x="177" y="642"/>
      <point x="212" y="642"/>
      <point x="248" y="642" type="curve"/>
      <point x="347" y="642"/>
      <point x="409" y="582"/>
      <point x="409" y="485" type="curve"/>
      <point x="409" y="397"/>
      <point x="364" y="338"/>
      <point x="282" y="338" type="curve"/>
      <point x="233" y="338"/>
      <point x="200" y="352"/>
      <point x="157" y="374" type="curve"/>
      <point x="125" y="308"/>
      <point x="157" y="374"/>
    </contour>
    <contour>
      <point x="190" y="0" type="curve"/>
      <point x="190" y="241"/>
      <point x="190" y="481"/>
      <point x="190" y="722" type="curve"/>
      <point x="87" y="722"/>
      <point x="190" y="722"/>
      <point x="87" y="722" type="curve"/>
      <point x="87" y="481"/>
      <point x="87" y="241"/>
      <point x="87" y="0" type="curve"/>
      <point x="190" y="0"/>
      <point x="87" y="0"/>
    </contour>
  </outline>
</glyph>
<glyph name="Q" format="1">
  <advance width="752"/>
  <unicode hex="0051"/>
  <outline>
    <contour>
      <point x="319" y="19" type="curve"/>
      <point x="414" y="-154"/>
      <point x="528" y="-221"/>
      <point x="714" y="-221" type="curve"/>
      <point x="714" y="-137"/>
      <point x="714" y="-221"/>
      <point x="714" y="-137" type="curve"/>
      <point x="569" y="-137"/>
      <point x="484" y="-78"/>
      <point x="409" y="59" type="curve"/>
      <point x="319" y="19"/>
      <point x="409" y="59"/>
    </contour>
    <contour>
      <point x="152" y="360" type="curve"/>
      <point x="152" y="518"/>
      <point x="209" y="639"/>
      <point x="354" y="639" type="curve"/>
      <point x="500" y="639"/>
      <point x="560" y="520"/>
      <point x="560" y="361" type="curve"/>
      <point x="560" y="202"/>
      <point x="505" y="79"/>
      <point x="360" y="79" type="curve"/>
      <point x="212" y="79"/>
      <point x="152" y="200"/>
      <point x="152" y="360" type="curve"/>
      <point x="49" y="360"/>
      <point x="152" y="360"/>
      <point x="49" y="360" type="curve"/>
      <point x="49" y="146"/>
      <point x="154" y="-5"/>
      <point x="355" y="-5" type="curve"/>
      <point x="560" y="-5"/>
      <point x="664" y="149"/>
      <point x="664" y="365" type="curve"/>
      <point x="664" y="578"/>
      <point x="563" y="730"/>
      <point x="361" y="730" type="curve"/>
      <point x="156" y="730"/>
      <point x="49" y="576"/>
      <point x="49" y="360" type="curve"/>
      <point x="152" y="360"/>
      <point x="49" y="360"/>
    </contour>
  </outline>
</glyph>
<glyph name="R" format="1">
  <advance width="603"/>
  <unicode hex="0052"/>
  <outline>
    <contour>
      <point x="263" y="354" type="curve"/>
      <point x="328" y="247"/>
      <point x="421" y="107"/>
      <point x="485" y="0" type="curve"/>
      <point x="594" y="0"/>
      <point x="492" y="0"/>
      <point x="601" y="0" type="curve"/>
      <point x="538" y="105"/>
      <point x="442" y="249"/>
      <point x="379" y="354" type="curve"/>
      <point x="265" y="354"/>
      <point x="377" y="354"/>
    </contour>
    <contour>
      <point x="190" y="0" type="curve"/>
      <point x="190" y="241"/>
      <point x="190" y="481"/>
      <point x="190" y="722" type="curve"/>
      <point x="87" y="722"/>
      <point x="190" y="722"/>
      <point x="87" y="722" type="curve"/>
      <point x="87" y="481"/>
      <point x="87" y="241"/>
      <point x="87" y="0" type="curve"/>
      <point x="190" y="0"/>
      <point x="87" y="0"/>
    </contour>
    <contour>
      <point x="141" y="312" type="curve"/>
      <point x="192" y="312"/>
      <point x="244" y="312"/>
      <point x="296" y="312" type="curve"/>
      <point x="437" y="312"/>
      <point x="527" y="383"/>
      <point x="527" y="525" type="curve"/>
      <point x="527" y="657"/>
      <point x="440" y="722"/>
      <point x="303" y="722" type="curve"/>
      <point x="248" y="722"/>
      <point x="196" y="722"/>
      <point x="141" y="722" type="curve"/>
      <point x="141" y="642"/>
      <point x="141" y="722"/>
      <point x="141" y="642" type="curve"/>
      <point x="190" y="642"/>
      <point x="236" y="642"/>
      <point x="285" y="642" type="curve"/>
      <point x="371" y="642"/>
      <point x="423" y="600"/>
      <point x="423" y="517" type="curve"/>
      <point x="423" y="437"/>
      <point x="379" y="392"/>
      <point x="298" y="392" type="curve"/>
      <point x="246" y="392"/>
      <point x="193" y="392"/>
      <point x="141" y="392" type="curve"/>
      <point x="141" y="312"/>
      <point x="141" y="392"/>
    </contour>
    <contour>
      <point x="261" y="796" type="move" name="top"/>
    </contour>
    <contour>
      <point x="361" y="-21" type="move" name="bottom"/>
    </contour>
  </outline>
</glyph>
<glyph name="S" format="1">
  <advance width="523"/>
  <unicode hex="0053"/>
  <outline>
    <contour>
      <point x="41" y="55" type="curve"/>
      <point x="101" y="15"/>
      <point x="165" y="-5"/>
      <point x="243" y="-5" type="curve"/>
      <point x="382" y="-5"/>
      <point x="487" y="55"/>
      <point x="487" y="185" type="curve"/>
      <point x="487" y="302"/>
      <point x="402" y="354"/>
      <point x="296" y="408" type="curve"/>
      <point x="220" y="446"/>
      <point x="148" y="483"/>
      <point x="148" y="548" type="curve"/>
      <point x="147" y="608"/>
      <point x="192" y="645"/>
      <point x="255" y="645" type="curve"/>
      <point x="312" y="645"/>
      <point x="362" y="620"/>
      <point x="400" y="598" type="curve"/>
      <point x="444" y="659"/>
      <point x="402" y="601"/>
      <point x="446" y="662" type="curve"/>
      <point x="389" y="699"/>
      <point x="332" y="722"/>
      <point x="258" y="722" type="curve"/>
      <point x="134" y="722"/>
      <point x="44" y="660"/>
      <point x="44" y="544" type="curve"/>
      <point x="44" y="433"/>
      <point x="128" y="383"/>
      <point x="228" y="333" type="curve"/>
      <point x="309" y="293"/>
      <point x="383" y="253"/>
      <point x="383" y="184" type="curve"/>
      <point x="383" y="122"/>
      <point x="325" y="79"/>
      <point x="248" y="79" type="curve"/>
      <point x="189" y="79"/>
      <point x="140" y="102"/>
      <point x="95" y="131" type="curve"/>
      <point x="44" y="58"/>
      <point x="93" y="127"/>
    </contour>
    <contour>
      <point x="258" y="796" type="move" name="top"/>
    </contour>
    <contour>
      <point x="283" y="-16" type="move" name="bottom"/>
    </contour>
  </outline>
</glyph>
<glyph name="T" format="1">
  <advance width="573"/>
  <unicode hex="0054"/>
  <outline>
    <contour>
      <point x="338" y="0" type="curve"/>
      <point x="338" y="237"/>
      <point x="338" y="473"/>
      <point x="338" y="710" type="curve"/>
      <point x="235" y="710"/>
      <point x="338" y="710"/>
      <point x="235" y="710" type="curve"/>
      <point x="234" y="473"/>
      <point x="235" y="237"/>
      <point x="235" y="0" type="curve"/>
      <point x="338" y="0"/>
      <point x="235" y="0"/>
    </contour>
    <contour>
      <point x="11" y="637" type="curve"/>
      <point x="194" y="637"/>
      <point x="378" y="637"/>
      <point x="562" y="637" type="curve"/>
      <point x="562" y="725"/>
      <point x="562" y="634"/>
      <point x="562" y="722" type="curve"/>
      <point x="378" y="722"/>
      <point x="194" y="722"/>
      <point x="11" y="722" type="curve"/>
      <point x="11" y="634"/>
      <point x="11" y="725"/>
    </contour>
    <contour>
      <point x="285" y="796" type="move" name="top"/>
    </contour>
    <contour>
      <point x="324" y="-19" type="move" name="bottom"/>
    </contour>
  </outline>
</glyph>
<glyph name="V" format="1">
  <advance width="625"/>
  <unicode hex="0056"/>
  <outline>
    <contour>
      <point x="510" y="722" type="curve"/>
      <point x="429" y="481"/>
      <point x="350" y="241"/>
      <point x="271" y="0" type="curve"/>
      <point x="377" y="0"/>
      <point x="263" y="0"/>
      <point x="370" y="0" type="curve"/>
      <point x="452" y="241"/>
      <point x="533" y="481"/>
      <point x="616" y="722" type="curve"/>
      <point x="510" y="722"/>
      <point x="616" y="722"/>
    </contour>
    <contour>
      <point x="7" y="722" type="curve"/>
      <point x="90" y="481"/>
      <point x="174" y="241"/>
      <point x="258" y="0" type="curve"/>
      <point x="364" y="0"/>
      <point x="251" y="0"/>
      <point x="358" y="0" type="curve"/>
      <point x="277" y="241"/>
      <point x="196" y="481"/>
      <point x="114" y="722" type="curve"/>
      <point x="7" y="722"/>
      <point x="114" y="722"/>
    </contour>
  </outline>
</glyph>
<glyph name="W" format="1">
  <advance width="817"/>
  <unicode hex="0057"/>
  <outline>
    <contour>
      <point x="280" y="0" type="curve"/>
      <point x="340" y="241"/>
      <point x="398" y="481"/>
      <point x="458" y="722" type="curve"/>
      <point x="365" y="722"/>
      <point x="459" y="722"/>
      <point x="366" y="722" type="curve"/>
      <point x="311" y="481"/>
      <point x="256" y="242"/>
      <point x="199" y="0" type="curve"/>
      <point x="287" y="0"/>
      <point x="193" y="0"/>
    </contour>
    <contour>
      <point x="374" y="722" type="curve"/>
      <point x="428" y="481"/>
      <point x="479" y="241"/>
      <point x="533" y="0" type="curve"/>
      <point x="621" y="0"/>
      <point x="525" y="0"/>
      <point x="613" y="0" type="curve"/>
      <point x="563" y="243"/>
      <point x="515" y="481"/>
      <point x="465" y="722" type="curve"/>
      <point x="373" y="722"/>
      <point x="467" y="722"/>
    </contour>
    <contour>
      <point x="25" y="722" type="curve"/>
      <point x="79" y="481"/>
      <point x="133" y="241"/>
      <point x="187" y="0" type="curve"/>
      <point x="275" y="0"/>
      <point x="186" y="0"/>
      <point x="275" y="0" type="curve"/>
      <point x="223" y="241"/>
      <point x="172" y="481"/>
      <point x="120" y="722" type="curve"/>
      <point x="25" y="722"/>
      <point x="120" y="722"/>
    </contour>
    <contour>
      <point x="701" y="722" type="curve"/>
      <point x="647" y="481"/>
      <point x="594" y="241"/>
      <point x="540" y="0" type="curve"/>
      <point x="629" y="0"/>
      <point x="539" y="0"/>
      <point x="627" y="0" type="curve"/>
      <point x="683" y="241"/>
      <point x="739" y="481"/>
      <point x="795" y="722" type="curve"/>
      <point x="701" y="722"/>
      <point x="795" y="722"/>
    </contour>
  </outline>
</glyph>
<glyph name="X" format="1">
  <advance width="582"/>
  <unicode hex="0058"/>
  <outline>
    <contour>
      <point x="450" y="722" type="curve"/>
      <point x="305" y="484"/>
      <point x="150" y="238"/>
      <point x="5" y="0" type="curve"/>
      <point x="109" y="0"/>
      <point x="13" y="0"/>
      <point x="117" y="0" type="curve"/>
      <point x="262" y="238"/>
      <point x="413" y="484"/>
      <point x="558" y="722" type="curve"/>
      <point x="458" y="722"/>
      <point x="550" y="722"/>
    </contour>
    <contour>
      <point x="30" y="722" type="curve"/>
      <point x="173" y="484"/>
      <point x="322" y="238"/>
      <point x="465" y="0" type="curve"/>
      <point x="569" y="0"/>
      <point x="471" y="0"/>
      <point x="575" y="0" type="curve"/>
      <point x="430" y="239"/>
      <point x="280" y="483"/>
      <point x="136" y="722" type="curve"/>
      <point x="36" y="722"/>
      <point x="129" y="722"/>
    </contour>
  </outline>
</glyph>
<glyph name="bracketleft" format="1">
  <advance width="286"/>
  <unicode hex="005B"/>
  <outline>
    <contour>
      <point x="251" y="770" type="curve"/>
      <point x="206" y="770"/>
      <point x="161" y="770"/>
      <point x="116" y="770" type="curve"/>
      <point x="104" y="770"/>
      <point x="81" y="770"/>
      <point x="70" y="770" type="curve"/>
      <point x="70" y="758"/>
      <point x="70" y="743"/>
      <point x="70" y="731" type="curve"/>
      <point x="70" y="461"/>
      <point x="70" y="191"/>
      <point x="70" y="-80" type="curve"/>
      <point x="70" y="-92"/>
      <point x="70" y="-102"/>
      <point x="70" y="-117" type="curve"/>
      <point x="80" y="-117"/>
      <point x="102" y="-117"/>
      <point x="115" y="-117" type="curve"/>
      <point x="160" y="-117"/>
      <point x="206" y="-117"/>
      <point x="251" y="-117" type="curve"/>
      <point x="251" y="-28"/>
      <point x="251" y="-117"/>
      <point x="251" y="-28" type="curve"/>
      <point x="206" y="-28"/>
      <point x="160" y="-28"/>
      <point x="115" y="-28" type="curve"/>
      <point x="173" y="-28"/>
      <point x="115" y="-28"/>
      <point x="173" y="-28" type="curve"/>
      <point x="173" y="-80"/>
      <point x="173" y="-28"/>
      <point x="173" y="-80" type="curve"/>
      <point x="173" y="191"/>
      <point x="173" y="461"/>
      <point x="173" y="731" type="curve"/>
      <point x="173" y="682"/>
      <point x="173" y="731"/>
      <point x="173" y="682" type="curve"/>
      <point x="116" y="682"/>
      <point x="173" y="682"/>
      <point x="116" y="682" type="curve"/>
      <point x="161" y="682"/>
      <point x="206" y="682"/>
      <point x="251" y="682" type="curve"/>
      <point x="251" y="770"/>
      <point x="251" y="682"/>
    </contour>
  </outline>
</glyph>
<glyph name="backslash" format="1">
  <advance width="504"/>
  <unicode hex="005C"/>
  <outline>
    <contour>
      <point x="480" y="-68" type="curve"/>
      <point x="364" y="236"/>
      <point x="248" y="540"/>
      <point x="132" y="844" type="curve"/>
      <point x="24" y="844"/>
      <point x="132" y="844"/>
      <point x="24" y="844" type="curve"/>
      <point x="140" y="540"/>
      <point x="256" y="236"/>
      <point x="372" y="-68" type="curve"/>
      <point x="480" y="-68"/>
      <point x="372" y="-68"/>
    </contour>
  </outline>
</glyph>
<glyph name="bracketright" format="1">
  <advance width="286"/>
  <unicode hex="005D"/>
  <outline>
    <contour>
      <point x="36" y="682" type="curve"/>
      <point x="81" y="682"/>
      <point x="126" y="682"/>
      <point x="171" y="682" type="curve"/>
      <point x="162" y="690"/>
      <point x="148" y="693"/>
      <point x="139" y="702" type="curve"/>
      <point x="130" y="711"/>
      <point x="122" y="722"/>
      <point x="114" y="731" type="curve"/>
      <point x="114" y="461"/>
      <point x="113" y="191"/>
      <point x="114" y="-80" type="curve"/>
      <point x="123" y="-70"/>
      <point x="132" y="-60"/>
      <point x="142" y="-51" type="curve"/>
      <point x="150" y="-42"/>
      <point x="163" y="-38"/>
      <point x="172" y="-28" type="curve"/>
      <point x="127" y="-28"/>
      <point x="81" y="-28"/>
      <point x="36" y="-28" type="curve"/>
      <point x="35" y="-117"/>
      <point x="36" y="-28"/>
      <point x="35" y="-117" type="curve"/>
      <point x="81" y="-117"/>
      <point x="127" y="-117"/>
      <point x="172" y="-117" type="curve"/>
      <point x="217" y="-117"/>
      <point x="172" y="-117"/>
      <point x="217" y="-117" type="curve"/>
      <point x="217" y="-80"/>
      <point x="217" y="-117"/>
      <point x="217" y="-80" type="curve"/>
      <point x="217" y="191"/>
      <point x="217" y="461"/>
      <point x="217" y="731" type="curve"/>
      <point x="217" y="770"/>
      <point x="217" y="731"/>
      <point x="217" y="770" type="curve"/>
      <point x="171" y="770"/>
      <point x="217" y="770"/>
      <point x="171" y="770" type="curve"/>
      <point x="126" y="770"/>
      <point x="81" y="770"/>
      <point x="36" y="770" type="curve"/>
      <point x="36" y="682"/>
      <point x="36" y="770"/>
    </contour>
  </outline>
</glyph>
<glyph name="asciicircum" format="1">
  <advance width="495"/>
  <unicode hex="005E"/>
  <outline>
    <contour>
      <point x="144" y="457" type="curve"/>
      <point x="195" y="563"/>
      <point x="247" y="668"/>
      <point x="298" y="773" type="curve"/>
      <point x="195" y="773"/>
      <point x="298" y="773"/>
      <point x="195" y="773" type="curve"/>
      <point x="143" y="668"/>
      <point x="91" y="563"/>
      <point x="40" y="457" type="curve"/>
      <point x="144" y="457"/>
      <point x="40" y="457"/>
    </contour>
    <contour>
      <point x="454" y="457" type="curve"/>
      <point x="404" y="561"/>
      <point x="350" y="669"/>
      <point x="299" y="773" type="curve"/>
      <point x="195" y="773"/>
      <point x="298" y="773"/>
      <point x="195" y="773" type="curve"/>
      <point x="246" y="669"/>
      <point x="300" y="561"/>
      <point x="351" y="457" type="curve"/>
      <point x="454" y="457"/>
      <point x="351" y="457"/>
    </contour>
  </outline>
</glyph>
<glyph name="underscore" format="1">
  <advance width="605"/>
  <unicode hex="005F"/>
  <outline>
    <contour>
      <point x="0" y="-192" type="curve"/>
      <point x="201" y="-192"/>
      <point x="403" y="-192"/>
      <point x="604" y="-192" type="curve"/>
      <point x="604" y="-112"/>
      <point x="604" y="-192"/>
      <point x="604" y="-112" type="curve"/>
      <point x="403" y="-112"/>
      <point x="201" y="-112"/>
      <point x="0" y="-112" type="curve"/>
      <point x="0" y="-192"/>
      <point x="0" y="-112"/>
    </contour>
  </outline>
</glyph>
<glyph name="grave" format="1">
  <advance width="358"/>
  <unicode hex="0060"/>
  <outline>
    <contour>
      <point x="282" y="580" type="line"/>
      <point x="182" y="746" type="line"/>
      <point x="52" y="746" type="line"/>
      <point x="181" y="580" type="line"/>
    </contour>
    <contour>
      <point x="229" y="580" type="move" name="_top"/>
    </contour>
  </outline>
</glyph>
<glyph name="b" format="1">
  <advance width="593"/>
  <unicode hex="0062"/>
  <outline>
    <contour>
      <point x="151" y="362" type="curve"/>
      <point x="182" y="405"/>
      <point x="236" y="455"/>
      <point x="309" y="455" type="curve"/>
      <point x="405" y="455"/>
      <point x="445" y="370"/>
      <point x="445" y="264" type="curve"/>
      <point x="446" y="161"/>
      <point x="402" y="78"/>
      <point x="310" y="78" type="curve"/>
      <point x="246" y="78"/>
      <point x="196" y="111"/>
      <point x="158" y="160" type="curve"/>
      <point x="112" y="128"/>
      <point x="149" y="152"/>
      <point x="103" y="120" type="curve"/>
      <point x="158" y="47"/>
      <point x="222" y="-5"/>
      <point x="323" y="-5" type="curve"/>
      <point x="468" y="-5"/>
      <point x="549" y="108"/>
      <point x="549" y="267" type="curve"/>
      <point x="549" y="425"/>
      <point x="470" y="538"/>
      <point x="324" y="538" type="curve"/>
      <point x="221" y="538"/>
      <point x="152" y="474"/>
      <point x="106" y="407" type="curve"/>
      <point x="144" y="373"/>
      <point x="113" y="395"/>
    </contour>
    <contour>
      <point x="177" y="0" type="curve"/>
      <point x="177" y="274"/>
      <point x="177" y="526"/>
      <point x="177" y="800" type="curve"/>
      <point x="90" y="800"/>
      <point x="160" y="800"/>
      <point x="73" y="800" type="curve"/>
      <point x="73" y="526"/>
      <point x="73" y="274"/>
      <point x="73" y="0" type="curve"/>
      <point x="160" y="0"/>
      <point x="90" y="0"/>
    </contour>
  </outline>
</glyph>
<glyph name="f" format="1">
  <advance width="407"/>
  <unicode hex="0066"/>
  <outline>
    <contour>
      <point x="22" y="453" type="curve"/>
      <point x="382" y="453" type="line"/>
      <point x="382" y="533"/>
      <point x="382" y="453"/>
      <point x="382" y="533" type="curve"/>
      <point x="22" y="533" type="line"/>
      <point x="22" y="453"/>
      <point x="22" y="533"/>
    </contour>
    <contour>
      <point x="235" y="0" type="curve"/>
      <point x="235" y="616" type="line"/>
      <point x="235" y="678"/>
      <point x="252" y="727"/>
      <point x="309" y="727" type="curve"/>
      <point x="335" y="727"/>
      <point x="358" y="718"/>
      <point x="379" y="707" type="curve"/>
      <point x="421" y="771"/>
      <point x="379" y="707"/>
      <point x="421" y="771" type="curve"/>
      <point x="387" y="790"/>
      <point x="349" y="804"/>
      <point x="309" y="804" type="curve"/>
      <point x="197" y="804"/>
      <point x="130" y="730"/>
      <point x="131" y="616" type="curve"/>
      <point x="131" y="0" type="line"/>
      <point x="235" y="0"/>
      <point x="131" y="0"/>
    </contour>
  </outline>
</glyph>
<glyph name="g" format="1">
  <advance width="514"/>
  <unicode hex="0067"/>
  <outline>
    <contour>
      <point x="355" y="454" type="curve"/>
      <point x="492" y="522" type="line"/>
      <point x="489" y="527"/>
      <point x="454" y="593"/>
      <point x="450" y="597" type="curve"/>
      <point x="300" y="516" type="line"/>
      <point x="355" y="454"/>
      <point x="301" y="516"/>
    </contour>
    <contour>
      <point x="152" y="344" type="curve"/>
      <point x="152" y="410"/>
      <point x="190" y="458"/>
      <point x="256" y="458" type="curve"/>
      <point x="321" y="458"/>
      <point x="356" y="410"/>
      <point x="356" y="344" type="curve"/>
      <point x="356" y="281"/>
      <point x="320" y="237"/>
      <point x="256" y="237" type="curve"/>
      <point x="193" y="237"/>
      <point x="152" y="279"/>
      <point x="152" y="344" type="curve"/>
      <point x="48" y="340"/>
      <point x="152" y="344"/>
      <point x="48" y="340" type="curve"/>
      <point x="48" y="226"/>
      <point x="132" y="157"/>
      <point x="250" y="157" type="curve"/>
      <point x="372" y="157"/>
      <point x="460" y="228"/>
      <point x="460" y="347" type="curve"/>
      <point x="460" y="465"/>
      <point x="376" y="538"/>
      <point x="256" y="538" type="curve"/>
      <point x="132" y="538"/>
      <point x="48" y="461"/>
      <point x="48" y="340" type="curve"/>
      <point x="152" y="344"/>
      <point x="48" y="340"/>
    </contour>
    <contour>
      <point x="142" y="240" type="curve"/>
      <point x="89" y="209"/>
      <point x="52" y="172"/>
      <point x="52" y="111" type="curve"/>
      <point x="52" y="17"/>
      <point x="139" y="-17"/>
      <point x="242" y="-27" type="curve"/>
      <point x="327" y="-34"/>
      <point x="408" y="-50"/>
      <point x="408" y="-127" type="curve"/>
      <point x="408" y="-198"/>
      <point x="337" y="-225"/>
      <point x="255" y="-225" type="curve"/>
      <point x="177" y="-225"/>
      <point x="116" y="-188"/>
      <point x="116" y="-114" type="curve"/>
      <point x="116" y="-57"/>
      <point x="142" y="-16"/>
      <point x="190" y="6" type="curve"/>
      <point x="138" y="54"/>
      <point x="190" y="6"/>
      <point x="138" y="54" type="curve"/>
      <point x="63" y="21"/>
      <point x="12" y="-32"/>
      <point x="12" y="-118" type="curve"/>
      <point x="12" y="-244"/>
      <point x="117" y="-304"/>
      <point x="250" y="-304" type="curve"/>
      <point x="389" y="-304"/>
      <point x="505" y="-250"/>
      <point x="502" y="-119" type="curve"/>
      <point x="502" y="3"/>
      <point x="389" y="39"/>
      <point x="261" y="50" type="curve"/>
      <point x="204" y="54"/>
      <point x="155" y="71"/>
      <point x="155" y="119" type="curve"/>
      <point x="155" y="151"/>
      <point x="168" y="171"/>
      <point x="194" y="189" type="curve"/>
      <point x="142" y="240"/>
      <point x="194" y="189"/>
    </contour>
    <contour>
      <point x="252" y="632" type="move" name="top"/>
    </contour>
  </outline>
</glyph>
<glyph name="h" format="1">
  <advance width="574"/>
  <unicode hex="0068"/>
  <outline>
    <contour>
      <point x="153" y="314" type="curve"/>
      <point x="177" y="388"/>
      <point x="231" y="456"/>
      <point x="304" y="456" type="curve"/>
      <point x="381" y="456"/>
      <point x="403" y="397"/>
      <point x="403" y="317" type="curve"/>
      <point x="403" y="211"/>
      <point x="403" y="107"/>
      <point x="403" y="0" type="curve"/>
      <point x="507" y="0"/>
      <point x="403" y="0"/>
      <point x="507" y="0" type="curve"/>
      <point x="507" y="109"/>
      <point x="507" y="218"/>
      <point x="507" y="328" type="curve"/>
      <point x="507" y="455"/>
      <point x="456" y="536"/>
      <point x="330" y="536" type="curve"/>
      <point x="229" y="536"/>
      <point x="148" y="458"/>
      <point x="118" y="354" type="curve"/>
      <point x="155" y="314"/>
      <point x="117" y="354"/>
    </contour>
    <contour>
      <point x="177" y="0" type="curve"/>
      <point x="177" y="267"/>
      <point x="177" y="533"/>
      <point x="177" y="800" type="curve"/>
      <point x="73" y="800"/>
      <point x="177" y="800"/>
      <point x="73" y="800" type="curve"/>
      <point x="73" y="533"/>
      <point x="73" y="267"/>
      <point x="73" y="0" type="curve"/>
      <point x="177" y="0"/>
      <point x="73" y="0"/>
    </contour>
  </outline>
</glyph>
<glyph name="i" format="1">
  <advance width="251"/>
  <unicode hex="0069"/>
  <outline>
    <contour>
      <point x="180" y="0" type="curve"/>
      <point x="180" y="178"/>
      <point x="180" y="355"/>
      <point x="180" y="533" type="curve"/>
      <point x="71" y="533"/>
      <point x="180" y="533"/>
      <point x="71" y="533" type="curve"/>
      <point x="71" y="355"/>
      <point x="71" y="178"/>
      <point x="71" y="0" type="curve"/>
      <point x="180" y="0"/>
      <point x="71" y="0"/>
    </contour>
    <contour>
      <point x="182" y="682" type="curve"/>
      <point x="182" y="718"/>
      <point x="157" y="736"/>
      <point x="122" y="736" type="curve"/>
      <point x="88" y="736"/>
      <point x="65" y="717"/>
      <point x="65" y="682" type="curve"/>
      <point x="179" y="682"/>
      <point x="68" y="682"/>
      <point x="182" y="682" type="curve"/>
      <point x="182" y="646"/>
      <point x="157" y="629"/>
      <point x="122" y="629" type="curve"/>
      <point x="87" y="629"/>
      <point x="65" y="647"/>
      <point x="65" y="682" type="curve"/>
      <point x="179" y="682"/>
      <point x="68" y="682"/>
    </contour>
    <contour>
      <point x="123" y="632" type="move" name="top"/>
    </contour>
    <contour>
      <point x="173" y="4" type="move" name="bottom"/>
    </contour>
  </outline>
</glyph>
<glyph name="j" format="1">
  <advance width="251"/>
  <unicode hex="006A"/>
  <outline>
    <contour>
      <point x="-26" y="-303" type="curve"/>
      <point x="-17" y="-303"/>
      <point x="-6" y="-305"/>
      <point x="5" y="-305" type="curve"/>
      <point x="113" y="-305"/>
      <point x="189" y="-235"/>
      <point x="189" y="-127" type="curve"/>
      <point x="189" y="93"/>
      <point x="189" y="313"/>
      <point x="189" y="534" type="curve"/>
      <point x="85" y="534"/>
      <point x="189" y="534"/>
      <point x="85" y="534" type="curve"/>
      <point x="85" y="313"/>
      <point x="85" y="93"/>
      <point x="85" y="-127" type="curve"/>
      <point x="85" y="-182"/>
      <point x="61" y="-227"/>
      <point x="9" y="-227" type="curve"/>
      <point x="2" y="-227"/>
      <point x="-5" y="-226"/>
      <point x="-11" y="-225" type="curve"/>
      <point x="-25" y="-302"/>
      <point x="-11" y="-226"/>
    </contour>
    <contour>
      <point x="195" y="679" type="curve"/>
      <point x="195" y="715"/>
      <point x="170" y="733"/>
      <point x="136" y="733" type="curve"/>
      <point x="102" y="733"/>
      <point x="79" y="713"/>
      <point x="79" y="679" type="curve"/>
      <point x="193" y="679"/>
      <point x="82" y="679"/>
      <point x="195" y="679" type="curve"/>
      <point x="195" y="642"/>
      <point x="171" y="626"/>
      <point x="136" y="626" type="curve"/>
      <point x="101" y="626"/>
      <point x="79" y="644"/>
      <point x="79" y="679" type="curve"/>
      <point x="193" y="679"/>
      <point x="82" y="679"/>
    </contour>
  </outline>
</glyph>
<glyph name="k" format="1">
  <advance width="540"/>
  <unicode hex="006B"/>
  <outline>
    <contour>
      <point x="177" y="0" type="curve"/>
      <point x="177" y="800" type="line"/>
      <point x="73" y="800"/>
      <point x="177" y="800"/>
      <point x="73" y="800" type="curve"/>
      <point x="73" y="533"/>
      <point x="73" y="267"/>
      <point x="73" y="0" type="curve"/>
      <point x="177" y="0"/>
      <point x="73" y="0"/>
    </contour>
    <contour>
      <point x="376" y="533" type="curve"/>
      <point x="154" y="275" type="line"/>
      <point x="265" y="275"/>
      <point x="162" y="275"/>
      <point x="273" y="275" type="curve"/>
      <point x="501" y="533" type="line"/>
      <point x="394" y="533"/>
      <point x="482" y="533"/>
    </contour>
    <contour>
      <point x="524" y="0" type="curve"/>
      <point x="273" y="275" type="line"/>
      <point x="162" y="275"/>
      <point x="265" y="275"/>
      <point x="154" y="275" type="curve"/>
      <point x="399" y="0" type="line"/>
      <point x="500" y="0"/>
      <point x="422" y="0"/>
    </contour>
    <contour>
      <point x="333" y="-21" type="move" name="bottom"/>
    </contour>
  </outline>
</glyph>
<glyph name="m" format="1">
  <advance width="834"/>
  <unicode hex="006D"/>
  <outline>
    <contour>
      <point x="448" y="298" type="curve"/>
      <point x="475" y="379"/>
      <point x="509" y="455"/>
      <point x="579" y="455" type="curve"/>
      <point x="654" y="455"/>
      <point x="662" y="402"/>
      <point x="662" y="319" type="curve"/>
      <point x="662" y="213"/>
      <point x="662" y="107"/>
      <point x="662" y="0" type="curve"/>
      <point x="766" y="0"/>
      <point x="662" y="0"/>
      <point x="766" y="0" type="curve"/>
      <point x="766" y="109"/>
      <point x="766" y="218"/>
      <point x="766" y="328" type="curve"/>
      <point x="766" y="459"/>
      <point x="738" y="538"/>
      <point x="611" y="538" type="curve"/>
      <point x="509" y="538"/>
      <point x="448" y="456"/>
      <point x="412" y="343" type="curve"/>
      <point x="450" y="299"/>
      <point x="410" y="341"/>
    </contour>
    <contour>
      <point x="154" y="299" type="curve"/>
      <point x="179" y="379"/>
      <point x="212" y="455"/>
      <point x="284" y="455" type="curve"/>
      <point x="359" y="455"/>
      <point x="368" y="402"/>
      <point x="368" y="319" type="curve"/>
      <point x="368" y="213"/>
      <point x="368" y="107"/>
      <point x="368" y="0" type="curve"/>
      <point x="471" y="0"/>
      <point x="368" y="0"/>
      <point x="471" y="0" type="curve"/>
      <point x="471" y="109"/>
      <point x="471" y="218"/>
      <point x="471" y="328" type="curve"/>
      <point x="471" y="459"/>
      <point x="444" y="538"/>
      <point x="317" y="538" type="curve"/>
      <point x="213" y="538"/>
      <point x="157" y="459"/>
      <point x="118" y="344" type="curve"/>
      <point x="156" y="300"/>
      <point x="116" y="342"/>
    </contour>
    <contour>
      <point x="177" y="0" type="curve"/>
      <point x="177" y="178"/>
      <point x="177" y="355"/>
      <point x="177" y="533" type="curve"/>
      <point x="73" y="533"/>
      <point x="177" y="533"/>
      <point x="73" y="533" type="curve"/>
      <point x="73" y="355"/>
      <point x="73" y="178"/>
      <point x="73" y="0" type="curve"/>
      <point x="177" y="0"/>
      <point x="73" y="0"/>
    </contour>
  </outline>
</glyph>
<glyph name="n" format="1">
  <advance width="574"/>
  <unicode hex="006E"/>
  <outline>
    <contour>
      <point x="155" y="289" type="curve"/>
      <point x="175" y="379"/>
      <point x="227" y="455"/>
      <point x="302" y="455" type="curve"/>
      <point x="376" y="455"/>
      <point x="403" y="399"/>
      <point x="403" y="319" type="curve"/>
      <point x="403" y="211"/>
      <point x="403" y="108"/>
      <point x="403" y="0" type="curve"/>
      <point x="489" y="0"/>
      <point x="420" y="0"/>
      <point x="507" y="0" type="curve"/>
      <point x="507" y="111"/>
      <point x="507" y="217"/>
      <point x="507" y="328" type="curve"/>
      <point x="507" y="455"/>
      <point x="458" y="538"/>
      <point x="334" y="538" type="curve"/>
      <point x="228" y="538"/>
      <point x="146" y="461"/>
      <point x="118" y="333" type="curve"/>
      <point x="147" y="295"/>
      <point x="126" y="326"/>
    </contour>
    <contour>
      <point x="177" y="0" type="curve"/>
      <point x="177" y="178"/>
      <point x="177" y="355"/>
      <point x="177" y="533" type="curve"/>
      <point x="73" y="533"/>
      <point x="177" y="533"/>
      <point x="73" y="533" type="curve"/>
      <point x="73" y="355"/>
      <point x="73" y="178"/>
      <point x="73" y="0" type="curve"/>
      <point x="177" y="0"/>
      <point x="73" y="0"/>
    </contour>
    <contour>
      <point x="295" y="632" type="move" name="top"/>
    </contour>
    <contour>
      <point x="325" y="-12" type="move" name="bottom"/>
    </contour>
  </outline>
</glyph>
<glyph name="p" format="1">
  <advance width="595"/>
  <unicode hex="0070"/>
  <outline>
    <contour>
      <point x="150" y="334" type="curve"/>
      <point x="180" y="397"/>
      <point x="237" y="457"/>
      <point x="310" y="457" type="curve"/>
      <point x="412" y="457"/>
      <point x="448" y="372"/>
      <point x="448" y="267" type="curve"/>
      <point x="449" y="160"/>
      <point x="411" y="75"/>
      <point x="310" y="75" type="curve"/>
      <point x="244" y="75"/>
      <point x="197" y="106"/>
      <point x="153" y="154" type="curve"/>
      <point x="119" y="118"/>
      <point x="146" y="144"/>
      <point x="112" y="107" type="curve"/>
      <point x="168" y="37"/>
      <point x="235" y="-5"/>
      <point x="328" y="-5" type="curve"/>
      <point x="483" y="-5"/>
      <point x="551" y="115"/>
      <point x="551" y="271" type="curve"/>
      <point x="551" y="422"/>
      <point x="483" y="539"/>
      <point x="331" y="539" type="curve"/>
      <point x="233" y="539"/>
      <point x="161" y="474"/>
      <point x="117" y="398" type="curve"/>
      <point x="144" y="343"/>
      <point x="123" y="389"/>
    </contour>
    <contour>
      <point x="176" y="-300" type="curve"/>
      <point x="176" y="-22"/>
      <point x="176" y="255"/>
      <point x="176" y="533" type="curve"/>
      <point x="73" y="533"/>
      <point x="176" y="533"/>
      <point x="73" y="533" type="curve"/>
      <point x="73" y="255"/>
      <point x="73" y="-22"/>
      <point x="73" y="-300" type="curve"/>
      <point x="176" y="-300"/>
      <point x="73" y="-300"/>
    </contour>
  </outline>
</glyph>
<glyph name="q" format="1">
  <advance width="599"/>
  <unicode hex="0071"/>
  <outline>
    <contour>
      <point x="482" y="406" type="curve"/>
      <point x="432" y="488"/>
      <point x="357" y="538"/>
      <point x="267" y="538" type="curve"/>
      <point x="112" y="538"/>
      <point x="43" y="420"/>
      <point x="44" y="264" type="curve"/>
      <point x="44" y="109"/>
      <point x="118" y="-5"/>
      <point x="272" y="-5" type="curve"/>
      <point x="363" y="-5"/>
      <point x="434" y="54"/>
      <point x="486" y="129" type="curve"/>
      <point x="455" y="167"/>
      <point x="476" y="138"/>
      <point x="445" y="176" type="curve"/>
      <point x="408" y="116"/>
      <point x="354" y="75"/>
      <point x="287" y="75" type="curve"/>
      <point x="187" y="75"/>
      <point x="148" y="160"/>
      <point x="148" y="268" type="curve"/>
      <point x="148" y="373"/>
      <point x="187" y="456"/>
      <point x="284" y="456" type="curve"/>
      <point x="349" y="456"/>
      <point x="404" y="424"/>
      <point x="449" y="357" type="curve"/>
      <point x="472" y="398"/>
      <point x="458" y="366"/>
    </contour>
    <contour>
      <point x="526" y="-300" type="curve"/>
      <point x="526" y="-17"/>
      <point x="526" y="250"/>
      <point x="526" y="533" type="curve"/>
      <point x="436" y="533"/>
      <point x="508" y="533"/>
      <point x="418" y="533" type="curve"/>
      <point x="418" y="250"/>
      <point x="418" y="-17"/>
      <point x="418" y="-300" type="curve"/>
      <point x="508" y="-300"/>
      <point x="436" y="-300"/>
    </contour>
  </outline>
</glyph>
<glyph name="r" format="1">
  <advance width="364"/>
  <unicode hex="0072"/>
  <outline>
    <contour>
      <point x="177" y="0" type="curve"/>
      <point x="177" y="183"/>
      <point x="177" y="350"/>
      <point x="177" y="533" type="curve"/>
      <point x="90" y="533"/>
      <point x="160" y="533"/>
      <point x="73" y="533" type="curve"/>
      <point x="73" y="350"/>
      <point x="73" y="183"/>
      <point x="73" y="0" type="curve"/>
      <point x="160" y="0"/>
      <point x="90" y="0"/>
    </contour>
    <contour>
      <point x="153" y="307" type="curve"/>
      <point x="191" y="416"/>
      <point x="264" y="452"/>
      <point x="353" y="452" type="curve"/>
      <point x="353" y="524"/>
      <point x="353" y="465"/>
      <point x="353" y="538" type="curve"/>
      <point x="242" y="538"/>
      <point x="160" y="465"/>
      <point x="116" y="354" type="curve"/>
      <point x="147" y="317"/>
      <point x="123" y="343"/>
    </contour>
    <contour>
      <point x="145" y="632" type="move" name="top"/>
    </contour>
    <contour>
      <point x="160" y="-14" type="move" name="bottom"/>
    </contour>
  </outline>
</glyph>
<glyph name="s" format="1">
  <advance width="449"/>
  <unicode hex="0073"/>
  <outline>
    <contour>
      <point x="35" y="48" type="curve"/>
      <point x="98" y="16"/>
      <point x="155" y="-5"/>
      <point x="222" y="-5" type="curve"/>
      <point x="338" y="-5"/>
      <point x="416" y="45"/>
      <point x="416" y="152" type="curve"/>
      <point x="415" y="253"/>
      <point x="337" y="281"/>
      <point x="236" y="314" type="curve" smooth="yes"/>
      <point x="182" y="331"/>
      <point x="141" y="353"/>
      <point x="141" y="399" type="curve"/>
      <point x="141" y="433"/>
      <point x="170" y="456"/>
      <point x="214" y="456" type="curve"/>
      <point x="255" y="456"/>
      <point x="300" y="439"/>
      <point x="330" y="420" type="curve"/>
      <point x="374" y="489"/>
      <point x="332" y="423"/>
      <point x="375" y="492" type="curve"/>
      <point x="337" y="517"/>
      <point x="274" y="538"/>
      <point x="217" y="538" type="curve"/>
      <point x="115" y="538"/>
      <point x="46" y="493"/>
      <point x="46" y="399" type="curve"/>
      <point x="46" y="306"/>
      <point x="109" y="267"/>
      <point x="202" y="237" type="curve" smooth="yes"/>
      <point x="263" y="217"/>
      <point x="317" y="200"/>
      <point x="317" y="147" type="curve"/>
      <point x="317" y="104"/>
      <point x="281" y="79"/>
      <point x="232" y="79" type="curve"/>
      <point x="178" y="79"/>
      <point x="136" y="95"/>
      <point x="85" y="120" type="curve"/>
      <point x="35" y="48"/>
      <point x="85" y="120"/>
    </contour>
    <contour>
      <point x="221" y="632" type="move" name="top"/>
    </contour>
    <contour>
      <point x="253" y="-18" type="move" name="bottom"/>
    </contour>
  </outline>
</glyph>
<glyph name="t" format="1">
  <advance width="380"/>
  <unicode hex="0074"/>
  <outline>
    <contour>
      <point x="24" y="452" type="curve"/>
      <point x="362" y="452" type="line"/>
      <point x="362" y="533"/>
      <point x="362" y="452"/>
      <point x="362" y="533" type="curve"/>
      <point x="24" y="533" type="line"/>
      <point x="24" y="452"/>
      <point x="24" y="533"/>
    </contour>
    <contour>
      <point x="332" y="98" type="curve"/>
      <point x="311" y="85"/>
      <point x="295" y="78"/>
      <point x="270" y="78" type="curve"/>
      <point x="224" y="78"/>
      <point x="212" y="113"/>
      <point x="212" y="165" type="curve"/>
      <point x="212" y="682" type="line"/>
      <point x="142" y="638"/>
      <point x="179" y="661"/>
      <point x="109" y="617" type="curve"/>
      <point x="109" y="161" type="line"/>
      <point x="109" y="55"/>
      <point x="158" y="-6"/>
      <point x="257" y="-6" type="curve"/>
      <point x="303" y="-6"/>
      <point x="334" y="8"/>
      <point x="371" y="28" type="curve"/>
      <point x="332" y="98"/>
      <point x="371" y="28"/>
    </contour>
    <contour>
      <point x="285" y="-16" type="move" name="bottom"/>
    </contour>
  </outline>
</glyph>
<glyph name="v" format="1">
  <advance width="530"/>
  <unicode hex="0076"/>
  <outline>
    <contour>
      <point x="19" y="533" type="curve"/>
      <point x="81" y="355"/>
      <point x="142" y="178"/>
      <point x="204" y="0" type="curve"/>
      <point x="303" y="0"/>
      <point x="204" y="0"/>
      <point x="303" y="0" type="curve"/>
      <point x="242" y="178"/>
      <point x="186" y="355"/>
      <point x="125" y="533" type="curve"/>
      <point x="19" y="533"/>
      <point x="125" y="533"/>
    </contour>
    <contour>
      <point x="410" y="533" type="curve"/>
      <point x="222" y="0" type="line"/>
      <point x="322" y="0"/>
      <point x="222" y="0"/>
      <point x="322" y="0" type="curve"/>
      <point x="386" y="178"/>
      <point x="451" y="355"/>
      <point x="515" y="533" type="curve"/>
      <point x="410" y="533"/>
      <point x="515" y="533"/>
    </contour>
  </outline>
</glyph>
<glyph name="w" format="1">
  <advance width="808"/>
  <unicode hex="0077"/>
  <outline>
    <contour>
      <point x="276" y="0" type="curve"/>
      <point x="336" y="178"/>
      <point x="396" y="355"/>
      <point x="456" y="533" type="curve"/>
      <point x="360" y="533"/>
      <point x="456" y="533"/>
      <point x="360" y="533" type="curve"/>
      <point x="301" y="355"/>
      <point x="242" y="178"/>
      <point x="183" y="0" type="curve"/>
      <point x="276" y="0"/>
      <point x="183" y="0"/>
    </contour>
    <contour>
      <point x="695" y="533" type="curve"/>
      <point x="640" y="355"/>
      <point x="584" y="178"/>
      <point x="529" y="0" type="curve"/>
      <point x="622" y="0"/>
      <point x="529" y="0"/>
      <point x="622" y="0" type="curve"/>
      <point x="678" y="178"/>
      <point x="735" y="355"/>
      <point x="791" y="533" type="curve"/>
      <point x="695" y="533"/>
      <point x="791" y="533"/>
    </contour>
    <contour>
      <point x="366" y="533" type="curve"/>
      <point x="420" y="355"/>
      <point x="474" y="178"/>
      <point x="528" y="0" type="curve"/>
      <point x="621" y="0"/>
      <point x="528" y="0"/>
      <point x="621" y="0" type="curve"/>
      <point x="568" y="178"/>
      <point x="514" y="355"/>
      <point x="460" y="533" type="curve"/>
      <point x="366" y="533"/>
      <point x="460" y="533"/>
    </contour>
    <contour>
      <point x="21" y="533" type="curve"/>
      <point x="74" y="355"/>
      <point x="129" y="178"/>
      <point x="182" y="0" type="curve"/>
      <point x="275" y="0"/>
      <point x="182" y="0"/>
      <point x="275" y="0" type="curve"/>
      <point x="222" y="178"/>
      <point x="169" y="355"/>
      <point x="115" y="533" type="curve"/>
      <point x="21" y="533"/>
      <point x="115" y="533"/>
    </contour>
  </outline>
</glyph>
<glyph name="x" format="1">
  <advance width="537"/>
  <unicode hex="0078"/>
  <outline>
    <contour>
      <point x="524" y="0" type="curve"/>
      <point x="480" y="63"/>
      <point x="170" y="470"/>
      <point x="127" y="533" type="curve"/>
      <point x="2" y="533"/>
      <point x="143" y="533"/>
      <point x="18" y="533" type="curve"/>
      <point x="61" y="470"/>
      <point x="368" y="63"/>
      <point x="410" y="0" type="curve"/>
      <point x="524" y="0"/>
      <point x="410" y="0"/>
    </contour>
    <contour>
      <point x="413" y="533" type="curve"/>
      <point x="369" y="470"/>
      <point x="55" y="63"/>
      <point x="11" y="0" type="curve"/>
      <point x="125" y="0"/>
      <point x="11" y="0"/>
      <point x="125" y="0" type="curve"/>
      <point x="168" y="63"/>
      <point x="479" y="470"/>
      <point x="522" y="533" type="curve"/>
      <point x="391" y="533"/>
      <point x="544" y="533"/>
    </contour>
  </outline>
</glyph>
<glyph name="y" format="1">
  <advance width="554"/>
  <unicode hex="0079"/>
  <outline>
    <contour>
      <point x="319" y="-10" type="curve"/>
      <point x="281" y="95"/>
      <point x="159" y="428"/>
      <point x="121" y="533" type="curve"/>
      <point x="14" y="533"/>
      <point x="121" y="533"/>
      <point x="14" y="533" type="curve"/>
      <point x="55" y="429"/>
      <point x="184" y="89"/>
      <point x="225" y="-15" type="curve"/>
      <point x="319" y="-15"/>
      <point x="225" y="-10"/>
    </contour>
    <contour>
      <point x="205" y="-300" type="curve"/>
      <point x="270" y="-142"/>
      <point x="483" y="375"/>
      <point x="548" y="533" type="curve"/>
      <point x="442" y="533"/>
      <point x="548" y="533"/>
      <point x="442" y="533" type="curve"/>
      <point x="376" y="375"/>
      <point x="163" y="-142"/>
      <point x="98" y="-300" type="curve"/>
      <point x="205" y="-300"/>
      <point x="98" y="-300"/>
    </contour>
    <contour>
      <point x="282" y="632" type="move" name="top"/>
    </contour>
  </outline>
</glyph>
<glyph name="braceleft" format="1">
  <advance width="269"/>
  <unicode hex="007B"/>
  <outline>
    <contour>
      <point x="232" y="-34" type="curve"/>
      <point x="187" y="-34"/>
      <point x="176" y="4"/>
      <point x="176" y="52" type="curve"/>
      <point x="176" y="106"/>
      <point x="176" y="160"/>
      <point x="176" y="213" type="curve"/>
      <point x="176" y="313"/>
      <point x="123" y="382"/>
      <point x="27" y="382" type="curve"/>
      <point x="27" y="298"/>
      <point x="27" y="382"/>
      <point x="27" y="298" type="curve"/>
      <point x="68" y="298"/>
      <point x="82" y="265"/>
      <point x="82" y="221" type="curve"/>
      <point x="82" y="166"/>
      <point x="82" y="111"/>
      <point x="82" y="56" type="curve"/>
      <point x="82" y="-45"/>
      <point x="134" y="-113"/>
      <point x="232" y="-113" type="curve"/>
      <point x="232" y="-34"/>
      <point x="232" y="-113"/>
    </contour>
    <contour>
      <point x="232" y="793" type="curve"/>
      <point x="134" y="793"/>
      <point x="82" y="727"/>
      <point x="82" y="626" type="curve"/>
      <point x="82" y="570"/>
      <point x="82" y="513"/>
      <point x="82" y="456" type="curve"/>
      <point x="82" y="413"/>
      <point x="67" y="382"/>
      <point x="27" y="382" type="curve"/>
      <point x="27" y="298"/>
      <point x="27" y="382"/>
      <point x="27" y="298" type="curve"/>
      <point x="124" y="298"/>
      <point x="176" y="367"/>
      <point x="176" y="468" type="curve"/>
      <point x="176" y="521"/>
      <point x="176" y="573"/>
      <point x="176" y="626" type="curve"/>
      <point x="176" y="675"/>
      <point x="186" y="713"/>
      <point x="232" y="713" type="curve"/>
      <point x="232" y="793"/>
      <point x="232" y="713"/>
    </contour>
  </outline>
</glyph>
<glyph name="braceright" format="1">
  <advance width="269"/>
  <unicode hex="007D"/>
  <outline>
    <contour>
      <point x="36" y="-114" type="curve"/>
      <point x="133" y="-114"/>
      <point x="186" y="-45"/>
      <point x="186" y="56" type="curve"/>
      <point x="186" y="111"/>
      <point x="186" y="166"/>
      <point x="186" y="221" type="curve"/>
      <point x="186" y="265"/>
      <point x="199" y="298"/>
      <point x="241" y="298" type="curve"/>
      <point x="241" y="382"/>
      <point x="241" y="298"/>
      <point x="241" y="382" type="curve"/>
      <point x="144" y="382"/>
      <point x="92" y="313"/>
      <point x="92" y="213" type="curve"/>
      <point x="92" y="160"/>
      <point x="92" y="106"/>
      <point x="92" y="52" type="curve"/>
      <point x="92" y="4"/>
      <point x="81" y="-34"/>
      <point x="36" y="-34" type="curve"/>
      <point x="36" y="-114"/>
      <point x="36" y="-34"/>
    </contour>
    <contour>
      <point x="36" y="713" type="curve"/>
      <point x="81" y="713"/>
      <point x="92" y="675"/>
      <point x="92" y="626" type="curve"/>
      <point x="92" y="573"/>
      <point x="92" y="521"/>
      <point x="92" y="468" type="curve"/>
      <point x="92" y="367"/>
      <point x="144" y="298"/>
      <point x="241" y="298" type="curve"/>
      <point x="241" y="382"/>
      <point x="241" y="298"/>
      <point x="241" y="382" type="curve"/>
      <point x="200" y="382"/>
      <point x="186" y="413"/>
      <point x="186" y="456" type="curve"/>
      <point x="186" y="513"/>
      <point x="186" y="570"/>
      <point x="186" y="626" type="curve"/>
      <point x="186" y="727"/>
      <point x="133" y="793"/>
      <point x="36" y="793" type="curve"/>
      <point x="36" y="713"/>
      <point x="36" y="793"/>
    </contour>
  </outline>
</glyph>
<glyph name="asciitilde" format="1">
  <advance width="629"/>
  <unicode hex="007E"/>
  <outline>
    <contour>
      <point x="488" y="367" type="curve"/>
      <point x="474" y="326"/>
      <point x="459" y="285"/>
      <point x="422" y="285" type="curve"/>
      <point x="389" y="285"/>
      <point x="370" y="296"/>
      <point x="346" y="317" type="curve"/>
      <point x="303" y="355"/>
      <point x="271" y="376"/>
      <point x="213" y="376" type="curve"/>
      <point x="123" y="376"/>
      <point x="82" y="325"/>
      <point x="59" y="237" type="curve"/>
      <point x="95" y="224"/>
      <point x="104" y="220"/>
      <point x="140" y="208" type="curve"/>
      <point x="152" y="254"/>
      <point x="169" y="293"/>
      <point x="210" y="293" type="curve"/>
      <point x="240" y="293"/>
      <point x="257" y="282"/>
      <point x="279" y="263" type="curve"/>
      <point x="325" y="223"/>
      <point x="358" y="202"/>
      <point x="419" y="202" type="curve"/>
      <point x="507" y="202"/>
      <point x="542" y="256"/>
      <point x="569" y="339" type="curve"/>
      <point x="533" y="351"/>
      <point x="524" y="355"/>
    </contour>
  </outline>
</glyph>
<glyph name="exclamdown" format="1">
  <advance width="251"/>
  <unicode hex="00A1"/>
  <outline>
    <contour>
      <point x="79" y="301" type="line"/>
      <point x="68" y="-192" type="line"/>
      <point x="184" y="-192" type="line"/>
      <point x="176" y="301" type="line"/>
    </contour>
    <contour>
      <point x="70" y="486" type="curve"/>
      <point x="70" y="450"/>
      <point x="94" y="432"/>
      <point x="128" y="432" type="curve"/>
      <point x="162" y="432"/>
      <point x="185" y="451"/>
      <point x="185" y="485" type="curve"/>
      <point x="72" y="486"/>
      <point x="183" y="485"/>
      <point x="70" y="486" type="curve"/>
      <point x="70" y="522"/>
      <point x="94" y="538"/>
      <point x="128" y="538" type="curve"/>
      <point x="163" y="538"/>
      <point x="185" y="520"/>
      <point x="185" y="485" type="curve"/>
      <point x="72" y="486"/>
      <point x="183" y="485"/>
    </contour>
  </outline>
</glyph>
<glyph name="cent" format="1">
  <advance width="592"/>
  <unicode hex="00A2"/>
  <outline>
    <contour>
      <point x="368" y="-53" type="curve"/>
      <point x="368" y="-13"/>
      <point x="368" y="27"/>
      <point x="368" y="67" type="curve"/>
      <point x="264" y="67"/>
      <point x="368" y="67"/>
      <point x="264" y="67" type="curve"/>
      <point x="264" y="27"/>
      <point x="264" y="-13"/>
      <point x="264" y="-53" type="curve"/>
      <point x="368" y="-53"/>
      <point x="264" y="-53"/>
    </contour>
    <contour>
      <point x="283" y="778" type="curve"/>
      <point x="283" y="742"/>
      <point x="283" y="706"/>
      <point x="283" y="670" type="curve"/>
      <point x="386" y="670"/>
      <point x="283" y="670"/>
      <point x="386" y="670" type="curve"/>
      <point x="386" y="706"/>
      <point x="386" y="742"/>
      <point x="386" y="778" type="curve"/>
      <point x="283" y="778"/>
      <point x="386" y="778"/>
    </contour>
    <contour>
      <point x="552" y="610" type="curve"/>
      <point x="484" y="664"/>
      <point x="426" y="684"/>
      <point x="342" y="684" type="curve"/>
      <point x="152" y="684"/>
      <point x="42" y="559"/>
      <point x="42" y="364" type="curve"/>
      <point x="42" y="178"/>
      <point x="133" y="48"/>
      <point x="311" y="48" type="curve"/>
      <point x="409" y="48"/>
      <point x="477" y="76"/>
      <point x="550" y="145" type="curve"/>
      <point x="490" y="207"/>
      <point x="550" y="145"/>
      <point x="490" y="207" type="curve"/>
      <point x="434" y="161"/>
      <point x="390" y="132"/>
      <point x="320" y="132" type="curve"/>
      <point x="198" y="132"/>
      <point x="145" y="233"/>
      <point x="145" y="368" type="curve"/>
      <point x="145" y="504"/>
      <point x="210" y="600"/>
      <point x="332" y="600" type="curve"/>
      <point x="398" y="600"/>
      <point x="442" y="582"/>
      <point x="497" y="543" type="curve"/>
      <point x="552" y="610"/>
      <point x="497" y="543"/>
    </contour>
  </outline>
</glyph>
<glyph name="sterling" format="1">
  <advance width="466"/>
  <unicode hex="00A3"/>
  <outline>
    <contour>
      <point x="402" y="80" type="curve"/>
      <point x="282" y="80"/>
      <point x="160" y="80"/>
      <point x="41" y="80" type="curve"/>
      <point x="41" y="0"/>
      <point x="41" y="80"/>
      <point x="41" y="0" type="curve"/>
      <point x="160" y="0"/>
      <point x="283" y="0"/>
      <point x="402" y="0" type="curve"/>
      <point x="402" y="80"/>
      <point x="402" y="0"/>
    </contour>
    <contour>
      <point x="357" y="416" type="curve"/>
      <point x="261" y="416"/>
      <point x="161" y="416"/>
      <point x="67" y="416" type="curve"/>
      <point x="67" y="336"/>
      <point x="67" y="416"/>
      <point x="67" y="336" type="curve"/>
      <point x="161" y="336"/>
      <point x="261" y="336"/>
      <point x="357" y="336" type="curve"/>
      <point x="357" y="416"/>
      <point x="357" y="336"/>
    </contour>
    <contour>
      <point x="428" y="666" type="curve"/>
      <point x="384" y="707"/>
      <point x="346" y="722"/>
      <point x="290" y="722" type="curve"/>
      <point x="127" y="722"/>
      <point x="84" y="560"/>
      <point x="122" y="367" type="curve"/>
      <point x="151" y="218"/>
      <point x="144" y="80"/>
      <point x="41" y="80" type="curve"/>
      <point x="41" y="0"/>
      <point x="41" y="80"/>
      <point x="41" y="0" type="curve"/>
      <point x="219" y="0"/>
      <point x="257" y="177"/>
      <point x="218" y="384" type="curve"/>
      <point x="192" y="519"/>
      <point x="198" y="645"/>
      <point x="285" y="645" type="curve"/>
      <point x="323" y="645"/>
      <point x="346" y="630"/>
      <point x="376" y="607" type="curve"/>
      <point x="428" y="666"/>
      <point x="376" y="607"/>
    </contour>
  </outline>
</glyph>
<glyph name="currency" format="1">
  <advance width="624"/>
  <unicode hex="00A4"/>
  <outline>
    <contour>
      <point x="230" y="315" type="curve"/>
      <point x="230" y="374"/>
      <point x="254" y="420"/>
      <point x="310" y="420" type="curve"/>
      <point x="369" y="420"/>
      <point x="393" y="377"/>
      <point x="393" y="315" type="curve"/>
      <point x="393" y="253"/>
      <point x="371" y="203"/>
      <point x="315" y="203" type="curve"/>
      <point x="254" y="203"/>
      <point x="230" y="250"/>
      <point x="230" y="315" type="curve"/>
      <point x="126" y="315"/>
      <point x="233" y="315"/>
      <point x="130" y="315" type="curve"/>
      <point x="130" y="198"/>
      <point x="198" y="124"/>
      <point x="314" y="124" type="curve"/>
      <point x="428" y="124"/>
      <point x="494" y="201"/>
      <point x="494" y="317" type="curve"/>
      <point x="494" y="428"/>
      <point x="429" y="500"/>
      <point x="319" y="500" type="curve"/>
      <point x="203" y="500"/>
      <point x="130" y="430"/>
      <point x="130" y="315" type="curve"/>
      <point x="233" y="315"/>
      <point x="126" y="315"/>
    </contour>
    <contour>
      <point x="418" y="360" type="line"/>
      <point x="572" y="503" type="line"/>
      <point x="495" y="580" type="line"/>
      <point x="351" y="426" type="line"/>
    </contour>
    <contour>
      <point x="354" y="204" type="line"/>
      <point x="498" y="50" type="line"/>
      <point x="575" y="127" type="line"/>
      <point x="421" y="271" type="line"/>
    </contour>
    <contour>
      <point x="203" y="271" type="line"/>
      <point x="49" y="127" type="line"/>
      <point x="126" y="50" type="line"/>
      <point x="269" y="204" type="line"/>
    </contour>
    <contour>
      <point x="274" y="427" type="line"/>
      <point x="131" y="581" type="line"/>
      <point x="54" y="504" type="line"/>
      <point x="208" y="361" type="line"/>
    </contour>
  </outline>
</glyph>
<glyph name="yen" format="1">
  <advance width="600"/>
  <unicode hex="00A5"/>
  <outline>
    <contour>
      <point x="499" y="408" type="curve"/>
      <point x="436" y="408"/>
      <point x="374" y="408"/>
      <point x="312" y="408" type="curve"/>
      <point x="312" y="320"/>
      <point x="312" y="408"/>
      <point x="312" y="320" type="curve"/>
      <point x="374" y="320"/>
      <point x="436" y="320"/>
      <point x="499" y="320" type="curve"/>
      <point x="499" y="408"/>
      <point x="499" y="320"/>
    </contour>
    <contour>
      <point x="286" y="408" type="curve"/>
      <point x="225" y="408"/>
      <point x="163" y="408"/>
      <point x="102" y="408" type="curve"/>
      <point x="102" y="320"/>
      <point x="102" y="408"/>
      <point x="102" y="320" type="curve"/>
      <point x="163" y="320"/>
      <point x="225" y="320"/>
      <point x="286" y="320" type="curve"/>
      <point x="286" y="408"/>
      <point x="286" y="320"/>
    </contour>
    <contour>
      <point x="499" y="269" type="curve"/>
      <point x="367" y="269"/>
      <point x="234" y="269"/>
      <point x="102" y="269" type="curve"/>
      <point x="102" y="181"/>
      <point x="102" y="269"/>
      <point x="102" y="181" type="curve"/>
      <point x="234" y="181"/>
      <point x="367" y="181"/>
      <point x="499" y="181" type="curve"/>
      <point x="499" y="269"/>
      <point x="499" y="181"/>
    </contour>
    <contour>
      <point x="33" y="722" type="curve"/>
      <point x="101" y="596"/>
      <point x="175" y="465"/>
      <point x="242" y="337" type="curve"/>
      <point x="348" y="337"/>
      <point x="232" y="337"/>
      <point x="338" y="337" type="curve"/>
      <point x="273" y="468"/>
      <point x="209" y="593"/>
      <point x="142" y="722" type="curve"/>
      <point x="42" y="722"/>
      <point x="134" y="722"/>
    </contour>
    <contour>
      <point x="465" y="722" type="curve"/>
      <point x="393" y="592"/>
      <point x="325" y="467"/>
      <point x="253" y="337" type="curve"/>
      <point x="359" y="337"/>
      <point x="248" y="337"/>
      <point x="353" y="337" type="curve"/>
      <point x="424" y="464"/>
      <point x="500" y="596"/>
      <point x="572" y="722" type="curve"/>
      <point x="471" y="722"/>
      <point x="565" y="722"/>
    </contour>
    <contour>
      <point x="354" y="0" type="curve"/>
      <point x="354" y="115"/>
      <point x="354" y="227"/>
      <point x="354" y="342" type="curve"/>
      <point x="241" y="342"/>
      <point x="354" y="342"/>
      <point x="241" y="342" type="curve"/>
      <point x="241" y="227"/>
      <point x="241" y="115"/>
      <point x="241" y="0" type="curve"/>
      <point x="354" y="0"/>
      <point x="241" y="0"/>
    </contour>
  </outline>
</glyph>
<glyph name="section" format="1">
  <advance width="479"/>
  <unicode hex="00A7"/>
  <outline>
    <contour>
      <point x="390" y="703" type="curve"/>
      <point x="339" y="734"/>
      <point x="301" y="749"/>
      <point x="244" y="749" type="curve"/>
      <point x="142" y="749"/>
      <point x="75" y="698"/>
      <point x="75" y="605" type="curve"/>
      <point x="75" y="522"/>
      <point x="125" y="476"/>
      <point x="205" y="446" type="curve"/>
      <point x="267" y="423"/>
      <point x="335" y="414"/>
      <point x="335" y="359" type="curve"/>
      <point x="335" y="305"/>
      <point x="299" y="275"/>
      <point x="242" y="263" type="curve"/>
      <point x="303" y="199"/>
      <point x="242" y="263"/>
      <point x="303" y="199" type="curve"/>
      <point x="389" y="221"/>
      <point x="438" y="274"/>
      <point x="438" y="361" type="curve"/>
      <point x="437" y="459"/>
      <point x="354" y="489"/>
      <point x="256" y="522" type="curve"/>
      <point x="211" y="538"/>
      <point x="174" y="560"/>
      <point x="174" y="605" type="curve"/>
      <point x="174" y="644"/>
      <point x="199" y="670"/>
      <point x="241" y="670" type="curve"/>
      <point x="283" y="670"/>
      <point x="307" y="658"/>
      <point x="343" y="638" type="curve"/>
      <point x="390" y="703"/>
      <point x="343" y="638"/>
    </contour>
    <contour>
      <point x="176" y="523" type="curve"/>
      <point x="95" y="496"/>
      <point x="44" y="450"/>
      <point x="44" y="366" type="curve"/>
      <point x="44" y="273"/>
      <point x="114" y="234"/>
      <point x="207" y="203" type="curve"/>
      <point x="259" y="184"/>
      <point x="311" y="170"/>
      <point x="311" y="121" type="curve"/>
      <point x="311" y="79"/>
      <point x="284" y="52"/>
      <point x="241" y="52" type="curve"/>
      <point x="194" y="52"/>
      <point x="166" y="68"/>
      <point x="125" y="95" type="curve"/>
      <point x="71" y="36"/>
      <point x="125" y="95"/>
      <point x="71" y="36" type="curve"/>
      <point x="125" y="-9"/>
      <point x="172" y="-27"/>
      <point x="239" y="-27" type="curve"/>
      <point x="341" y="-27"/>
      <point x="413" y="23"/>
      <point x="413" y="122" type="curve"/>
      <point x="411" y="206"/>
      <point x="356" y="251"/>
      <point x="273" y="279" type="curve"/>
      <point x="211" y="301"/>
      <point x="148" y="312"/>
      <point x="148" y="369" type="curve"/>
      <point x="148" y="419"/>
      <point x="178" y="446"/>
      <point x="228" y="463" type="curve"/>
      <point x="176" y="523"/>
      <point x="228" y="463"/>
    </contour>
  </outline>
</glyph>
<glyph name="dieresis" format="1">
  <advance width="399"/>
  <unicode hex="00A8"/>
  <outline>
    <contour>
      <point x="166" y="652" type="curve"/>
      <point x="166" y="688"/>
      <point x="141" y="705"/>
      <point x="107" y="705" type="curve"/>
      <point x="73" y="705"/>
      <point x="51" y="686"/>
      <point x="51" y="652" type="curve"/>
      <point x="163" y="652"/>
      <point x="53" y="652"/>
      <point x="166" y="652" type="curve"/>
      <point x="166" y="616"/>
      <point x="141" y="600"/>
      <point x="107" y="600" type="curve"/>
      <point x="72" y="600"/>
      <point x="51" y="618"/>
      <point x="51" y="652" type="curve"/>
      <point x="163" y="652"/>
      <point x="53" y="652"/>
    </contour>
    <contour>
      <point x="339" y="652" type="curve"/>
      <point x="339" y="688"/>
      <point x="314" y="705"/>
      <point x="280" y="705" type="curve"/>
      <point x="246" y="705"/>
      <point x="224" y="686"/>
      <point x="224" y="652" type="curve"/>
      <point x="336" y="652"/>
      <point x="226" y="652"/>
      <point x="339" y="652" type="curve"/>
      <point x="339" y="616"/>
      <point x="314" y="600"/>
      <point x="280" y="600" type="curve"/>
      <point x="245" y="600"/>
      <point x="224" y="618"/>
      <point x="224" y="652" type="curve"/>
      <point x="336" y="652"/>
      <point x="226" y="652"/>
    </contour>
    <contour>
      <point x="194" y="604" type="move" name="_top"/>
    </contour>
  </outline>
</glyph>
<glyph name="copyright" format="1">
  <advance width="720"/>
  <unicode hex="00A9"/>
  <outline>
    <contour>
      <point x="132" y="322" type="curve"/>
      <point x="132" y="472"/>
      <point x="218" y="580"/>
      <point x="362" y="580" type="curve"/>
      <point x="504" y="580"/>
      <point x="587" y="470"/>
      <point x="587" y="321" type="curve"/>
      <point x="587" y="176"/>
      <point x="507" y="68"/>
      <point x="369" y="68" type="curve"/>
      <point x="225" y="68"/>
      <point x="132" y="172"/>
      <point x="132" y="322" type="curve"/>
      <point x="47" y="322"/>
      <point x="133" y="322"/>
      <point x="48" y="322" type="curve"/>
      <point x="48" y="132"/>
      <point x="175" y="2"/>
      <point x="365" y="2" type="curve"/>
      <point x="551" y="2"/>
      <point x="669" y="135"/>
      <point x="669" y="324" type="curve"/>
      <point x="669" y="514"/>
      <point x="548" y="645"/>
      <point x="362" y="645" type="curve"/>
      <point x="173" y="645"/>
      <point x="48" y="514"/>
      <point x="48" y="322" type="curve"/>
      <point x="133" y="322"/>
      <point x="47" y="322"/>
    </contour>
    <contour>
      <point x="495" y="450" type="curve"/>
      <point x="460" y="490"/>
      <point x="419" y="507"/>
      <point x="368" y="507" type="curve"/>
      <point x="256" y="507"/>
      <point x="194" y="435"/>
      <point x="194" y="322" type="curve"/>
      <point x="194" y="212"/>
      <point x="249" y="141"/>
      <point x="354" y="141" type="curve"/>
      <point x="412" y="141"/>
      <point x="454" y="152"/>
      <point x="496" y="197" type="curve"/>
      <point x="448" y="240"/>
      <point x="496" y="197"/>
      <point x="448" y="240" type="curve"/>
      <point x="418" y="218"/>
      <point x="394" y="206"/>
      <point x="358" y="206" type="curve"/>
      <point x="296" y="206"/>
      <point x="274" y="258"/>
      <point x="274" y="325" type="curve"/>
      <point x="274" y="393"/>
      <point x="300" y="442"/>
      <point x="365" y="442" type="curve"/>
      <point x="391" y="442"/>
      <point x="416" y="435"/>
      <point x="442" y="415" type="curve"/>
      <point x="499" y="452"/>
      <point x="439" y="413"/>
    </contour>
  </outline>
</glyph>
<glyph name="ordfeminine" format="1">
  <advance width="382"/>
  <unicode hex="00AA"/>
  <outline>
    <contour>
      <point x="318" y="426" type="curve"/>
      <point x="318" y="511"/>
      <point x="318" y="585"/>
      <point x="318" y="670" type="curve"/>
      <point x="318" y="743"/>
      <point x="263" y="772"/>
      <point x="189" y="772" type="curve"/>
      <point x="134" y="772"/>
      <point x="94" y="751"/>
      <point x="63" y="722" type="curve"/>
      <point x="88" y="680"/>
      <point x="67" y="718"/>
      <point x="92" y="675" type="curve"/>
      <point x="112" y="695"/>
      <point x="139" y="715"/>
      <point x="179" y="715" type="curve"/>
      <point x="219" y="715"/>
      <point x="247" y="698"/>
      <point x="247" y="659" type="curve"/>
      <point x="247" y="578"/>
      <point x="247" y="507"/>
      <point x="247" y="426" type="curve"/>
      <point x="312" y="426"/>
      <point x="252" y="426"/>
    </contour>
    <contour>
      <point x="280" y="645" type="curve"/>
      <point x="237" y="639"/>
      <point x="209" y="637"/>
      <point x="165" y="631" type="curve"/>
      <point x="95" y="621"/>
      <point x="45" y="594"/>
      <point x="45" y="527" type="curve"/>
      <point x="45" y="459"/>
      <point x="88" y="423"/>
      <point x="158" y="423" type="curve"/>
      <point x="226" y="423"/>
      <point x="258" y="469"/>
      <point x="299" y="520" type="curve"/>
      <point x="267" y="547"/>
      <point x="296" y="523"/>
      <point x="264" y="549" type="curve"/>
      <point x="240" y="510"/>
      <point x="217" y="478"/>
      <point x="173" y="478" type="curve"/>
      <point x="135" y="478"/>
      <point x="114" y="495"/>
      <point x="114" y="530" type="curve"/>
      <point x="114" y="560"/>
      <point x="137" y="577"/>
      <point x="166" y="582" type="curve"/>
      <point x="212" y="588"/>
      <point x="237" y="591"/>
      <point x="284" y="598" type="curve"/>
      <point x="281" y="641"/>
      <point x="283" y="602"/>
    </contour>
  </outline>
</glyph>
<glyph name="guillemotleft" format="1">
  <advance width="511"/>
  <unicode hex="00AB"/>
  <outline>
    <contour>
      <point x="238" y="456" type="curve"/>
      <point x="205" y="433"/>
      <point x="73" y="354"/>
      <point x="40" y="332" type="curve"/>
      <point x="40" y="244"/>
      <point x="40" y="323"/>
      <point x="40" y="234" type="curve"/>
      <point x="73" y="257"/>
      <point x="205" y="341"/>
      <point x="238" y="364" type="curve"/>
      <point x="238" y="451"/>
      <point x="238" y="368"/>
    </contour>
    <contour>
      <point x="238" y="205" type="curve"/>
      <point x="205" y="227"/>
      <point x="73" y="310"/>
      <point x="40" y="332" type="curve"/>
      <point x="40" y="244"/>
      <point x="40" y="323"/>
      <point x="40" y="234" type="curve"/>
      <point x="73" y="212"/>
      <point x="205" y="135"/>
      <point x="238" y="113" type="curve"/>
      <point x="238" y="200"/>
      <point x="238" y="117"/>
    </contour>
    <contour>
      <point x="447" y="456" type="curve"/>
      <point x="414" y="433"/>
      <point x="282" y="354"/>
      <point x="249" y="332" type="curve"/>
      <point x="249" y="244"/>
      <point x="249" y="323"/>
      <point x="249" y="234" type="curve"/>
      <point x="282" y="257"/>
      <point x="414" y="341"/>
      <point x="447" y="364" type="curve"/>
      <point x="447" y="451"/>
      <point x="447" y="368"/>
    </contour>
    <contour>
      <point x="447" y="205" type="curve"/>
      <point x="415" y="227"/>
      <point x="282" y="310"/>
      <point x="249" y="332" type="curve"/>
      <point x="249" y="244"/>
      <point x="249" y="323"/>
      <point x="249" y="234" type="curve"/>
      <point x="282" y="212"/>
      <point x="415" y="135"/>
      <point x="447" y="113" type="curve"/>
      <point x="447" y="200"/>
      <point x="447" y="117"/>
    </contour>
  </outline>
</glyph>
<glyph name="registered" format="1">
  <advance width="729"/>
  <unicode hex="00AE"/>
  <outline>
    <contour>
      <point x="125" y="321" type="curve"/>
      <point x="125" y="480"/>
      <point x="214" y="585"/>
      <point x="368" y="585" type="curve"/>
      <point x="520" y="585"/>
      <point x="605" y="478"/>
      <point x="605" y="320" type="curve"/>
      <point x="605" y="166"/>
      <point x="523" y="60"/>
      <point x="375" y="60" type="curve"/>
      <point x="219" y="60"/>
      <point x="125" y="162"/>
      <point x="125" y="321" type="curve"/>
      <point x="92" y="321"/>
      <point x="84" y="321"/>
      <point x="51" y="321" type="curve"/>
      <point x="51" y="125"/>
      <point x="175" y="1"/>
      <point x="371" y="1" type="curve"/>
      <point x="563" y="1"/>
      <point x="678" y="128"/>
      <point x="678" y="323" type="curve"/>
      <point x="678" y="519"/>
      <point x="561" y="644"/>
      <point x="368" y="644" type="curve"/>
      <point x="172" y="644"/>
      <point x="51" y="519"/>
      <point x="51" y="321" type="curve"/>
      <point x="84" y="321"/>
      <point x="92" y="321"/>
    </contour>
    <contour>
      <point x="341" y="316" type="curve"/>
      <point x="355" y="292"/>
      <point x="415" y="167"/>
      <point x="429" y="144" type="curve"/>
      <point x="472" y="144"/>
      <point x="459" y="144"/>
      <point x="506" y="144" type="curve"/>
      <point x="492" y="168"/>
      <point x="433" y="287"/>
      <point x="419" y="312" type="curve"/>
      <point x="326" y="311"/>
      <point x="435" y="316"/>
    </contour>
    <contour>
      <point x="335" y="144" type="curve"/>
      <point x="335" y="249"/>
      <point x="335" y="397"/>
      <point x="335" y="502" type="curve"/>
      <point x="286" y="502"/>
      <point x="309" y="503"/>
      <point x="256" y="503" type="curve"/>
      <point x="256" y="398"/>
      <point x="256" y="248"/>
      <point x="256" y="144" type="curve"/>
      <point x="308" y="144"/>
      <point x="279" y="144"/>
    </contour>
    <contour>
      <point x="300" y="278" type="curve"/>
      <point x="317" y="278"/>
      <point x="335" y="278"/>
      <point x="351" y="278" type="curve"/>
      <point x="434" y="278"/>
      <point x="490" y="311"/>
      <point x="490" y="392" type="curve"/>
      <point x="490" y="463"/>
      <point x="441" y="503"/>
      <point x="369" y="503" type="curve"/>
      <point x="360" y="503"/>
      <point x="296" y="503"/>
      <point x="287" y="503" type="curve"/>
      <point x="256" y="456"/>
      <point x="341" y="503"/>
      <point x="256" y="437" type="curve"/>
      <point x="288" y="437"/>
      <point x="321" y="437"/>
      <point x="354" y="437" type="curve"/>
      <point x="388" y="437"/>
      <point x="412" y="422"/>
      <point x="412" y="389" type="curve"/>
      <point x="412" y="358"/>
      <point x="393" y="343"/>
      <point x="363" y="343" type="curve"/>
      <point x="342" y="343"/>
      <point x="321" y="343"/>
      <point x="300" y="343" type="curve"/>
      <point x="300" y="278"/>
      <point x="300" y="343"/>
    </contour>
  </outline>
</glyph>
<glyph name="macron" format="1">
  <advance width="311"/>
  <unicode hex="00AF"/>
  <outline>
    <contour>
      <point x="230" y="678" type="curve"/>
      <point x="163" y="678"/>
      <point x="96" y="678"/>
      <point x="30" y="678" type="curve"/>
      <point x="30" y="599"/>
      <point x="30" y="678"/>
      <point x="30" y="599" type="curve"/>
      <point x="96" y="599"/>
      <point x="163" y="599"/>
      <point x="230" y="599" type="curve"/>
      <point x="230" y="678"/>
      <point x="230" y="599"/>
    </contour>
    <contour>
      <point x="131" y="599" type="move" name="_top"/>
    </contour>
  </outline>
</glyph>
<glyph name="degree" format="1">
  <advance width="438"/>
  <unicode hex="00B0"/>
  <outline>
    <contour>
      <point x="394" y="532" type="curve"/>
      <point x="394" y="646"/>
      <point x="331" y="722"/>
      <point x="219" y="722" type="curve"/>
      <point x="107" y="722"/>
      <point x="46" y="647"/>
      <point x="46" y="533" type="curve"/>
      <point x="98" y="533"/>
      <point x="80" y="533"/>
      <point x="133" y="533" type="curve"/>
      <point x="133" y="598"/>
      <point x="156" y="647"/>
      <point x="217" y="647" type="curve"/>
      <point x="278" y="647"/>
      <point x="304" y="598"/>
      <point x="304" y="532" type="curve"/>
      <point x="304" y="464"/>
      <point x="282" y="413"/>
      <point x="220" y="413" type="curve"/>
      <point x="157" y="413"/>
      <point x="133" y="465"/>
      <point x="133" y="533" type="curve"/>
      <point x="80" y="533"/>
      <point x="98" y="533"/>
      <point x="46" y="533" type="curve"/>
      <point x="46" y="416"/>
      <point x="106" y="338"/>
      <point x="218" y="338" type="curve"/>
      <point x="332" y="338"/>
      <point x="394" y="416"/>
    </contour>
  </outline>
</glyph>
<glyph name="plusminus" format="1">
  <advance width="643"/>
  <unicode hex="00B1"/>
  <outline>
    <contour>
      <point x="54" y="36" type="line"/>
      <point x="589" y="36" type="line"/>
      <point x="589" y="124" type="line"/>
      <point x="54" y="124" type="line"/>
    </contour>
    <contour>
      <point x="54" y="269" type="curve"/>
      <point x="589" y="269" type="line"/>
      <point x="589" y="357"/>
      <point x="589" y="269"/>
      <point x="589" y="357" type="curve"/>
      <point x="54" y="357" type="line"/>
      <point x="54" y="269"/>
      <point x="54" y="357"/>
    </contour>
    <contour>
      <point x="370" y="37" type="curve"/>
      <point x="370" y="583" type="line"/>
      <point x="267" y="583"/>
      <point x="377" y="583"/>
      <point x="273" y="583" type="curve"/>
      <point x="273" y="37" type="line"/>
      <point x="377" y="37"/>
      <point x="267" y="37"/>
    </contour>
  </outline>
</glyph>
<glyph name="twosuperior" format="1">
  <advance width="426"/>
  <unicode hex="00B2"/>
  <outline>
    <contour>
      <point x="46" y="333" type="curve"/>
      <point x="163" y="333"/>
      <point x="277" y="333"/>
      <point x="374" y="333" type="curve"/>
      <point x="374" y="369"/>
      <point x="374" y="364"/>
      <point x="374" y="402" type="curve"/>
      <point x="270" y="402"/>
      <point x="150" y="402"/>
      <point x="46" y="402" type="curve"/>
      <point x="46" y="333"/>
      <point x="46" y="402"/>
    </contour>
    <contour>
      <point x="128" y="633" type="curve"/>
      <point x="146" y="668"/>
      <point x="166" y="693"/>
      <point x="205" y="693" type="curve"/>
      <point x="245" y="693"/>
      <point x="268" y="667"/>
      <point x="268" y="627" type="curve"/>
      <point x="268" y="586"/>
      <point x="243" y="565"/>
      <point x="213" y="538" type="curve"/>
      <point x="158" y="492"/>
      <point x="102" y="447"/>
      <point x="46" y="402" type="curve"/>
      <point x="50" y="333"/>
      <point x="47" y="402"/>
      <point x="51" y="333" type="curve"/>
      <point x="126" y="386"/>
      <point x="207" y="434"/>
      <point x="267" y="483" type="curve"/>
      <point x="316" y="529"/>
      <point x="356" y="563"/>
      <point x="356" y="630" type="curve"/>
      <point x="356" y="715"/>
      <point x="297" y="762"/>
      <point x="211" y="762" type="curve"/>
      <point x="141" y="762"/>
      <point x="92" y="735"/>
      <point x="64" y="663" type="curve"/>
      <point x="128" y="633"/>
      <point x="64" y="663"/>
    </contour>
    <contour>
      <point x="215" y="762" type="move" name="_top"/>
    </contour>
    <contour>
      <point x="205" y="332" type="move" name="_bottom"/>
    </contour>
  </outline>
</glyph>
<glyph name="threesuperior" format="1">
  <advance width="379"/>
  <unicode hex="00B3"/>
  <outline>
    <contour>
      <point x="95" y="656" type="curve"/>
      <point x="116" y="676"/>
      <point x="139" y="691"/>
      <point x="165" y="691" type="curve"/>
      <point x="204" y="691"/>
      <point x="229" y="672"/>
      <point x="229" y="635" type="curve"/>
      <point x="229" y="592"/>
      <point x="180" y="579"/>
      <point x="128" y="576" type="curve"/>
      <point x="128" y="517"/>
      <point x="128" y="576"/>
      <point x="128" y="517" type="curve"/>
      <point x="233" y="520"/>
      <point x="319" y="549"/>
      <point x="319" y="641" type="curve"/>
      <point x="319" y="722"/>
      <point x="260" y="760"/>
      <point x="174" y="760" type="curve"/>
      <point x="124" y="760"/>
      <point x="78" y="738"/>
      <point x="46" y="702" type="curve"/>
      <point x="95" y="656"/>
      <point x="46" y="702"/>
    </contour>
    <contour>
      <point x="44" y="362" type="curve"/>
      <point x="80" y="339"/>
      <point x="116" y="326"/>
      <point x="158" y="326" type="curve"/>
      <point x="260" y="324"/>
      <point x="334" y="361"/>
      <point x="333" y="455" type="curve"/>
      <point x="333" y="551"/>
      <point x="237" y="564"/>
      <point x="128" y="568" type="curve"/>
      <point x="128" y="516"/>
      <point x="128" y="568"/>
      <point x="128" y="516" type="curve"/>
      <point x="190" y="513"/>
      <point x="243" y="499"/>
      <point x="243" y="452" type="curve"/>
      <point x="243" y="412"/>
      <point x="211" y="392"/>
      <point x="166" y="393" type="curve"/>
      <point x="139" y="393"/>
      <point x="113" y="400"/>
      <point x="86" y="415" type="curve"/>
      <point x="44" y="362"/>
      <point x="86" y="415"/>
    </contour>
    <contour>
      <point x="187" y="760" type="move" name="_top"/>
    </contour>
    <contour>
      <point x="180" y="326" type="move" name="_bottom"/>
    </contour>
  </outline>
</glyph>
<glyph name="paragraph" format="1">
  <advance width="725"/>
  <unicode hex="00B6"/>
  <outline>
    <contour>
      <point x="406" y="642" type="curve"/>
      <point x="557" y="642"/>
      <point x="406" y="642"/>
      <point x="557" y="642" type="curve"/>
      <point x="557" y="722"/>
      <point x="557" y="642"/>
      <point x="557" y="722" type="curve"/>
      <point x="507" y="722"/>
      <point x="456" y="722"/>
      <point x="406" y="722" type="curve"/>
      <point x="406" y="642"/>
      <point x="406" y="722"/>
    </contour>
    <contour>
      <point x="388" y="374" type="curve"/>
      <point x="345" y="352"/>
      <point x="312" y="338"/>
      <point x="263" y="338" type="curve"/>
      <point x="182" y="338"/>
      <point x="137" y="395"/>
      <point x="137" y="480" type="curve"/>
      <point x="137" y="580"/>
      <point x="199" y="642"/>
      <point x="298" y="642" type="curve"/>
      <point x="333" y="642"/>
      <point x="368" y="642"/>
      <point x="403" y="642" type="curve"/>
      <point x="403" y="722"/>
      <point x="403" y="642"/>
      <point x="403" y="722" type="curve"/>
      <point x="364" y="722"/>
      <point x="324" y="722"/>
      <point x="284" y="722" type="curve"/>
      <point x="134" y="722"/>
      <point x="33" y="632"/>
      <point x="33" y="484" type="curve"/>
      <point x="33" y="342"/>
      <point x="129" y="263"/>
      <point x="272" y="260" type="curve"/>
      <point x="328" y="260"/>
      <point x="373" y="280"/>
      <point x="421" y="306" type="curve"/>
      <point x="388" y="374"/>
      <point x="421" y="308"/>
    </contour>
    <contour>
      <point x="459" y="0" type="curve"/>
      <point x="459" y="241"/>
      <point x="459" y="481"/>
      <point x="459" y="722" type="curve"/>
      <point x="355" y="722"/>
      <point x="459" y="722"/>
      <point x="355" y="722" type="curve"/>
      <point x="355" y="481"/>
      <point x="355" y="241"/>
      <point x="355" y="0" type="curve"/>
      <point x="459" y="0"/>
      <point x="355" y="0"/>
    </contour>
    <contour>
      <point x="652" y="0" type="curve"/>
      <point x="652" y="241"/>
      <point x="652" y="481"/>
      <point x="652" y="722" type="curve"/>
      <point x="549" y="722"/>
      <point x="652" y="722"/>
      <point x="549" y="722" type="curve"/>
      <point x="549" y="481"/>
      <point x="549" y="241"/>
      <point x="549" y="0" type="curve"/>
      <point x="652" y="0"/>
      <point x="549" y="0"/>
    </contour>
  </outline>
</glyph>
<glyph name="periodcentered" format="1">
  <advance width="222"/>
  <unicode hex="00B7"/>
  <outline>
    <contour>
      <point x="169" y="440" type="curve"/>
      <point x="169" y="476"/>
      <point x="144" y="493"/>
      <point x="110" y="493" type="curve"/>
      <point x="76" y="493"/>
      <point x="54" y="474"/>
      <point x="54" y="440" type="curve"/>
      <point x="166" y="440"/>
      <point x="56" y="440"/>
      <point x="169" y="440" type="curve"/>
      <point x="169" y="404"/>
      <point x="144" y="387"/>
      <point x="110" y="387" type="curve"/>
      <point x="75" y="387"/>
      <point x="54" y="405"/>
      <point x="54" y="440" type="curve"/>
      <point x="166" y="440"/>
      <point x="56" y="440"/>
    </contour>
  </outline>
</glyph>
<glyph name="cedilla" format="1">
  <advance width="304"/>
  <unicode hex="00B8"/>
  <outline>
    <contour>
      <point x="135" y="116" type="curve"/>
      <point x="122" y="93"/>
      <point x="85" y="20"/>
      <point x="72" y="-4" type="curve"/>
      <point x="143" y="-68"/>
      <point x="72" y="-4"/>
      <point x="143" y="-68" type="curve"/>
      <point x="157" y="-41"/>
      <point x="201" y="34"/>
      <point x="214" y="60" type="curve"/>
      <point x="135" y="116"/>
      <point x="214" y="60"/>
    </contour>
    <contour>
      <point x="143" y="-68" type="curve"/>
      <point x="151" y="-62"/>
      <point x="157" y="-59"/>
      <point x="166" y="-59" type="curve"/>
      <point x="182" y="-59"/>
      <point x="190" y="-69"/>
      <point x="190" y="-86" type="curve"/>
      <point x="190" y="-107"/>
      <point x="175" y="-116"/>
      <point x="153" y="-116" type="curve"/>
      <point x="131" y="-116"/>
      <point x="114" y="-112"/>
      <point x="93" y="-100" type="curve"/>
      <point x="57" y="-159"/>
      <point x="93" y="-100"/>
      <point x="57" y="-159" type="curve"/>
      <point x="86" y="-177"/>
      <point x="113" y="-185"/>
      <point x="148" y="-185" type="curve"/>
      <point x="217" y="-185"/>
      <point x="265" y="-152"/>
      <point x="265" y="-84" type="curve"/>
      <point x="265" y="-21"/>
      <point x="224" y="18"/>
      <point x="161" y="18" type="curve"/>
      <point x="127" y="18"/>
      <point x="103" y="12"/>
      <point x="73" y="-4" type="curve"/>
      <point x="143" y="-68"/>
      <point x="73" y="-4"/>
    </contour>
    <contour>
      <point x="205" y="60" type="move" name="_bottom"/>
    </contour>
  </outline>
</glyph>
<glyph name="onesuperior" format="1">
  <advance width="283"/>
  <unicode hex="00B9"/>
  <outline>
    <contour>
      <point x="64" y="603" type="line"/>
      <point x="214" y="749" type="line"/>
      <point x="124" y="753" type="line"/>
      <point x="16" y="654" type="line"/>
    </contour>
    <contour>
      <point x="214" y="333" type="curve"/>
      <point x="214" y="753" type="line"/>
      <point x="124" y="753" type="line"/>
      <point x="124" y="333" type="line"/>
      <point x="185" y="333"/>
      <point x="150" y="333"/>
    </contour>
    <contour>
      <point x="161" y="752" type="move" name="_top"/>
    </contour>
    <contour>
      <point x="170" y="334" type="move" name="_bottom"/>
    </contour>
  </outline>
</glyph>
<glyph name="ordmasculine" format="1">
  <advance width="395"/>
  <unicode hex="00BA"/>
  <outline>
    <contour>
      <point x="109" y="599" type="curve"/>
      <point x="109" y="664"/>
      <point x="133" y="715"/>
      <point x="196" y="715" type="curve"/>
      <point x="258" y="715"/>
      <point x="283" y="665"/>
      <point x="283" y="598" type="curve"/>
      <point x="283" y="529"/>
      <point x="260" y="478"/>
      <point x="201" y="478" type="curve"/>
      <point x="134" y="478"/>
      <point x="109" y="529"/>
      <point x="109" y="599" type="curve"/>
      <point x="83" y="599"/>
      <point x="67" y="599"/>
      <point x="41" y="599" type="curve"/>
      <point x="41" y="491"/>
      <point x="95" y="421"/>
      <point x="198" y="421" type="curve"/>
      <point x="299" y="421"/>
      <point x="354" y="490"/>
      <point x="354" y="598" type="curve"/>
      <point x="354" y="703"/>
      <point x="301" y="771"/>
      <point x="199" y="771" type="curve"/>
      <point x="95" y="771"/>
      <point x="41" y="703"/>
      <point x="41" y="599" type="curve"/>
      <point x="67" y="599"/>
      <point x="83" y="599"/>
    </contour>
  </outline>
</glyph>
<glyph name="guillemotright" format="1">
  <advance width="515"/>
  <unicode hex="00BB"/>
  <outline>
    <contour>
      <point x="276" y="456" type="curve"/>
      <point x="309" y="433"/>
      <point x="441" y="354"/>
      <point x="474" y="332" type="curve"/>
      <point x="474" y="244"/>
      <point x="474" y="323"/>
      <point x="474" y="234" type="curve"/>
      <point x="441" y="257"/>
      <point x="309" y="341"/>
      <point x="276" y="364" type="curve"/>
      <point x="276" y="451"/>
      <point x="276" y="368"/>
    </contour>
    <contour>
      <point x="276" y="205" type="curve"/>
      <point x="309" y="227"/>
      <point x="441" y="310"/>
      <point x="474" y="332" type="curve"/>
      <point x="474" y="244"/>
      <point x="474" y="323"/>
      <point x="474" y="234" type="curve"/>
      <point x="441" y="212"/>
      <point x="309" y="135"/>
      <point x="276" y="113" type="curve"/>
      <point x="276" y="200"/>
      <point x="276" y="117"/>
    </contour>
    <contour>
      <point x="67" y="456" type="curve"/>
      <point x="100" y="433"/>
      <point x="232" y="354"/>
      <point x="265" y="332" type="curve"/>
      <point x="265" y="244"/>
      <point x="265" y="323"/>
      <point x="265" y="234" type="curve"/>
      <point x="232" y="257"/>
      <point x="100" y="341"/>
      <point x="67" y="364" type="curve"/>
      <point x="67" y="451"/>
      <point x="67" y="368"/>
    </contour>
    <contour>
      <point x="67" y="205" type="curve"/>
      <point x="100" y="227"/>
      <point x="232" y="310"/>
      <point x="265" y="332" type="curve"/>
      <point x="265" y="244"/>
      <point x="265" y="323"/>
      <point x="265" y="234" type="curve"/>
      <point x="232" y="212"/>
      <point x="100" y="135"/>
      <point x="67" y="113" type="curve"/>
      <point x="67" y="200"/>
      <point x="67" y="117"/>
    </contour>
  </outline>
</glyph>
<glyph name="onequarter" format="1">
  <advance width="898"/>
  <unicode hex="00BC"/>
  <outline>
    <contour>
      <point x="307" y="-55" type="line"/>
      <point x="686" y="724" type="line"/>
      <point x="589" y="724" type="line"/>
      <point x="211" y="-55" type="line"/>
    </contour>
    <contour>
      <point x="74" y="575" type="line"/>
      <point x="224" y="722" type="line"/>
      <point x="134" y="725" type="line"/>
      <point x="26" y="626" type="line"/>
    </contour>
    <contour>
      <point x="224" y="305" type="curve"/>
      <point x="224" y="725" type="line"/>
      <point x="134" y="725" type="line"/>
      <point x="134" y="305" type="line"/>
      <point x="195" y="305"/>
      <point x="160" y="305"/>
    </contour>
    <contour>
      <point x="865" y="130" type="line"/>
      <point x="517" y="130" type="line"/>
      <point x="517" y="63" type="line"/>
      <point x="865" y="63" type="line"/>
    </contour>
    <contour>
      <point x="548" y="68" type="line"/>
      <point x="768" y="369" type="line"/>
      <point x="700" y="383" type="line"/>
      <point x="517" y="130" type="line"/>
    </contour>
    <contour>
      <point x="790" y="-54" type="line"/>
      <point x="790" y="383" type="line"/>
      <point x="700" y="383" type="line"/>
      <point x="700" y="-54" type="line"/>
    </contour>
  </outline>
</glyph>
<glyph name="onehalf" format="1">
  <advance width="966"/>
  <unicode hex="00BD"/>
  <outline>
    <contour>
      <point x="330" y="-55" type="line"/>
      <point x="709" y="724" type="line"/>
      <point x="612" y="724" type="line"/>
      <point x="234" y="-55" type="line"/>
    </contour>
    <contour>
      <point x="74" y="575" type="line"/>
      <point x="224" y="722" type="line"/>
      <point x="134" y="725" type="line"/>
      <point x="26" y="626" type="line"/>
    </contour>
    <contour>
      <point x="224" y="305" type="curve"/>
      <point x="224" y="725" type="line"/>
      <point x="134" y="725" type="line"/>
      <point x="134" y="305" type="line"/>
      <point x="195" y="305"/>
      <point x="160" y="305"/>
    </contour>
    <contour>
      <point x="601" y="-54" type="curve"/>
      <point x="717" y="-54"/>
      <point x="832" y="-54"/>
      <point x="928" y="-54" type="curve"/>
      <point x="928" y="-17"/>
      <point x="928" y="-23"/>
      <point x="928" y="15" type="curve"/>
      <point x="824" y="15"/>
      <point x="705" y="15"/>
      <point x="601" y="15" type="curve"/>
      <point x="601" y="-54"/>
      <point x="601" y="15"/>
    </contour>
    <contour>
      <point x="683" y="247" type="curve"/>
      <point x="701" y="281"/>
      <point x="721" y="306"/>
      <point x="760" y="306" type="curve"/>
      <point x="800" y="306"/>
      <point x="823" y="280"/>
      <point x="823" y="240" type="curve"/>
      <point x="823" y="200"/>
      <point x="797" y="179"/>
      <point x="768" y="151" type="curve"/>
      <point x="712" y="106"/>
      <point x="657" y="60"/>
      <point x="601" y="15" type="curve"/>
      <point x="605" y="-53"/>
      <point x="602" y="15"/>
      <point x="606" y="-53" type="curve"/>
      <point x="681" y="-1"/>
      <point x="762" y="47"/>
      <point x="822" y="96" type="curve"/>
      <point x="871" y="142"/>
      <point x="910" y="177"/>
      <point x="910" y="243" type="curve"/>
      <point x="910" y="328"/>
      <point x="852" y="375"/>
      <point x="766" y="375" type="curve"/>
      <point x="696" y="375"/>
      <point x="646" y="348"/>
      <point x="619" y="277" type="curve"/>
      <point x="683" y="247"/>
      <point x="619" y="277"/>
    </contour>
  </outline>
</glyph>
<glyph name="threequarters" format="1">
  <advance width="924"/>
  <unicode hex="00BE"/>
  <outline>
    <contour>
      <point x="340" y="-55" type="line"/>
      <point x="719" y="724" type="line"/>
      <point x="622" y="724" type="line"/>
      <point x="244" y="-55" type="line"/>
    </contour>
    <contour>
      <point x="89" y="620" type="curve"/>
      <point x="110" y="641"/>
      <point x="133" y="655"/>
      <point x="159" y="655" type="curve"/>
      <point x="198" y="655"/>
      <point x="224" y="636"/>
      <point x="224" y="599" type="curve"/>
      <point x="224" y="557"/>
      <point x="174" y="543"/>
      <point x="123" y="540" type="curve"/>
      <point x="123" y="481"/>
      <point x="123" y="540"/>
      <point x="123" y="481" type="curve"/>
      <point x="227" y="484"/>
      <point x="313" y="513"/>
      <point x="313" y="605" type="curve"/>
      <point x="313" y="686"/>
      <point x="254" y="724"/>
      <point x="169" y="724" type="curve"/>
      <point x="118" y="724"/>
      <point x="72" y="702"/>
      <point x="40" y="666" type="curve"/>
      <point x="89" y="620"/>
      <point x="40" y="666"/>
    </contour>
    <contour>
      <point x="38" y="326" type="curve"/>
      <point x="74" y="303"/>
      <point x="110" y="290"/>
      <point x="152" y="290" type="curve"/>
      <point x="254" y="288"/>
      <point x="329" y="325"/>
      <point x="327" y="419" type="curve"/>
      <point x="327" y="515"/>
      <point x="231" y="528"/>
      <point x="123" y="532" type="curve"/>
      <point x="123" y="480"/>
      <point x="123" y="532"/>
      <point x="123" y="480" type="curve"/>
      <point x="185" y="477"/>
      <point x="237" y="463"/>
      <point x="237" y="416" type="curve"/>
      <point x="237" y="376"/>
      <point x="205" y="356"/>
      <point x="160" y="357" type="curve"/>
      <point x="133" y="357"/>
      <point x="107" y="364"/>
      <point x="80" y="379" type="curve"/>
      <point x="38" y="326"/>
      <point x="80" y="379"/>
    </contour>
    <contour>
      <point x="894" y="130" type="line"/>
      <point x="546" y="130" type="line"/>
      <point x="546" y="63" type="line"/>
      <point x="894" y="63" type="line"/>
    </contour>
    <contour>
      <point x="577" y="68" type="line"/>
      <point x="797" y="369" type="line"/>
      <point x="730" y="383" type="line"/>
      <point x="546" y="130" type="line"/>
    </contour>
    <contour>
      <point x="819" y="-54" type="line"/>
      <point x="819" y="383" type="line"/>
      <point x="730" y="383" type="line"/>
      <point x="730" y="-54" type="line"/>
    </contour>
  </outline>
</glyph>
<glyph name="questiondown" format="1">
  <advance width="490"/>
  <unicode hex="00BF"/>
  <outline>
    <contour>
      <point x="309" y="360" type="curve"/>
      <point x="309" y="397"/>
      <point x="309" y="466"/>
      <point x="309" y="503" type="curve"/>
      <point x="211" y="503"/>
      <point x="309" y="503"/>
      <point x="211" y="503" type="curve"/>
      <point x="211" y="466"/>
      <point x="211" y="397"/>
      <point x="211" y="360" type="curve"/>
      <point x="309" y="360"/>
      <point x="211" y="360"/>
    </contour>
    <contour>
      <point x="391" y="132" type="line"/>
      <point x="360" y="96"/>
      <point x="320" y="71"/>
      <point x="266" y="71" type="curve"/>
      <point x="186" y="71"/>
      <point x="138" y="124"/>
      <point x="138" y="205" type="curve"/>
      <point x="138" y="299"/>
      <point x="200" y="360"/>
      <point x="298" y="360" type="curve"/>
      <point x="298" y="392"/>
      <point x="298" y="405"/>
      <point x="298" y="438" type="curve"/>
      <point x="143" y="438"/>
      <point x="39" y="350"/>
      <point x="39" y="205" type="curve"/>
      <point x="39" y="69"/>
      <point x="128" y="-14"/>
      <point x="261" y="-14" type="curve"/>
      <point x="342" y="-14"/>
      <point x="401" y="15"/>
      <point x="447" y="69" type="curve"/>
    </contour>
    <contour>
      <point x="202" y="687" type="curve"/>
      <point x="202" y="652"/>
      <point x="227" y="635"/>
      <point x="260" y="635" type="curve"/>
      <point x="294" y="635"/>
      <point x="316" y="654"/>
      <point x="316" y="687" type="curve"/>
      <point x="202" y="687"/>
      <point x="316" y="687"/>
      <point x="202" y="687" type="curve"/>
      <point x="202" y="723"/>
      <point x="226" y="739"/>
      <point x="260" y="739" type="curve"/>
      <point x="295" y="739"/>
      <point x="316" y="722"/>
      <point x="316" y="687" type="curve"/>
      <point x="202" y="687"/>
      <point x="316" y="687"/>
    </contour>
  </outline>
</glyph>
<glyph name="Acircumflex" format="1">
  <advance width="629"/>
  <unicode hex="00C2"/>
  <outline>
    <contour>
      <point x="457" y="292" type="curve"/>
      <point x="364" y="292"/>
      <point x="270" y="292"/>
      <point x="177" y="292" type="curve"/>
      <point x="134" y="207"/>
      <point x="177" y="292"/>
      <point x="134" y="207" type="curve"/>
      <point x="253" y="207"/>
      <point x="372" y="207"/>
      <point x="490" y="207" type="curve"/>
      <point x="457" y="292"/>
      <point x="490" y="207"/>
    </contour>
    <contour>
      <point x="615" y="0" type="curve"/>
      <point x="535" y="241"/>
      <point x="450" y="481"/>
      <point x="370" y="722" type="curve"/>
      <point x="275" y="722"/>
      <point x="370" y="722"/>
      <point x="275" y="722" type="curve"/>
      <point x="354" y="482"/>
      <point x="428" y="240"/>
      <point x="507" y="0" type="curve"/>
      <point x="615" y="0"/>
      <point x="507" y="0"/>
    </contour>
    <contour>
      <point x="111" y="0" type="curve"/>
      <point x="199" y="240"/>
      <point x="280" y="482"/>
      <point x="368" y="722" type="curve"/>
      <point x="274" y="722"/>
      <point x="368" y="722"/>
      <point x="274" y="722" type="curve"/>
      <point x="184" y="480"/>
      <point x="88" y="242"/>
      <point x="-2" y="0" type="curve"/>
      <point x="111" y="0"/>
      <point x="-2" y="0"/>
    </contour>
    <contour>
      <point x="236" y="796" type="line"/>
      <point x="366" y="962" type="line"/>
      <point x="235" y="962" type="line"/>
      <point x="136" y="796" type="line"/>
    </contour>
    <contour>
      <point x="504" y="796" type="line"/>
      <point x="404" y="962" type="line"/>
      <point x="273" y="962" type="line"/>
      <point x="403" y="796" type="line"/>
    </contour>
  </outline>
</glyph>
<glyph name="Atilde" format="1">
  <advance width="629"/>
  <unicode hex="00C3"/>
  <outline>
    <contour>
      <point x="457" y="292" type="curve"/>
      <point x="364" y="292"/>
      <point x="270" y="292"/>
      <point x="177" y="292" type="curve"/>
      <point x="134" y="207"/>
      <point x="177" y="292"/>
      <point x="134" y="207" type="curve"/>
      <point x="253" y="207"/>
      <point x="372" y="207"/>
      <point x="490" y="207" type="curve"/>
      <point x="457" y="292"/>
      <point x="490" y="207"/>
    </contour>
    <contour>
      <point x="615" y="0" type="curve"/>
      <point x="535" y="241"/>
      <point x="450" y="481"/>
      <point x="370" y="722" type="curve"/>
      <point x="275" y="722"/>
      <point x="370" y="722"/>
      <point x="275" y="722" type="curve"/>
      <point x="354" y="482"/>
      <point x="428" y="240"/>
      <point x="507" y="0" type="curve"/>
      <point x="615" y="0"/>
      <point x="507" y="0"/>
    </contour>
    <contour>
      <point x="111" y="0" type="curve"/>
      <point x="199" y="240"/>
      <point x="280" y="482"/>
      <point x="368" y="722" type="curve"/>
      <point x="274" y="722"/>
      <point x="368" y="722"/>
      <point x="274" y="722" type="curve"/>
      <point x="184" y="480"/>
      <point x="88" y="242"/>
      <point x="-2" y="0" type="curve"/>
      <point x="111" y="0"/>
      <point x="-2" y="0"/>
    </contour>
    <contour>
      <point x="447" y="961" type="curve"/>
      <point x="433" y="920"/>
      <point x="420" y="893"/>
      <point x="393" y="893" type="curve"/>
      <point x="363" y="893"/>
      <point x="347" y="905"/>
      <point x="326" y="926" type="curve"/>
      <point x="297" y="952"/>
      <point x="277" y="967"/>
      <point x="240" y="967" type="curve"/>
      <point x="170" y="967"/>
      <point x="137" y="907"/>
      <point x="116" y="837" type="curve"/>
      <point x="193" y="797"/>
      <point x="117" y="838"/>
      <point x="194" y="797" type="curve"/>
      <point x="210" y="843"/>
      <point x="225" y="868"/>
      <point x="256" y="868" type="curve"/>
      <point x="283" y="868"/>
      <point x="296" y="855"/>
      <point x="314" y="837" type="curve"/>
      <point x="346" y="807"/>
      <point x="368" y="792"/>
      <point x="409" y="792" type="curve"/>
      <point x="480" y="792"/>
      <point x="506" y="852"/>
      <point x="529" y="923" type="curve"/>
      <point x="447" y="961"/>
      <point x="529" y="922"/>
    </contour>
  </outline>
</glyph>
<glyph name="Adieresis" format="1">
  <advance width="629"/>
  <unicode hex="00C4"/>
  <outline>
    <contour>
      <point x="457" y="292" type="curve"/>
      <point x="364" y="292"/>
      <point x="270" y="292"/>
      <point x="177" y="292" type="curve"/>
      <point x="134" y="207"/>
      <point x="177" y="292"/>
      <point x="134" y="207" type="curve"/>
      <point x="253" y="207"/>
      <point x="372" y="207"/>
      <point x="490" y="207" type="curve"/>
      <point x="457" y="292"/>
      <point x="490" y="207"/>
    </contour>
    <contour>
      <point x="615" y="0" type="curve"/>
      <point x="535" y="241"/>
      <point x="450" y="481"/>
      <point x="370" y="722" type="curve"/>
      <point x="275" y="722"/>
      <point x="370" y="722"/>
      <point x="275" y="722" type="curve"/>
      <point x="354" y="482"/>
      <point x="428" y="240"/>
      <point x="507" y="0" type="curve"/>
      <point x="615" y="0"/>
      <point x="507" y="0"/>
    </contour>
    <contour>
      <point x="111" y="0" type="curve"/>
      <point x="199" y="240"/>
      <point x="280" y="482"/>
      <point x="368" y="722" type="curve"/>
      <point x="274" y="722"/>
      <point x="368" y="722"/>
      <point x="274" y="722" type="curve"/>
      <point x="184" y="480"/>
      <point x="88" y="242"/>
      <point x="-2" y="0" type="curve"/>
      <point x="111" y="0"/>
      <point x="-2" y="0"/>
    </contour>
    <contour>
      <point x="291" y="844" type="curve"/>
      <point x="291" y="880"/>
      <point x="267" y="898"/>
      <point x="233" y="898" type="curve"/>
      <point x="199" y="898"/>
      <point x="176" y="878"/>
      <point x="176" y="844" type="curve"/>
      <point x="289" y="844"/>
      <point x="179" y="844"/>
      <point x="291" y="844" type="curve"/>
      <point x="291" y="808"/>
      <point x="267" y="792"/>
      <point x="233" y="792" type="curve"/>
      <point x="198" y="792"/>
      <point x="176" y="810"/>
      <point x="176" y="844" type="curve"/>
      <point x="289" y="844"/>
      <point x="179" y="844"/>
    </contour>
    <contour>
      <point x="464" y="844" type="curve"/>
      <point x="464" y="880"/>
      <point x="440" y="898"/>
      <point x="406" y="898" type="curve"/>
      <point x="372" y="898"/>
      <point x="349" y="878"/>
      <point x="349" y="844" type="curve"/>
      <point x="462" y="844"/>
      <point x="352" y="844"/>
      <point x="464" y="844" type="curve"/>
      <point x="464" y="808"/>
      <point x="440" y="792"/>
      <point x="406" y="792" type="curve"/>
      <point x="371" y="792"/>
      <point x="349" y="810"/>
      <point x="349" y="844" type="curve"/>
      <point x="462" y="844"/>
      <point x="352" y="844"/>
    </contour>
  </outline>
</glyph>
<glyph name="AE" format="1">
  <advance width="860"/>
  <unicode hex="00C6"/>
  <outline>
    <contour>
      <point x="418" y="277" type="curve"/>
      <point x="324" y="277"/>
      <point x="271" y="277"/>
      <point x="177" y="277" type="curve"/>
      <point x="134" y="192"/>
      <point x="177" y="277"/>
      <point x="134" y="192" type="curve"/>
      <point x="253" y="192"/>
      <point x="332" y="192"/>
      <point x="451" y="192" type="curve"/>
      <point x="418" y="277"/>
      <point x="451" y="192"/>
    </contour>
    <contour>
      <point x="103" y="0" type="curve"/>
      <point x="497" y="722" type="line"/>
      <point x="403" y="722"/>
      <point x="497" y="722"/>
      <point x="403" y="722" type="curve"/>
      <point x="-10" y="0" type="line"/>
      <point x="103" y="0"/>
      <point x="-10" y="0"/>
    </contour>
    <contour>
      <point x="459" y="333" type="curve"/>
      <point x="556" y="333"/>
      <point x="653" y="333"/>
      <point x="750" y="333" type="curve"/>
      <point x="750" y="413"/>
      <point x="750" y="333"/>
      <point x="750" y="413" type="curve"/>
      <point x="653" y="413"/>
      <point x="556" y="413"/>
      <point x="459" y="413" type="curve"/>
      <point x="459" y="333"/>
      <point x="459" y="413"/>
    </contour>
    <contour>
      <point x="445" y="642" type="curve"/>
      <point x="566" y="642"/>
      <point x="686" y="642"/>
      <point x="806" y="642" type="curve"/>
      <point x="806" y="722"/>
      <point x="806" y="642"/>
      <point x="806" y="722" type="curve"/>
      <point x="686" y="722"/>
      <point x="566" y="722"/>
      <point x="445" y="722" type="curve"/>
      <point x="445" y="642"/>
      <point x="445" y="722"/>
    </contour>
    <contour>
      <point x="507" y="0" type="curve"/>
      <point x="507" y="722" type="line"/>
      <point x="403" y="722"/>
      <point x="507" y="722"/>
      <point x="403" y="722" type="curve"/>
      <point x="403" y="481"/>
      <point x="403" y="241"/>
      <point x="403" y="0" type="curve"/>
      <point x="507" y="0"/>
      <point x="403" y="0"/>
    </contour>
    <contour>
      <point x="445" y="0" type="curve"/>
      <point x="576" y="0"/>
      <point x="706" y="0"/>
      <point x="836" y="0" type="curve"/>
      <point x="836" y="80"/>
      <point x="836" y="0"/>
      <point x="836" y="80" type="curve"/>
      <point x="706" y="80"/>
      <point x="576" y="80"/>
      <point x="445" y="80" type="curve"/>
      <point x="445" y="0"/>
      <point x="445" y="80"/>
    </contour>
  </outline>
</glyph>
<glyph name="Ccedilla" format="1">
  <advance width="627"/>
  <unicode hex="00C7"/>
  <outline>
    <contour>
      <point x="598" y="654" type="curve"/>
      <point x="533" y="696"/>
      <point x="459" y="727"/>
      <point x="374" y="727" type="curve"/>
      <point x="157" y="727"/>
      <point x="49" y="576"/>
      <point x="49" y="344" type="curve"/>
      <point x="49" y="132"/>
      <point x="152" y="-5"/>
      <point x="355" y="-5" type="curve"/>
      <point x="466" y="-5"/>
      <point x="537" y="29"/>
      <point x="610" y="96" type="curve"/>
      <point x="555" y="158"/>
      <point x="610" y="96"/>
      <point x="555" y="158" type="curve"/>
      <point x="493" y="107"/>
      <point x="440" y="80"/>
      <point x="360" y="80" type="curve"/>
      <point x="213" y="80"/>
      <point x="153" y="190"/>
      <point x="153" y="348" type="curve"/>
      <point x="153" y="521"/>
      <point x="214" y="643"/>
      <point x="370" y="643" type="curve"/>
      <point x="435" y="643"/>
      <point x="493" y="623"/>
      <point x="546" y="589" type="curve"/>
      <point x="598" y="654"/>
      <point x="546" y="589"/>
    </contour>
    <contour>
      <point x="311" y="58" type="curve"/>
      <point x="299" y="35"/>
      <point x="261" y="-39"/>
      <point x="249" y="-62" type="curve"/>
      <point x="320" y="-126"/>
      <point x="249" y="-62"/>
      <point x="320" y="-126" type="curve"/>
      <point x="334" y="-99"/>
      <point x="377" y="-24"/>
      <point x="391" y="2" type="curve"/>
      <point x="311" y="58"/>
      <point x="391" y="2"/>
    </contour>
    <contour>
      <point x="320" y="-126" type="curve"/>
      <point x="327" y="-120"/>
      <point x="333" y="-117"/>
      <point x="343" y="-117" type="curve"/>
      <point x="359" y="-117"/>
      <point x="367" y="-127"/>
      <point x="367" y="-144" type="curve"/>
      <point x="367" y="-165"/>
      <point x="351" y="-175"/>
      <point x="329" y="-175" type="curve"/>
      <point x="308" y="-175"/>
      <point x="290" y="-170"/>
      <point x="269" y="-158" type="curve"/>
      <point x="233" y="-217"/>
      <point x="269" y="-158"/>
      <point x="233" y="-217" type="curve"/>
      <point x="263" y="-235"/>
      <point x="289" y="-243"/>
      <point x="324" y="-243" type="curve"/>
      <point x="393" y="-243"/>
      <point x="442" y="-210"/>
      <point x="442" y="-143" type="curve"/>
      <point x="442" y="-79"/>
      <point x="401" y="-41"/>
      <point x="338" y="-41" type="curve"/>
      <point x="304" y="-41"/>
      <point x="280" y="-47"/>
      <point x="249" y="-62" type="curve"/>
      <point x="320" y="-126"/>
      <point x="249" y="-62"/>
    </contour>
  </outline>
</glyph>
<glyph name="Egrave" format="1">
  <advance width="552"/>
  <unicode hex="00C8"/>
  <outline>
    <contour>
      <point x="151" y="333" type="curve"/>
      <point x="248" y="333"/>
      <point x="345" y="333"/>
      <point x="442" y="333" type="curve"/>
      <point x="442" y="413"/>
      <point x="442" y="333"/>
      <point x="442" y="413" type="curve"/>
      <point x="345" y="413"/>
      <point x="248" y="413"/>
      <point x="151" y="413" type="curve"/>
      <point x="151" y="333"/>
      <point x="151" y="413"/>
    </contour>
    <contour>
      <point x="137" y="642" type="curve"/>
      <point x="258" y="642"/>
      <point x="378" y="642"/>
      <point x="498" y="642" type="curve"/>
      <point x="498" y="722"/>
      <point x="498" y="642"/>
      <point x="498" y="722" type="curve"/>
      <point x="378" y="722"/>
      <point x="258" y="722"/>
      <point x="137" y="722" type="curve"/>
      <point x="137" y="642"/>
      <point x="137" y="722"/>
    </contour>
    <contour>
      <point x="199" y="0" type="curve"/>
      <point x="199" y="722" type="line"/>
      <point x="95" y="722"/>
      <point x="199" y="722"/>
      <point x="95" y="722" type="curve"/>
      <point x="95" y="481"/>
      <point x="95" y="241"/>
      <point x="95" y="0" type="curve"/>
      <point x="199" y="0"/>
      <point x="95" y="0"/>
    </contour>
    <contour>
      <point x="137" y="0" type="curve"/>
      <point x="268" y="0"/>
      <point x="398" y="0"/>
      <point x="528" y="0" type="curve"/>
      <point x="528" y="80"/>
      <point x="528" y="0"/>
      <point x="528" y="80" type="curve"/>
      <point x="398" y="80"/>
      <point x="268" y="80"/>
      <point x="137" y="80" type="curve"/>
      <point x="137" y="0"/>
      <point x="137" y="80"/>
    </contour>
    <contour>
      <point x="329" y="796" type="line"/>
      <point x="229" y="962" type="line"/>
      <point x="98" y="962" type="line"/>
      <point x="228" y="796" type="line"/>
    </contour>
  </outline>
</glyph>
<glyph name="Ecircumflex" format="1">
  <advance width="523"/>
  <unicode hex="00CA"/>
  <outline>
    <contour>
      <point x="132" y="333" type="curve"/>
      <point x="228" y="333"/>
      <point x="326" y="333"/>
      <point x="423" y="333" type="curve"/>
      <point x="423" y="413"/>
      <point x="423" y="333"/>
      <point x="423" y="413" type="curve"/>
      <point x="326" y="413"/>
      <point x="228" y="413"/>
      <point x="132" y="413" type="curve"/>
      <point x="132" y="333"/>
      <point x="132" y="413"/>
    </contour>
    <contour>
      <point x="118" y="642" type="curve"/>
      <point x="238" y="642"/>
      <point x="358" y="642"/>
      <point x="479" y="642" type="curve"/>
      <point x="479" y="722"/>
      <point x="479" y="642"/>
      <point x="479" y="722" type="curve"/>
      <point x="358" y="722"/>
      <point x="238" y="722"/>
      <point x="118" y="722" type="curve"/>
      <point x="118" y="642"/>
      <point x="118" y="722"/>
    </contour>
    <contour>
      <point x="179" y="0" type="curve"/>
      <point x="179" y="722" type="line"/>
      <point x="76" y="722"/>
      <point x="179" y="722"/>
      <point x="76" y="722" type="curve"/>
      <point x="76" y="481"/>
      <point x="76" y="241"/>
      <point x="76" y="0" type="curve"/>
      <point x="179" y="0"/>
      <point x="76" y="0"/>
    </contour>
    <contour>
      <point x="118" y="0" type="curve"/>
      <point x="248" y="0"/>
      <point x="378" y="0"/>
      <point x="508" y="0" type="curve"/>
      <point x="508" y="80"/>
      <point x="508" y="0"/>
      <point x="508" y="80" type="curve"/>
      <point x="378" y="80"/>
      <point x="248" y="80"/>
      <point x="118" y="80" type="curve"/>
      <point x="118" y="0"/>
      <point x="118" y="80"/>
    </contour>
    <contour>
      <point x="172" y="796" type="line"/>
      <point x="302" y="962" type="line"/>
      <point x="171" y="962" type="line"/>
      <point x="72" y="796" type="line"/>
    </contour>
    <contour>
      <point x="440" y="796" type="line"/>
      <point x="340" y="962" type="line"/>
      <point x="209" y="962" type="line"/>
      <point x="339" y="796" type="line"/>
    </contour>
  </outline>
</glyph>
<glyph name="Edieresis" format="1">
  <advance width="542"/>
  <unicode hex="00CB"/>
  <outline>
    <contour>
      <point x="141" y="333" type="curve"/>
      <point x="238" y="333"/>
      <point x="335" y="333"/>
      <point x="433" y="333" type="curve"/>
      <point x="433" y="413"/>
      <point x="433" y="333"/>
      <point x="433" y="413" type="curve"/>
      <point x="335" y="413"/>
      <point x="238" y="413"/>
      <point x="141" y="413" type="curve"/>
      <point x="141" y="333"/>
      <point x="141" y="413"/>
    </contour>
    <contour>
      <point x="128" y="642" type="curve"/>
      <point x="248" y="642"/>
      <point x="368" y="642"/>
      <point x="488" y="642" type="curve"/>
      <point x="488" y="722"/>
      <point x="488" y="642"/>
      <point x="488" y="722" type="curve"/>
      <point x="368" y="722"/>
      <point x="248" y="722"/>
      <point x="128" y="722" type="curve"/>
      <point x="128" y="642"/>
      <point x="128" y="722"/>
    </contour>
    <contour>
      <point x="189" y="0" type="curve"/>
      <point x="189" y="722" type="line"/>
      <point x="85" y="722"/>
      <point x="189" y="722"/>
      <point x="85" y="722" type="curve"/>
      <point x="85" y="481"/>
      <point x="85" y="241"/>
      <point x="85" y="0" type="curve"/>
      <point x="189" y="0"/>
      <point x="85" y="0"/>
    </contour>
    <contour>
      <point x="128" y="0" type="curve"/>
      <point x="258" y="0"/>
      <point x="388" y="0"/>
      <point x="518" y="0" type="curve"/>
      <point x="518" y="80"/>
      <point x="518" y="0"/>
      <point x="518" y="80" type="curve"/>
      <point x="388" y="80"/>
      <point x="258" y="80"/>
      <point x="128" y="80" type="curve"/>
      <point x="128" y="0"/>
      <point x="128" y="80"/>
    </contour>
    <contour>
      <point x="237" y="844" type="curve"/>
      <point x="237" y="880"/>
      <point x="212" y="898"/>
      <point x="178" y="898" type="curve"/>
      <point x="144" y="898"/>
      <point x="122" y="878"/>
      <point x="122" y="844" type="curve"/>
      <point x="235" y="844"/>
      <point x="124" y="844"/>
      <point x="237" y="844" type="curve"/>
      <point x="237" y="808"/>
      <point x="213" y="792"/>
      <point x="178" y="792" type="curve"/>
      <point x="144" y="792"/>
      <point x="122" y="810"/>
      <point x="122" y="844" type="curve"/>
      <point x="235" y="844"/>
      <point x="124" y="844"/>
    </contour>
    <contour>
      <point x="410" y="844" type="curve"/>
      <point x="410" y="880"/>
      <point x="385" y="898"/>
      <point x="351" y="898" type="curve"/>
      <point x="317" y="898"/>
      <point x="295" y="878"/>
      <point x="295" y="844" type="curve"/>
      <point x="408" y="844"/>
      <point x="297" y="844"/>
      <point x="410" y="844" type="curve"/>
      <point x="410" y="808"/>
      <point x="386" y="792"/>
      <point x="351" y="792" type="curve"/>
      <point x="317" y="792"/>
      <point x="295" y="810"/>
      <point x="295" y="844" type="curve"/>
      <point x="408" y="844"/>
      <point x="297" y="844"/>
    </contour>
  </outline>
</glyph>
<glyph name="Igrave" format="1">
  <advance width="290"/>
  <unicode hex="00CC"/>
  <outline>
    <contour>
      <point x="200" y="0" type="curve"/>
      <point x="200" y="241"/>
      <point x="200" y="481"/>
      <point x="200" y="722" type="curve"/>
      <point x="97" y="722"/>
      <point x="200" y="722"/>
      <point x="97" y="722" type="curve"/>
      <point x="97" y="481"/>
      <point x="97" y="241"/>
      <point x="97" y="0" type="curve"/>
      <point x="200" y="0"/>
      <point x="97" y="0"/>
    </contour>
    <contour>
      <point x="203" y="796" type="line"/>
      <point x="103" y="962" type="line"/>
      <point x="-27" y="962" type="line"/>
      <point x="103" y="796" type="line"/>
    </contour>
  </outline>
</glyph>
<glyph name="Icircumflex" format="1">
  <advance width="308"/>
  <unicode hex="00CE"/>
  <outline>
    <contour>
      <point x="209" y="0" type="curve"/>
      <point x="209" y="241"/>
      <point x="209" y="481"/>
      <point x="209" y="722" type="curve"/>
      <point x="105" y="722"/>
      <point x="209" y="722"/>
      <point x="105" y="722" type="curve"/>
      <point x="105" y="481"/>
      <point x="105" y="241"/>
      <point x="105" y="0" type="curve"/>
      <point x="209" y="0"/>
      <point x="105" y="0"/>
    </contour>
    <contour>
      <point x="75" y="796" type="line"/>
      <point x="204" y="962" type="line"/>
      <point x="74" y="962" type="line"/>
      <point x="-25" y="796" type="line"/>
    </contour>
    <contour>
      <point x="342" y="796" type="line"/>
      <point x="242" y="962" type="line"/>
      <point x="112" y="962" type="line"/>
      <point x="242" y="796" type="line"/>
    </contour>
  </outline>
</glyph>
<glyph name="Idieresis" format="1">
  <advance width="273"/>
  <unicode hex="00CF"/>
  <outline>
    <contour>
      <point x="190" y="0" type="curve"/>
      <point x="190" y="241"/>
      <point x="190" y="481"/>
      <point x="190" y="722" type="curve"/>
      <point x="87" y="722"/>
      <point x="190" y="722"/>
      <point x="87" y="722" type="curve"/>
      <point x="87" y="481"/>
      <point x="87" y="241"/>
      <point x="87" y="0" type="curve"/>
      <point x="190" y="0"/>
      <point x="87" y="0"/>
    </contour>
    <contour>
      <point x="111" y="844" type="curve"/>
      <point x="111" y="880"/>
      <point x="87" y="898"/>
      <point x="53" y="898" type="curve"/>
      <point x="19" y="898"/>
      <point x="-4" y="878"/>
      <point x="-4" y="844" type="curve"/>
      <point x="109" y="844"/>
      <point x="-1" y="844"/>
      <point x="111" y="844" type="curve"/>
      <point x="111" y="808"/>
      <point x="87" y="792"/>
      <point x="53" y="792" type="curve"/>
      <point x="18" y="792"/>
      <point x="-4" y="810"/>
      <point x="-4" y="844" type="curve"/>
      <point x="109" y="844"/>
      <point x="-1" y="844"/>
    </contour>
    <contour>
      <point x="285" y="844" type="curve"/>
      <point x="285" y="880"/>
      <point x="260" y="898"/>
      <point x="226" y="898" type="curve"/>
      <point x="192" y="898"/>
      <point x="169" y="878"/>
      <point x="169" y="844" type="curve"/>
      <point x="282" y="844"/>
      <point x="172" y="844"/>
      <point x="285" y="844" type="curve"/>
      <point x="285" y="808"/>
      <point x="260" y="792"/>
      <point x="226" y="792" type="curve"/>
      <point x="191" y="792"/>
      <point x="169" y="810"/>
      <point x="169" y="844" type="curve"/>
      <point x="282" y="844"/>
      <point x="172" y="844"/>
    </contour>
  </outline>
</glyph>
<glyph name="Ntilde" format="1">
  <advance width="761"/>
  <unicode hex="00D1"/>
  <outline>
    <contour>
      <point x="674" y="0" type="curve"/>
      <point x="516" y="241"/>
      <point x="359" y="481"/>
      <point x="201" y="722" type="curve"/>
      <point x="87" y="722"/>
      <point x="201" y="722"/>
      <point x="87" y="722" type="curve"/>
      <point x="244" y="481"/>
      <point x="402" y="241"/>
      <point x="560" y="0" type="curve"/>
      <point x="674" y="0"/>
      <point x="560" y="0"/>
    </contour>
    <contour>
      <point x="571" y="722" type="curve"/>
      <point x="571" y="481"/>
      <point x="571" y="241"/>
      <point x="571" y="0" type="curve"/>
      <point x="674" y="0"/>
      <point x="571" y="0"/>
      <point x="674" y="0" type="curve"/>
      <point x="674" y="241"/>
      <point x="674" y="481"/>
      <point x="674" y="722" type="curve"/>
      <point x="571" y="722"/>
      <point x="674" y="722"/>
    </contour>
    <contour>
      <point x="191" y="0" type="curve"/>
      <point x="191" y="241"/>
      <point x="191" y="481"/>
      <point x="191" y="722" type="curve"/>
      <point x="87" y="722"/>
      <point x="191" y="722"/>
      <point x="87" y="722" type="curve"/>
      <point x="87" y="481"/>
      <point x="87" y="241"/>
      <point x="87" y="0" type="curve"/>
      <point x="191" y="0"/>
      <point x="87" y="0"/>
    </contour>
    <contour>
      <point x="511" y="961" type="curve"/>
      <point x="497" y="920"/>
      <point x="483" y="893"/>
      <point x="457" y="893" type="curve"/>
      <point x="426" y="893"/>
      <point x="410" y="905"/>
      <point x="389" y="926" type="curve"/>
      <point x="360" y="952"/>
      <point x="341" y="967"/>
      <point x="303" y="967" type="curve"/>
      <point x="233" y="967"/>
      <point x="201" y="907"/>
      <point x="180" y="837" type="curve"/>
      <point x="257" y="797"/>
      <point x="180" y="838"/>
      <point x="257" y="797" type="curve"/>
      <point x="273" y="843"/>
      <point x="289" y="868"/>
      <point x="319" y="868" type="curve"/>
      <point x="346" y="868"/>
      <point x="359" y="855"/>
      <point x="378" y="837" type="curve"/>
      <point x="410" y="807"/>
      <point x="431" y="792"/>
      <point x="473" y="792" type="curve"/>
      <point x="543" y="792"/>
      <point x="569" y="852"/>
      <point x="593" y="923" type="curve"/>
      <point x="511" y="961"/>
      <point x="593" y="922"/>
    </contour>
  </outline>
</glyph>
<glyph name="Ograve" format="1">
  <advance width="711"/>
  <unicode hex="00D2"/>
  <outline>
    <contour>
      <point x="153" y="360" type="curve" name="FullCurve"/>
      <point x="153" y="519"/>
      <point x="204" y="643"/>
      <point x="352" y="643" type="curve" name="FullCurve"/>
      <point x="499" y="643"/>
      <point x="558" y="522"/>
      <point x="558" y="363" type="curve" name="FullCurve"/>
      <point x="558" y="204"/>
      <point x="505" y="79"/>
      <point x="358" y="79" type="curve" name="FullCurve"/>
      <point x="210" y="79"/>
      <point x="153" y="200"/>
      <point x="153" y="360" type="curve" name="FullCurve"/>
      <point x="49" y="360"/>
      <point x="153" y="360"/>
      <point x="49" y="360" type="curve" name="FullCurve"/>
      <point x="49" y="146"/>
      <point x="151" y="-5"/>
      <point x="353" y="-5" type="curve" name="FullCurve"/>
      <point x="558" y="-5"/>
      <point x="662" y="147"/>
      <point x="662" y="363" type="curve" name="FullCurve"/>
      <point x="662" y="575"/>
      <point x="561" y="727"/>
      <point x="358" y="727" type="curve" name="FullCurve"/>
      <point x="153" y="727"/>
      <point x="49" y="575"/>
      <point x="49" y="360" type="curve" name="FullCurve"/>
      <point x="153" y="360"/>
      <point x="49" y="360"/>
    </contour>
    <contour>
      <point x="410" y="796" type="line"/>
      <point x="310" y="962" type="line"/>
      <point x="180" y="962" type="line"/>
      <point x="309" y="796" type="line"/>
    </contour>
  </outline>
</glyph>
<glyph name="Otilde" format="1">
  <advance width="711"/>
  <unicode hex="00D5"/>
  <outline>
    <contour>
      <point x="153" y="360" type="curve" name="FullCurve"/>
      <point x="153" y="519"/>
      <point x="204" y="643"/>
      <point x="352" y="643" type="curve" name="FullCurve"/>
      <point x="499" y="643"/>
      <point x="558" y="522"/>
      <point x="558" y="363" type="curve" name="FullCurve"/>
      <point x="558" y="204"/>
      <point x="505" y="79"/>
      <point x="358" y="79" type="curve" name="FullCurve"/>
      <point x="210" y="79"/>
      <point x="153" y="200"/>
      <point x="153" y="360" type="curve" name="FullCurve"/>
      <point x="49" y="360"/>
      <point x="153" y="360"/>
      <point x="49" y="360" type="curve" name="FullCurve"/>
      <point x="49" y="146"/>
      <point x="151" y="-5"/>
      <point x="353" y="-5" type="curve" name="FullCurve"/>
      <point x="558" y="-5"/>
      <point x="662" y="147"/>
      <point x="662" y="363" type="curve" name="FullCurve"/>
      <point x="662" y="575"/>
      <point x="561" y="727"/>
      <point x="358" y="727" type="curve" name="FullCurve"/>
      <point x="153" y="727"/>
      <point x="49" y="575"/>
      <point x="49" y="360" type="curve" name="FullCurve"/>
      <point x="153" y="360"/>
      <point x="49" y="360"/>
    </contour>
    <contour>
      <point x="484" y="961" type="curve"/>
      <point x="470" y="920"/>
      <point x="456" y="893"/>
      <point x="430" y="893" type="curve"/>
      <point x="399" y="893"/>
      <point x="383" y="905"/>
      <point x="362" y="926" type="curve"/>
      <point x="333" y="952"/>
      <point x="314" y="967"/>
      <point x="276" y="967" type="curve"/>
      <point x="206" y="967"/>
      <point x="174" y="907"/>
      <point x="153" y="837" type="curve"/>
      <point x="230" y="797"/>
      <point x="153" y="838"/>
      <point x="230" y="797" type="curve"/>
      <point x="247" y="843"/>
      <point x="262" y="868"/>
      <point x="293" y="868" type="curve"/>
      <point x="320" y="868"/>
      <point x="333" y="855"/>
      <point x="351" y="837" type="curve"/>
      <point x="383" y="807"/>
      <point x="404" y="792"/>
      <point x="446" y="792" type="curve"/>
      <point x="517" y="792"/>
      <point x="542" y="852"/>
      <point x="566" y="923" type="curve"/>
      <point x="484" y="961"/>
      <point x="566" y="922"/>
    </contour>
  </outline>
</glyph>
<glyph name="Odieresis" format="1">
  <advance width="711"/>
  <unicode hex="00D6"/>
  <outline>
    <contour>
      <point x="153" y="360" type="curve" name="FullCurve"/>
      <point x="153" y="519"/>
      <point x="204" y="643"/>
      <point x="352" y="643" type="curve" name="FullCurve"/>
      <point x="499" y="643"/>
      <point x="558" y="522"/>
      <point x="558" y="363" type="curve" name="FullCurve"/>
      <point x="558" y="204"/>
      <point x="505" y="79"/>
      <point x="358" y="79" type="curve" name="FullCurve"/>
      <point x="210" y="79"/>
      <point x="153" y="200"/>
      <point x="153" y="360" type="curve" name="FullCurve"/>
      <point x="49" y="360"/>
      <point x="153" y="360"/>
      <point x="49" y="360" type="curve" name="FullCurve"/>
      <point x="49" y="146"/>
      <point x="151" y="-5"/>
      <point x="353" y="-5" type="curve" name="FullCurve"/>
      <point x="558" y="-5"/>
      <point x="662" y="147"/>
      <point x="662" y="363" type="curve" name="FullCurve"/>
      <point x="662" y="575"/>
      <point x="561" y="727"/>
      <point x="358" y="727" type="curve" name="FullCurve"/>
      <point x="153" y="727"/>
      <point x="49" y="575"/>
      <point x="49" y="360" type="curve" name="FullCurve"/>
      <point x="153" y="360"/>
      <point x="49" y="360"/>
    </contour>
    <contour>
      <point x="328" y="844" type="curve"/>
      <point x="328" y="880"/>
      <point x="303" y="898"/>
      <point x="269" y="898" type="curve"/>
      <point x="235" y="898"/>
      <point x="213" y="878"/>
      <point x="213" y="844" type="curve"/>
      <point x="326" y="844"/>
      <point x="215" y="844"/>
      <point x="328" y="844" type="curve"/>
      <point x="328" y="808"/>
      <point x="304" y="792"/>
      <point x="269" y="792" type="curve"/>
      <point x="235" y="792"/>
      <point x="213" y="810"/>
      <point x="213" y="844" type="curve"/>
      <point x="326" y="844"/>
      <point x="215" y="844"/>
    </contour>
    <contour>
      <point x="501" y="844" type="curve"/>
      <point x="501" y="880"/>
      <point x="476" y="898"/>
      <point x="442" y="898" type="curve"/>
      <point x="408" y="898"/>
      <point x="386" y="878"/>
      <point x="386" y="844" type="curve"/>
      <point x="499" y="844"/>
      <point x="388" y="844"/>
      <point x="501" y="844" type="curve"/>
      <point x="501" y="808"/>
      <point x="477" y="792"/>
      <point x="442" y="792" type="curve"/>
      <point x="408" y="792"/>
      <point x="386" y="810"/>
      <point x="386" y="844" type="curve"/>
      <point x="499" y="844"/>
      <point x="388" y="844"/>
    </contour>
  </outline>
</glyph>
<glyph name="multiply" format="1">
  <advance width="569"/>
  <unicode hex="00D7"/>
  <outline>
    <contour>
      <point x="109" y="70" type="line"/>
      <point x="520" y="491" type="line"/>
      <point x="460" y="550" type="line"/>
      <point x="49" y="130" type="line"/>
    </contour>
    <contour>
      <point x="520" y="129" type="line"/>
      <point x="109" y="549" type="line"/>
      <point x="49" y="489" type="line"/>
      <point x="460" y="69" type="line"/>
    </contour>
  </outline>
</glyph>
<glyph name="Ugrave" format="1">
  <advance width="699"/>
  <unicode hex="00D9"/>
  <outline>
    <contour>
      <point x="79" y="722" type="curve"/>
      <point x="79" y="579"/>
      <point x="79" y="416"/>
      <point x="79" y="274" type="curve"/>
      <point x="79" y="90"/>
      <point x="165" y="-5"/>
      <point x="348" y="-5" type="curve"/>
      <point x="532" y="-5"/>
      <point x="620" y="92"/>
      <point x="620" y="279" type="curve"/>
      <point x="620" y="420"/>
      <point x="620" y="581"/>
      <point x="620" y="722" type="curve"/>
      <point x="527" y="722"/>
      <point x="618" y="722"/>
      <point x="525" y="722" type="curve"/>
      <point x="525" y="576"/>
      <point x="525" y="414"/>
      <point x="525" y="268" type="curve"/>
      <point x="525" y="151"/>
      <point x="470" y="83"/>
      <point x="355" y="83" type="curve"/>
      <point x="227" y="83"/>
      <point x="174" y="156"/>
      <point x="174" y="289" type="curve"/>
      <point x="174" y="427"/>
      <point x="174" y="585"/>
      <point x="174" y="722" type="curve"/>
      <point x="81" y="722"/>
      <point x="172" y="722"/>
    </contour>
    <contour>
      <point x="406" y="796" type="line"/>
      <point x="306" y="962" type="line"/>
      <point x="176" y="962" type="line"/>
      <point x="305" y="796" type="line"/>
    </contour>
  </outline>
</glyph>
<glyph name="Uacute" format="1">
  <advance width="699"/>
  <unicode hex="00DA"/>
  <outline>
    <contour>
      <point x="79" y="722" type="curve"/>
      <point x="79" y="579"/>
      <point x="79" y="416"/>
      <point x="79" y="274" type="curve"/>
      <point x="79" y="90"/>
      <point x="165" y="-5"/>
      <point x="348" y="-5" type="curve"/>
      <point x="532" y="-5"/>
      <point x="620" y="92"/>
      <point x="620" y="279" type="curve"/>
      <point x="620" y="420"/>
      <point x="620" y="581"/>
      <point x="620" y="722" type="curve"/>
      <point x="527" y="722"/>
      <point x="618" y="722"/>
      <point x="525" y="722" type="curve"/>
      <point x="525" y="576"/>
      <point x="525" y="414"/>
      <point x="525" y="268" type="curve"/>
      <point x="525" y="151"/>
      <point x="470" y="83"/>
      <point x="355" y="83" type="curve"/>
      <point x="227" y="83"/>
      <point x="174" y="156"/>
      <point x="174" y="289" type="curve"/>
      <point x="174" y="427"/>
      <point x="174" y="585"/>
      <point x="174" y="722" type="curve"/>
      <point x="81" y="722"/>
      <point x="172" y="722"/>
    </contour>
    <contour>
      <point x="398" y="795" type="line"/>
      <point x="528" y="961" type="line"/>
      <point x="397" y="961" type="line"/>
      <point x="298" y="795" type="line"/>
    </contour>
  </outline>
</glyph>
<glyph name="Udieresis" format="1">
  <advance width="699"/>
  <unicode hex="00DC"/>
  <outline>
    <contour>
      <point x="79" y="722" type="curve"/>
      <point x="79" y="579"/>
      <point x="79" y="416"/>
      <point x="79" y="274" type="curve"/>
      <point x="79" y="90"/>
      <point x="165" y="-5"/>
      <point x="348" y="-5" type="curve"/>
      <point x="532" y="-5"/>
      <point x="620" y="92"/>
      <point x="620" y="279" type="curve"/>
      <point x="620" y="420"/>
      <point x="620" y="581"/>
      <point x="620" y="722" type="curve"/>
      <point x="527" y="722"/>
      <point x="618" y="722"/>
      <point x="525" y="722" type="curve"/>
      <point x="525" y="576"/>
      <point x="525" y="414"/>
      <point x="525" y="268" type="curve"/>
      <point x="525" y="151"/>
      <point x="470" y="83"/>
      <point x="355" y="83" type="curve"/>
      <point x="227" y="83"/>
      <point x="174" y="156"/>
      <point x="174" y="289" type="curve"/>
      <point x="174" y="427"/>
      <point x="174" y="585"/>
      <point x="174" y="722" type="curve"/>
      <point x="81" y="722"/>
      <point x="172" y="722"/>
    </contour>
    <contour>
      <point x="324" y="844" type="curve"/>
      <point x="324" y="880"/>
      <point x="299" y="898"/>
      <point x="266" y="898" type="curve"/>
      <point x="231" y="898"/>
      <point x="209" y="878"/>
      <point x="209" y="844" type="curve"/>
      <point x="322" y="844"/>
      <point x="211" y="844"/>
      <point x="324" y="844" type="curve"/>
      <point x="324" y="808"/>
      <point x="300" y="792"/>
      <point x="265" y="792" type="curve"/>
      <point x="231" y="792"/>
      <point x="209" y="810"/>
      <point x="209" y="844" type="curve"/>
      <point x="322" y="844"/>
      <point x="211" y="844"/>
    </contour>
    <contour>
      <point x="497" y="844" type="curve"/>
      <point x="497" y="880"/>
      <point x="472" y="898"/>
      <point x="439" y="898" type="curve"/>
      <point x="405" y="898"/>
      <point x="382" y="878"/>
      <point x="382" y="844" type="curve"/>
      <point x="495" y="844"/>
      <point x="384" y="844"/>
      <point x="497" y="844" type="curve"/>
      <point x="497" y="808"/>
      <point x="473" y="792"/>
      <point x="438" y="792" type="curve"/>
      <point x="404" y="792"/>
      <point x="382" y="810"/>
      <point x="382" y="844" type="curve"/>
      <point x="495" y="844"/>
      <point x="384" y="844"/>
    </contour>
  </outline>
</glyph>
<glyph name="Yacute" format="1">
  <advance width="558"/>
  <unicode hex="00DD"/>
  <outline>
    <contour>
      <point x="14" y="722" type="curve"/>
      <point x="82" y="596"/>
      <point x="157" y="465"/>
      <point x="224" y="337" type="curve"/>
      <point x="329" y="337"/>
      <point x="213" y="337"/>
      <point x="319" y="337" type="curve"/>
      <point x="254" y="468"/>
      <point x="190" y="593"/>
      <point x="124" y="722" type="curve"/>
      <point x="23" y="722"/>
      <point x="115" y="722"/>
    </contour>
    <contour>
      <point x="446" y="722" type="curve"/>
      <point x="374" y="592"/>
      <point x="307" y="467"/>
      <point x="235" y="337" type="curve"/>
      <point x="340" y="337"/>
      <point x="229" y="337"/>
      <point x="334" y="337" type="curve"/>
      <point x="406" y="464"/>
      <point x="481" y="596"/>
      <point x="553" y="722" type="curve"/>
      <point x="452" y="722"/>
      <point x="547" y="722"/>
    </contour>
    <contour>
      <point x="336" y="0" type="curve"/>
      <point x="336" y="115"/>
      <point x="336" y="227"/>
      <point x="336" y="342" type="curve"/>
      <point x="223" y="342"/>
      <point x="336" y="342"/>
      <point x="223" y="342" type="curve"/>
      <point x="223" y="227"/>
      <point x="223" y="115"/>
      <point x="223" y="0" type="curve"/>
      <point x="336" y="0"/>
      <point x="223" y="0"/>
    </contour>
    <contour>
      <point x="329" y="795" type="line"/>
      <point x="458" y="961" type="line"/>
      <point x="328" y="961" type="line"/>
      <point x="229" y="795" type="line"/>
    </contour>
  </outline>
</glyph>
<glyph name="Thorn" format="1">
  <advance width="541"/>
  <unicode hex="00DE"/>
  <outline>
    <contour>
      <point x="125" y="229" type="curve"/>
      <point x="177" y="202"/>
      <point x="229" y="184"/>
      <point x="292" y="184" type="curve"/>
      <point x="422" y="186"/>
      <point x="509" y="263"/>
      <point x="509" y="399" type="curve"/>
      <point x="509" y="531"/>
      <point x="410" y="612"/>
      <point x="261" y="612" type="curve"/>
      <point x="222" y="612"/>
      <point x="182" y="612"/>
      <point x="142" y="612" type="curve"/>
      <point x="142" y="532"/>
      <point x="142" y="612"/>
      <point x="142" y="532" type="curve"/>
      <point x="177" y="532"/>
      <point x="212" y="532"/>
      <point x="248" y="532" type="curve"/>
      <point x="345" y="532"/>
      <point x="405" y="479"/>
      <point x="405" y="395" type="curve"/>
      <point x="405" y="316"/>
      <point x="362" y="262"/>
      <point x="282" y="262" type="curve"/>
      <point x="233" y="262"/>
      <point x="200" y="275"/>
      <point x="157" y="298" type="curve"/>
      <point x="125" y="231"/>
      <point x="157" y="298"/>
    </contour>
    <contour>
      <point x="190" y="0" type="curve"/>
      <point x="190" y="241"/>
      <point x="190" y="481"/>
      <point x="190" y="722" type="curve"/>
      <point x="87" y="722"/>
      <point x="190" y="722"/>
      <point x="87" y="722" type="curve"/>
      <point x="87" y="481"/>
      <point x="87" y="241"/>
      <point x="87" y="0" type="curve"/>
      <point x="190" y="0"/>
      <point x="87" y="0"/>
    </contour>
  </outline>
</glyph>
